<svg width="76" height="76" viewBox="0 0 76 76" fill="none" xmlns="http://www.w3.org/2000/svg">
<g filter="url(#filter0_d_1_70)">
<rect x="4" width="68" height="68" rx="10" fill="url(#paint0_linear_1_70)"/>
<path opacity="0.968" fill-rule="evenodd" clip-rule="evenodd" d="M37.8828 16.6953C38.1218 16.7185 38.3171 16.8226 38.4688 17.0078C38.8836 17.8245 39.2873 18.6448 39.6797 19.4688C40.5888 19.6135 41.5003 19.7437 42.4141 19.8594C42.7831 20.0496 42.9003 20.3491 42.7656 20.7578C42.0647 21.4266 41.3745 22.1037 40.6953 22.7891C40.9491 23.7649 41.0924 24.7545 41.125 25.7578C40.8798 26.0763 40.5803 26.1414 40.2266 25.9531C39.4713 25.5495 38.7162 25.1459 37.9609 24.7422C37.0945 25.2275 36.2091 25.6702 35.3047 26.0703C34.9148 25.9933 34.7325 25.7589 34.7578 25.3672C34.874 24.4998 35.0302 23.6404 35.2266 22.7891C34.5743 22.0716 33.8842 21.3946 33.1563 20.7578C33.0216 20.3491 33.1388 20.0496 33.5078 19.8594C34.4202 19.7356 35.3317 19.6054 36.2422 19.4688C36.6346 18.6448 37.0383 17.8245 37.4531 17.0078C37.5703 16.854 37.7135 16.7498 37.8828 16.6953Z" fill="white"/>
<path opacity="0.967" fill-rule="evenodd" clip-rule="evenodd" d="M24.4453 22.3985C24.6877 22.3714 24.9091 22.4235 25.1094 22.5547C25.5343 23.3785 25.938 24.2118 26.3203 25.0547C27.2717 25.2682 28.2353 25.4375 29.211 25.5625C29.5392 25.7989 29.6043 26.0984 29.4063 26.461C28.7371 27.1302 28.073 27.7942 27.4141 28.4532C27.5914 29.3215 27.7476 30.1939 27.8828 31.0703C27.8465 31.6105 27.56 31.8058 27.0235 31.6563C26.2516 31.2313 25.4704 30.8277 24.6797 30.4453C23.8891 30.8277 23.1078 31.2313 22.336 31.6563C21.5279 31.7575 21.2544 31.406 21.5157 30.6016C21.6395 29.8784 21.7827 29.1623 21.9453 28.4532C21.305 27.7867 20.6409 27.1486 19.9532 26.5391C19.8393 26.3152 19.8133 26.0808 19.875 25.836C19.9141 25.6928 20.0052 25.6016 20.1485 25.5625C21.091 25.4205 22.0285 25.2642 22.961 25.0938C23.3959 24.2891 23.7995 23.4688 24.1719 22.6328C24.2614 22.5441 24.3525 22.466 24.4453 22.3985Z" fill="white"/>
<path opacity="0.968" fill-rule="evenodd" clip-rule="evenodd" d="M51.0078 22.3984C51.2962 22.3571 51.5436 22.4352 51.75 22.6328C52.1389 23.4613 52.5425 24.2816 52.9609 25.0937C53.8934 25.2642 54.8309 25.4205 55.7734 25.5625C56.1556 25.8277 56.2207 26.1533 55.9688 26.539C55.3201 27.1095 54.6951 27.7085 54.0938 28.3359C54.156 29.2696 54.2992 30.1941 54.5234 31.1094C54.4249 31.6496 54.1124 31.8319 53.5859 31.6562C52.7988 31.2562 52.0305 30.8265 51.2812 30.3672C50.4932 30.8068 49.6989 31.2365 48.8984 31.6562C48.1727 31.7829 47.8992 31.4835 48.0781 30.7578C48.2088 29.9869 48.352 29.2186 48.5078 28.4531C47.8229 27.7682 47.1328 27.0781 46.4375 26.3828C46.3298 26.0358 46.4209 25.7623 46.7109 25.5625C47.6866 25.4375 48.6502 25.2682 49.6016 25.0547C49.9839 24.2118 50.3876 23.3784 50.8125 22.5547C50.8902 22.5105 50.9553 22.4583 51.0078 22.3984Z" fill="white"/>
<path opacity="0.969" fill-rule="evenodd" clip-rule="evenodd" d="M36.7109 28.4192C40.8256 28.0875 44.0157 29.6239 46.2813 33.0285C47.922 36.0251 48.0782 39.0981 46.75 42.2473C44.9038 45.7826 41.9742 47.6316 37.9609 47.7942C34.3526 47.677 31.5792 46.1145 29.6406 43.1067C28.0633 40.2641 27.8549 37.3214 29.0156 34.2785C30.5581 30.9778 33.1231 29.0247 36.7109 28.4192ZM37.4141 31.466C40.6406 31.4438 42.8931 32.9021 44.1719 35.841C45.1098 39.1738 44.1592 41.817 41.3203 43.7707C38.065 45.3702 35.2134 44.8363 32.7656 42.1692C31.4073 40.3217 31.0427 38.2904 31.6719 36.0754C32.6954 33.4238 34.6095 31.8874 37.4141 31.466Z" fill="white"/>
<path opacity="0.971" fill-rule="evenodd" clip-rule="evenodd" d="M37.0234 32.6328C40.2515 32.3769 42.3479 33.7831 43.3125 36.8516C43.7673 39.7574 42.6865 41.8538 40.0703 43.1406C37.3721 44.038 35.1455 43.3739 33.3906 41.1485C31.8855 38.395 32.2632 35.9341 34.5234 33.7656C35.2777 33.1981 36.1111 32.8205 37.0234 32.6328ZM40.4609 36.1485C39.2449 37.26 38.0469 38.4058 36.8672 39.586C36.4874 38.9702 36.0968 38.3582 35.6953 37.75C35.1 37.5636 34.8265 37.7849 34.875 38.4141C35.3177 39.1953 35.7604 39.9766 36.2031 40.7578C36.443 41.0865 36.7424 41.1516 37.1015 40.9531C38.3906 39.6641 39.6797 38.375 40.9687 37.086C41.1887 36.5622 41.0194 36.2497 40.4609 36.1485Z" fill="white"/>
<path opacity="0.943" fill-rule="evenodd" clip-rule="evenodd" d="M29.7578 45.2109C30.3904 45.7773 31.0414 46.3373 31.7109 46.8906C32.3779 47.3151 33.055 47.7188 33.7422 48.1016C33.1432 49.1432 32.5443 50.1849 31.9453 51.2266C31.3855 50.4979 30.7866 49.8077 30.1484 49.1562C29.2715 49.2145 28.3991 49.3317 27.5312 49.5078C27.4662 49.4818 27.401 49.4557 27.3359 49.4297C28.1454 48.0221 28.9527 46.6159 29.7578 45.2109Z" fill="white"/>
<path opacity="0.945" fill-rule="evenodd" clip-rule="evenodd" d="M46.0078 45.2109C46.0856 45.2042 46.1507 45.2303 46.2031 45.2891C46.9974 46.6693 47.7916 48.0494 48.5859 49.4297C48.5338 49.4557 48.4818 49.4818 48.4297 49.5078C47.5491 49.3305 46.6637 49.2134 45.7734 49.1562C45.1623 49.8066 44.5633 50.4707 43.9766 51.1484C43.3579 50.1457 42.759 49.1301 42.1797 48.1016C43.3652 47.4957 44.4589 46.7535 45.4609 45.875C45.6719 45.6728 45.8541 45.4515 46.0078 45.2109Z" fill="white"/>
</g>
<defs>
<filter id="filter0_d_1_70" x="0" y="0" width="76" height="76" filterUnits="userSpaceOnUse" color-interpolation-filters="sRGB">
<feFlood flood-opacity="0" result="BackgroundImageFix"/>
<feColorMatrix in="SourceAlpha" type="matrix" values="0 0 0 0 0 0 0 0 0 0 0 0 0 0 0 0 0 0 127 0" result="hardAlpha"/>
<feOffset dy="4"/>
<feGaussianBlur stdDeviation="2"/>
<feComposite in2="hardAlpha" operator="out"/>
<feColorMatrix type="matrix" values="0 0 0 0 0 0 0 0 0 0 0 0 0 0 0 0 0 0 0.25 0"/>
<feBlend mode="normal" in2="BackgroundImageFix" result="effect1_dropShadow_1_70"/>
<feBlend mode="normal" in="SourceGraphic" in2="effect1_dropShadow_1_70" result="shape"/>
</filter>
<linearGradient id="paint0_linear_1_70" x1="38" y1="0" x2="38" y2="68" gradientUnits="userSpaceOnUse">
<stop stop-color="#188DCD"/>
<stop offset="1" stop-color="#29BCEE"/>
</linearGradient>
</defs>
</svg>
