<svg width="68" height="68" viewBox="0 0 68 68" fill="none" xmlns="http://www.w3.org/2000/svg">
<rect width="68" height="68" rx="10" fill="url(#paint0_linear_1_70)"/>
<path opacity="0.968" fill-rule="evenodd" clip-rule="evenodd" d="M33.8828 16.6953C34.1218 16.7185 34.3171 16.8226 34.4688 17.0078C34.8836 17.8245 35.2873 18.6448 35.6797 19.4688C36.5888 19.6135 37.5003 19.7437 38.4141 19.8594C38.7831 20.0496 38.9003 20.3491 38.7656 20.7578C38.0647 21.4266 37.3745 22.1037 36.6953 22.7891C36.9491 23.7649 37.0924 24.7545 37.125 25.7578C36.8798 26.0763 36.5803 26.1414 36.2266 25.9531C35.4713 25.5495 34.7162 25.1459 33.9609 24.7422C33.0945 25.2275 32.2091 25.6702 31.3047 26.0703C30.9148 25.9933 30.7325 25.7589 30.7578 25.3672C30.874 24.4998 31.0302 23.6404 31.2266 22.7891C30.5743 22.0716 29.8842 21.3946 29.1563 20.7578C29.0216 20.3491 29.1388 20.0496 29.5078 19.8594C30.4202 19.7356 31.3317 19.6054 32.2422 19.4688C32.6346 18.6448 33.0383 17.8245 33.4531 17.0078C33.5703 16.854 33.7135 16.7498 33.8828 16.6953Z" fill="white"/>
<path opacity="0.967" fill-rule="evenodd" clip-rule="evenodd" d="M20.4453 22.3985C20.6877 22.3714 20.9091 22.4235 21.1094 22.5547C21.5343 23.3785 21.938 24.2118 22.3203 25.0547C23.2717 25.2682 24.2353 25.4375 25.211 25.5625C25.5392 25.7989 25.6043 26.0984 25.4063 26.461C24.7371 27.1302 24.073 27.7942 23.4141 28.4532C23.5914 29.3215 23.7476 30.1939 23.8828 31.0703C23.8465 31.6105 23.56 31.8058 23.0235 31.6563C22.2516 31.2313 21.4704 30.8277 20.6797 30.4453C19.8891 30.8277 19.1078 31.2313 18.336 31.6563C17.5279 31.7575 17.2544 31.406 17.5157 30.6016C17.6395 29.8784 17.7827 29.1623 17.9453 28.4532C17.305 27.7867 16.6409 27.1486 15.9532 26.5391C15.8393 26.3152 15.8133 26.0808 15.875 25.836C15.9141 25.6928 16.0052 25.6016 16.1485 25.5625C17.091 25.4205 18.0285 25.2642 18.961 25.0938C19.3959 24.2891 19.7995 23.4688 20.1719 22.6328C20.2614 22.5441 20.3525 22.466 20.4453 22.3985Z" fill="white"/>
<path opacity="0.968" fill-rule="evenodd" clip-rule="evenodd" d="M47.0078 22.3984C47.2962 22.3571 47.5436 22.4352 47.75 22.6328C48.1389 23.4613 48.5425 24.2816 48.9609 25.0937C49.8934 25.2642 50.8309 25.4205 51.7734 25.5625C52.1556 25.8277 52.2207 26.1533 51.9688 26.539C51.3201 27.1095 50.6951 27.7085 50.0938 28.3359C50.156 29.2696 50.2992 30.1941 50.5234 31.1094C50.4249 31.6496 50.1124 31.8319 49.5859 31.6562C48.7988 31.2562 48.0305 30.8265 47.2812 30.3672C46.4932 30.8068 45.6989 31.2365 44.8984 31.6562C44.1727 31.7829 43.8992 31.4835 44.0781 30.7578C44.2088 29.9869 44.352 29.2186 44.5078 28.4531C43.8229 27.7682 43.1328 27.0781 42.4375 26.3828C42.3298 26.0358 42.4209 25.7623 42.7109 25.5625C43.6866 25.4375 44.6502 25.2682 45.6016 25.0547C45.9839 24.2118 46.3876 23.3784 46.8125 22.5547C46.8902 22.5105 46.9553 22.4583 47.0078 22.3984Z" fill="white"/>
<path opacity="0.969" fill-rule="evenodd" clip-rule="evenodd" d="M32.7109 28.4192C36.8256 28.0875 40.0157 29.6239 42.2813 33.0285C43.922 36.0251 44.0782 39.0981 42.75 42.2473C40.9038 45.7826 37.9742 47.6316 33.9609 47.7942C30.3526 47.677 27.5792 46.1145 25.6406 43.1067C24.0633 40.2641 23.8549 37.3214 25.0156 34.2785C26.5581 30.9778 29.1231 29.0247 32.7109 28.4192ZM33.4141 31.466C36.6406 31.4438 38.8931 32.9021 40.1719 35.841C41.1098 39.1738 40.1592 41.817 37.3203 43.7707C34.065 45.3702 31.2134 44.8363 28.7656 42.1692C27.4073 40.3217 27.0427 38.2904 27.6719 36.0754C28.6954 33.4238 30.6095 31.8874 33.4141 31.466Z" fill="white"/>
<path opacity="0.971" fill-rule="evenodd" clip-rule="evenodd" d="M33.0234 32.6328C36.2515 32.3769 38.3479 33.7831 39.3125 36.8516C39.7673 39.7574 38.6865 41.8538 36.0703 43.1406C33.3721 44.038 31.1455 43.3739 29.3906 41.1485C27.8855 38.395 28.2632 35.9341 30.5234 33.7656C31.2777 33.1981 32.1111 32.8205 33.0234 32.6328ZM36.4609 36.1485C35.2449 37.26 34.0469 38.4058 32.8672 39.586C32.4874 38.9702 32.0968 38.3582 31.6953 37.75C31.1 37.5636 30.8265 37.7849 30.875 38.4141C31.3177 39.1953 31.7604 39.9766 32.2031 40.7578C32.443 41.0865 32.7424 41.1516 33.1015 40.9531C34.3906 39.6641 35.6797 38.375 36.9687 37.086C37.1887 36.5622 37.0194 36.2497 36.4609 36.1485Z" fill="white"/>
<path opacity="0.943" fill-rule="evenodd" clip-rule="evenodd" d="M25.7578 45.2109C26.3904 45.7773 27.0414 46.3373 27.7109 46.8906C28.3779 47.3151 29.055 47.7188 29.7422 48.1016C29.1432 49.1432 28.5443 50.1849 27.9453 51.2266C27.3855 50.4979 26.7866 49.8077 26.1484 49.1562C25.2715 49.2145 24.3991 49.3317 23.5312 49.5078C23.4662 49.4818 23.401 49.4557 23.3359 49.4297C24.1454 48.0221 24.9527 46.6159 25.7578 45.2109Z" fill="white"/>
<path opacity="0.945" fill-rule="evenodd" clip-rule="evenodd" d="M42.0078 45.2109C42.0856 45.2042 42.1507 45.2303 42.2031 45.2891C42.9974 46.6693 43.7916 48.0494 44.5859 49.4297C44.5338 49.4557 44.4818 49.4818 44.4297 49.5078C43.5491 49.3305 42.6637 49.2134 41.7734 49.1562C41.1623 49.8066 40.5633 50.4707 39.9766 51.1484C39.3579 50.1457 38.759 49.1301 38.1797 48.1016C39.3652 47.4957 40.4589 46.7535 41.4609 45.875C41.6719 45.6728 41.8541 45.4515 42.0078 45.2109Z" fill="white"/>
<defs>
<linearGradient id="paint0_linear_1_70" x1="34" y1="0" x2="34" y2="68" gradientUnits="userSpaceOnUse">
<stop stop-color="#188DCD"/>
<stop offset="1" stop-color="#29BCEE"/>
</linearGradient>
</defs>
</svg>
