<svg width="1440" height="1196" viewBox="0 0 1440 1196" fill="none" xmlns="http://www.w3.org/2000/svg">
<path d="M187.735 757.5H1252.27C1270.49 757.5 1284.12 757.501 1294.78 758.559C1305.43 759.616 1313.06 761.726 1319.28 765.904C1326.26 770.591 1331.93 776.979 1335.76 784.465C1339.17 791.139 1340.36 798.956 1340.15 809.658C1339.94 820.367 1338.33 833.904 1336.17 852.002L1304.1 1121C1302.36 1135.6 1301.06 1146.51 1299.25 1155.09C1297.43 1163.66 1295.11 1169.86 1291.36 1175.04C1287.13 1180.88 1281.67 1185.73 1275.36 1189.24C1269.78 1192.36 1263.34 1193.93 1254.62 1194.71C1245.88 1195.5 1234.89 1195.5 1220.2 1195.5H219.802C205.106 1195.5 194.116 1195.5 185.382 1194.71C176.656 1193.93 170.225 1192.36 164.638 1189.24C158.333 1185.73 152.873 1180.88 148.639 1175.04C144.887 1169.86 142.568 1163.66 140.753 1155.09C138.937 1146.51 137.636 1135.6 135.896 1121L103.829 852.002C101.671 833.904 100.058 820.367 99.8472 809.658C99.6364 798.956 100.829 791.139 104.242 784.465C108.069 776.979 113.741 770.591 120.721 765.904C126.945 761.726 134.565 759.616 145.217 758.559C155.875 757.501 169.508 757.5 187.735 757.5Z" fill="#F6F6F6" stroke="#ACACAC"/>
<path d="M119.005 707.5H1320.99C1339.44 707.5 1353.23 707.501 1364.01 708.575C1374.77 709.648 1382.46 711.79 1388.72 716.031C1395.73 720.787 1401.41 727.263 1405.2 734.841C1408.58 741.599 1409.7 749.503 1409.35 760.319C1409 771.14 1407.19 784.816 1404.76 803.099L1369.12 1072.1C1367.21 1086.49 1365.79 1097.26 1363.89 1105.72C1361.99 1114.17 1359.62 1120.28 1355.86 1125.38C1351.62 1131.13 1346.18 1135.9 1339.91 1139.35C1334.36 1142.41 1328 1143.95 1319.37 1144.73C1310.73 1145.5 1299.87 1145.5 1285.35 1145.5H154.647C140.127 1145.5 129.27 1145.5 120.633 1144.73C112.005 1143.95 105.637 1142.41 100.088 1139.35C93.8247 1135.9 88.3838 1131.13 84.1396 1125.38C80.3792 1120.28 78.0142 1114.17 76.1145 1105.72C74.2131 1097.26 72.7865 1086.49 70.8793 1072.1L35.2373 803.099C32.8148 784.816 31.0034 771.14 30.6531 760.319C30.3029 749.503 31.4156 741.599 34.799 734.841C38.5923 727.263 44.2673 720.787 51.2805 716.031C57.5356 711.79 65.2257 709.648 75.9932 708.575C86.7674 707.501 100.562 707.5 119.005 707.5Z" fill="#F6F6F6" stroke="#ACACAC"/>
<rect x="0.5" y="0.5" width="1439" height="1095" rx="49.5" fill="#F6F6F6" stroke="#ACACAC"/>
</svg>
