<svg width="69" height="68" viewBox="0 0 69 68" fill="none" xmlns="http://www.w3.org/2000/svg">
<rect x="0.5" width="68" height="68" rx="10" fill="url(#paint0_linear_29_108)"/>
<g clip-path="url(#clip0_29_108)">
<path opacity="0.969" fill-rule="evenodd" clip-rule="evenodd" d="M37.4297 14.5859C37.7355 14.6438 37.9959 14.787 38.211 15.0156C39.5022 16.333 40.8174 17.6221 42.1563 18.8828C42.2341 19.1724 42.1821 19.4329 42 19.6641C40.6044 21.0338 39.1851 22.3749 37.7422 23.6875C37.4163 23.7884 37.1688 23.6972 37 23.4141C36.961 22.6854 36.948 21.9562 36.961 21.2266C34.6431 21.2396 32.3254 21.2266 30.0078 21.1875C29.8385 21.1224 29.7213 21.0052 29.6563 20.8359C29.6042 19.7161 29.6042 18.5964 29.6563 17.4766C29.6926 17.3648 29.7578 17.2736 29.8516 17.2031C32.2174 17.0884 34.5873 17.0493 36.961 17.0859C36.948 16.3563 36.961 15.6271 37 14.8984C37.1172 14.7446 37.2604 14.6405 37.4297 14.5859Z" fill="white"/>
<path opacity="0.976" fill-rule="evenodd" clip-rule="evenodd" d="M27.1172 22.0859C27.3632 22.0633 27.5976 22.1024 27.8203 22.2031C29.1875 23.5182 30.5547 24.8333 31.9219 26.1484C32.1551 26.428 32.168 26.7145 31.9609 27.0078C30.5641 28.4177 29.1319 29.7849 27.6641 31.1094C27.3692 31.2018 27.1218 31.1366 26.9219 30.914C26.8109 30.1651 26.7719 29.4099 26.8047 28.6484C24.4868 28.6615 22.1691 28.6484 19.8516 28.6094C19.7083 28.5703 19.6172 28.4791 19.5781 28.3359C19.526 27.1901 19.526 26.0443 19.5781 24.8984C19.6172 24.7552 19.7083 24.664 19.8516 24.625C22.1691 24.5859 24.4868 24.5729 26.8047 24.5859C26.7917 23.9083 26.8047 23.2312 26.8438 22.5547C26.8878 22.3682 26.9789 22.2119 27.1172 22.0859Z" fill="white"/>
<path opacity="0.976" fill-rule="evenodd" clip-rule="evenodd" d="M45.8672 22.7891C46.0771 22.7763 46.2855 22.7893 46.4922 22.8281C47.9115 24.1953 49.3307 25.5625 50.75 26.9297C50.8946 27.167 50.8946 27.4013 50.75 27.6328C49.3047 29.026 47.8594 30.4193 46.4141 31.8125C46.0411 31.9188 45.7677 31.8016 45.5938 31.4609C45.5547 30.7583 45.5417 30.0552 45.5547 29.3516C43.2368 29.3646 40.9192 29.3516 38.6016 29.3125C38.4584 29.2734 38.3672 29.1823 38.3281 29.0391C38.276 27.8672 38.276 26.6953 38.3281 25.5234C38.3932 25.4584 38.4584 25.3932 38.5235 25.3281C40.8671 25.2891 43.2108 25.276 45.5547 25.2891C45.5417 24.5855 45.5547 23.8823 45.5938 23.1797C45.6138 22.9916 45.705 22.8615 45.8672 22.7891Z" fill="white"/>
<path opacity="0.979" fill-rule="evenodd" clip-rule="evenodd" d="M14.4609 47.3203C14.4609 46.6693 14.4609 46.0182 14.4609 45.3672C15.3 41.6118 17.6438 39.6326 21.4922 39.4297C22.0611 37.076 23.4673 35.4224 25.7109 34.4688C28.9795 33.4268 31.7009 34.2211 33.875 36.8516C34.4834 37.73 34.9 38.6935 35.125 39.7422C38.9641 38.8163 41.8027 40.0923 43.6406 43.5703C44.7994 46.8392 44.0832 49.6127 41.4922 51.8906C40.3363 52.7546 39.0342 53.2234 37.5859 53.2969C31.8031 53.3725 26.0219 53.3465 20.2422 53.2188C17.937 52.7622 16.2313 51.4992 15.125 49.4297C14.8174 48.7438 14.596 48.0406 14.4609 47.3203ZM27.7422 36.4609C28.2138 36.3517 28.5524 36.5079 28.7578 36.9297C28.722 37.2128 28.5657 37.3821 28.2891 37.4375C26.4917 37.5164 25.3329 38.4149 24.8125 40.1328C24.675 40.965 24.5448 41.7984 24.4219 42.6328C24.3605 42.7724 24.2695 42.8895 24.1484 42.9844C22.9784 42.9184 21.8065 42.8924 20.6328 42.9063C18.8827 43.386 17.9712 44.5319 17.8984 46.3438C17.9403 48.0162 18.7476 49.136 20.3203 49.7031C20.6283 49.7807 20.9408 49.8328 21.2578 49.8594C26.6484 49.8854 32.0391 49.9115 37.4297 49.9375C37.8463 50.224 37.8463 50.5104 37.4297 50.7969C31.8568 50.849 26.2838 50.849 20.7109 50.7969C18.1218 50.1604 16.8588 48.5067 16.9219 45.8359C17.1986 44.0485 18.1752 42.8116 19.8516 42.125C20.345 41.9534 20.8529 41.8623 21.375 41.8516C22.0918 41.9017 22.8079 41.9538 23.5234 42.0078C23.6329 41.1951 23.7761 40.3877 23.9531 39.5859C24.6429 37.8409 25.9059 36.7992 27.7422 36.4609Z" fill="white"/>
<path opacity="0.979" fill-rule="evenodd" clip-rule="evenodd" d="M54.4609 45.3672C54.4609 46.0182 54.4609 46.6693 54.4609 47.3203C53.8476 50.343 52.0507 52.283 49.0703 53.1406C48.6834 53.2183 48.2927 53.2705 47.8984 53.2969C45.6845 53.3619 43.4709 53.349 41.2578 53.2578C44.3052 51.2247 45.5682 48.3862 45.0469 44.7422C43.9438 40.7789 41.3397 38.6434 37.2344 38.3359C36.8054 38.39 36.3757 38.4421 35.9453 38.4922C35.8932 38.4662 35.8412 38.4401 35.7891 38.414C35.402 37.379 34.8552 36.4415 34.1484 35.6015C35.7113 34.3129 37.5082 33.8051 39.5391 34.0781C42.7026 34.7155 44.6687 36.6035 45.4375 39.7422C48.8182 38.8637 51.5005 39.8532 53.4844 42.7109C53.9695 43.5485 54.2951 44.434 54.4609 45.3672Z" fill="white"/>
</g>
<defs>
<linearGradient id="paint0_linear_29_108" x1="34.5" y1="0" x2="34.5" y2="68" gradientUnits="userSpaceOnUse">
<stop stop-color="#188DCD"/>
<stop offset="1" stop-color="#29BCEE"/>
</linearGradient>
<clipPath id="clip0_29_108">
<rect width="40" height="40" fill="white" transform="translate(14.5 14)"/>
</clipPath>
</defs>
</svg>
