<svg width="69" height="68" viewBox="0 0 69 68" fill="none" xmlns="http://www.w3.org/2000/svg">
<rect x="0.699951" width="68" height="68" rx="10" fill="url(#paint0_linear_29_124)"/>
<path opacity="0.988" fill-rule="evenodd" clip-rule="evenodd" d="M28.9577 14.5078C31.9855 14.3623 34.6156 15.2998 36.8483 17.3203C40.8376 16.1547 44.21 17.1183 46.9655 20.2109C48.0166 21.6058 48.6806 23.1683 48.9577 24.8984C52.2313 26.1309 53.7287 28.5007 53.4499 32.0078C52.9959 34.3363 51.6808 35.9638 49.5045 36.8906C48.4551 37.26 47.3744 37.4033 46.2624 37.3203C45.7285 37.2943 45.1946 37.2682 44.6608 37.2422C44.9272 37.0488 45.0964 36.7883 45.1686 36.4609C45.2207 35.4713 45.2207 34.4818 45.1686 33.4922C45.0955 33.2026 44.9523 32.9552 44.7389 32.75C44.3148 32.5263 43.8721 32.357 43.4108 32.2422C43.2675 31.7213 43.0852 31.2134 42.8639 30.7188C42.9916 30.362 43.1349 30.0104 43.2936 29.6641C43.3749 29.2781 43.3228 28.9136 43.1374 28.5703C42.3902 27.7708 41.5959 27.0286 40.7545 26.3438C40.4942 26.2916 40.2337 26.2916 39.9733 26.3438C39.6252 26.4984 39.2737 26.6416 38.9186 26.7734C38.4239 26.5521 37.9161 26.3699 37.3952 26.2266C37.2582 25.6719 37.0238 25.1641 36.692 24.7031C36.5188 24.6035 36.3365 24.5254 36.1452 24.4688C35.1556 24.4166 34.166 24.4166 33.1764 24.4688C32.6764 24.5781 32.3509 24.8776 32.1999 25.3672C32.1 25.6535 32.0089 25.94 31.9264 26.2266C31.4055 26.3699 30.8977 26.5521 30.403 26.7734C30.0479 26.6416 29.6963 26.4984 29.3483 26.3438C28.9624 26.2624 28.5978 26.3145 28.2545 26.5C27.455 27.2472 26.7128 28.0415 26.028 28.8828C25.9759 29.1432 25.9759 29.4037 26.028 29.6641C26.1867 30.0104 26.33 30.362 26.4577 30.7188C26.2363 31.2134 26.0541 31.7213 25.9108 32.2422C25.4495 32.357 25.0068 32.5263 24.5827 32.75C24.3693 32.9552 24.2261 33.2026 24.153 33.4922C24.1009 34.4818 24.1009 35.4713 24.153 36.4609C24.2252 36.7883 24.3944 37.0488 24.6608 37.2422C23.4088 37.3504 22.1588 37.3374 20.9108 37.2031C18.3116 36.5748 16.658 34.9732 15.9499 32.3984C15.4474 29.0541 16.6974 26.6322 19.6999 25.1328C19.6438 21.1075 21.2975 18.0216 24.6608 15.875C26.0105 15.1255 27.4427 14.6698 28.9577 14.5078Z" fill="white"/>
<path opacity="0.968" fill-rule="evenodd" clip-rule="evenodd" d="M33.3328 25.6016C34.2197 25.5756 35.1051 25.6016 35.989 25.6797C36.1675 26.1898 36.3759 26.6847 36.614 27.1641C37.4131 27.3682 38.1683 27.6807 38.8797 28.1016C39.2536 27.9537 39.6182 27.7844 39.9734 27.5938C40.1255 27.5163 40.2818 27.4902 40.4422 27.5156C41.0021 28.0756 41.5619 28.6354 42.1218 29.1953C41.9972 29.7332 41.8018 30.2541 41.5359 30.7578C41.9402 31.476 42.2527 32.2313 42.4734 33.0234C42.9528 33.2616 43.4476 33.4699 43.9578 33.6484C44.0358 34.5323 44.0618 35.4177 44.0359 36.3047C43.4965 36.4671 42.9758 36.6755 42.4734 36.9297C42.2527 37.7219 41.9402 38.4771 41.5359 39.1953C41.7788 39.7071 42.0001 40.228 42.2 40.7578C42.9812 41.5391 43.7625 42.3203 44.5437 43.1016C44.5697 43.1797 44.5958 43.2578 44.6218 43.3359C44.6479 45.1849 44.674 47.0338 44.7 48.8828C46.2923 49.6798 46.6829 50.8777 45.8718 52.4766C44.9253 53.5142 43.8446 53.6835 42.6297 52.9844C41.7753 52.2698 41.5018 51.3714 41.8093 50.2891C42.077 49.5787 42.5718 49.1099 43.2937 48.8828C43.3458 47.1901 43.3458 45.4974 43.2937 43.8047C42.5906 43.1016 41.8875 42.3984 41.1843 41.6953C40.9204 41.9856 40.6339 42.246 40.325 42.4766C39.8386 42.279 39.3568 42.0706 38.8797 41.8516C38.1615 42.2559 37.4062 42.5684 36.614 42.7891C36.3598 43.2914 36.1515 43.8122 35.989 44.3516C35.7807 44.3516 35.5724 44.3516 35.364 44.3516C35.351 45.8622 35.364 47.3727 35.4031 48.8828C36.8418 49.5798 37.2845 50.6736 36.7312 52.1641C36.0082 53.2906 35.0056 53.6422 33.7234 53.2188C32.8508 52.7882 32.3821 52.0851 32.3172 51.1094C32.4002 50.0454 32.9341 49.3032 33.9187 48.8828C33.9578 47.3727 33.9708 45.8622 33.9578 44.3516C33.7432 44.376 33.5348 44.35 33.3328 44.2734C33.1643 43.7261 32.93 43.2183 32.6297 42.75C31.8604 42.55 31.1313 42.2505 30.4422 41.8516C29.965 42.0706 29.4832 42.279 28.9968 42.4766C28.6879 42.246 28.4015 41.9856 28.1375 41.6953C27.4343 42.3984 26.7312 43.1016 26.0281 43.8047C25.976 45.4974 25.976 47.1901 26.0281 48.8828C27.4527 49.5193 27.9215 50.587 27.4343 52.0859C26.5618 53.4533 25.4029 53.7527 23.9578 52.9844C22.7084 51.7312 22.7084 50.4812 23.9578 49.2344C24.163 49.0862 24.3844 48.969 24.6218 48.8828C24.6479 47.0338 24.674 45.1849 24.7 43.3359C24.726 43.2578 24.7521 43.1797 24.7781 43.1016C25.5593 42.3203 26.3406 41.5391 27.1218 40.7578C27.3217 40.228 27.543 39.7071 27.7859 39.1953C27.3816 38.4771 27.0691 37.7219 26.8484 36.9297C26.3461 36.6755 25.8253 36.4671 25.2859 36.3047C25.2859 35.4193 25.2859 34.5338 25.2859 33.6484C25.7084 33.5287 26.125 33.3855 26.5359 33.2188C26.6915 33.1739 26.8087 33.0827 26.8875 32.9453C27.0786 32.1724 27.378 31.4433 27.7859 30.7578C27.52 30.2541 27.3247 29.7332 27.2 29.1953C27.7599 28.6354 28.3197 28.0756 28.8797 27.5156C29.4175 27.6403 29.9384 27.8356 30.4422 28.1016C31.1535 27.6807 31.9087 27.3682 32.7078 27.1641C32.9618 26.6627 33.1701 26.1419 33.3328 25.6016ZM34.1922 30.6016C36.3641 30.5478 37.8875 31.5114 38.7625 33.4922C39.3445 35.5741 38.7847 37.2799 37.0828 38.6094C34.9107 39.8034 32.9706 39.5038 31.2625 37.7109C29.7911 35.4846 30.0125 33.4403 31.9265 31.5781C32.613 31.0783 33.3682 30.7527 34.1922 30.6016Z" fill="white"/>
<defs>
<linearGradient id="paint0_linear_29_124" x1="34.7" y1="0" x2="34.7" y2="68" gradientUnits="userSpaceOnUse">
<stop stop-color="#188DCD"/>
<stop offset="1" stop-color="#29BCEE"/>
</linearGradient>
</defs>
</svg>
