<svg width="69" height="68" viewBox="0 0 69 68" fill="none" xmlns="http://www.w3.org/2000/svg">
<rect x="0.899902" width="68" height="68" rx="10" fill="url(#paint0_linear_29_126)"/>
<path opacity="0.99" fill-rule="evenodd" clip-rule="evenodd" d="M37.3609 15.2109C41.3211 14.8803 44.407 16.3387 46.6188 19.5859C47.4123 20.937 47.7898 22.3954 47.7516 23.9609C50.6709 24.0031 52.585 25.4094 53.4938 28.1797C54.0391 30.9989 53.0885 33.1473 50.6422 34.625C50.1163 34.8697 49.5694 35.052 49.0016 35.1719C46.9589 35.2587 44.9147 35.2978 42.8688 35.289C41.1109 35.263 39.3531 35.2369 37.5953 35.2109C36.6632 33.35 35.2048 32.087 33.2203 31.4219C30.114 30.3639 26.9369 30.0123 23.6891 30.3672C23.3495 27.4392 24.4954 25.3168 27.1266 24C27.8767 23.6822 28.658 23.513 29.4703 23.4922C29.8315 19.7848 31.7326 17.2197 35.1734 15.7969C35.8995 15.5504 36.6287 15.3551 37.3609 15.2109Z" fill="white"/>
<path opacity="0.985" fill-rule="evenodd" clip-rule="evenodd" d="M24.7045 32.7109C26.9245 32.5636 29.112 32.7589 31.267 33.2968C32.5903 33.6133 33.7492 34.2253 34.7435 35.1328C35.9376 36.8265 35.7162 38.3239 34.0795 39.625C33.0458 40.291 31.926 40.7597 30.7201 41.0312C27.5506 41.7256 24.3995 41.6475 21.267 40.7968C20.025 40.4561 18.9443 39.8442 18.0248 38.9609C16.8682 37.1419 17.1938 35.6185 19.0013 34.3906C20.7906 33.4292 22.6917 32.8693 24.7045 32.7109Z" fill="white"/>
<path opacity="0.966" fill-rule="evenodd" clip-rule="evenodd" d="M46.8921 37.7109C47.33 37.6647 47.7467 37.7298 48.1421 37.9063C49.4833 39.2474 50.8244 40.5885 52.1655 41.9297C52.6486 43.047 52.297 43.7502 51.1108 44.0391C50.8352 43.9917 50.5748 43.9006 50.3296 43.7656C49.7958 43.2318 49.2619 42.6979 48.728 42.1641C49.459 47.5659 47.1283 49.8575 41.7358 49.0391C40.6421 49.026 39.5483 49.0131 38.4546 49C37.3798 48.6596 37.0804 47.9695 37.5562 46.9297C37.7076 46.7261 37.9029 46.5829 38.1421 46.5C40.4337 46.474 42.7255 46.4479 45.0171 46.4219C45.5776 46.278 45.9292 45.9264 46.0718 45.3672C46.1239 44.2734 46.1239 43.1797 46.0718 42.0859C45.5119 42.6459 44.952 43.2057 44.3921 43.7656C43.5431 44.2 42.879 44.0047 42.3999 43.1797C42.3147 42.7424 42.3668 42.3258 42.5562 41.9297C43.9695 40.4771 45.4148 39.0709 46.8921 37.7109Z" fill="white"/>
<path opacity="0.958" fill-rule="evenodd" clip-rule="evenodd" d="M17.3607 41.6172C20.1596 43.2024 23.1804 43.9837 26.4232 43.9609C29.1136 43.9516 31.6917 43.4177 34.1576 42.3594C34.5872 42.1316 35.0039 41.8843 35.4076 41.6172C35.6026 42.8824 35.1599 43.8851 34.0795 44.625C32.6916 45.4958 31.1812 46.0427 29.5482 46.2656C26.4973 46.7394 23.5025 46.505 20.5639 45.5625C19.4525 45.1836 18.528 44.5455 17.7904 43.6484C17.4043 43.0109 17.2611 42.3338 17.3607 41.6172Z" fill="white"/>
<path opacity="0.958" fill-rule="evenodd" clip-rule="evenodd" d="M17.2827 46.6172C20.1109 48.1902 23.1578 48.9715 26.4234 48.9609C28.8446 48.9437 31.1884 48.5141 33.4546 47.6719C34.1705 47.3305 34.8736 46.979 35.564 46.6172C35.5858 48.1234 34.9348 49.2302 33.6109 49.9375C32.1606 50.6842 30.6242 51.153 29.0015 51.3438C26.1288 51.7224 23.3163 51.462 20.564 50.5625C19.4527 50.1836 18.5282 49.5455 17.7906 48.6484C17.431 48.0205 17.2617 47.3434 17.2827 46.6172Z" fill="white"/>
<defs>
<linearGradient id="paint0_linear_29_126" x1="34.8999" y1="0" x2="34.8999" y2="68" gradientUnits="userSpaceOnUse">
<stop stop-color="#188DCD"/>
<stop offset="1" stop-color="#29BCEE"/>
</linearGradient>
</defs>
</svg>
