<svg width="69" height="68" viewBox="0 0 69 68" fill="none" xmlns="http://www.w3.org/2000/svg">
<rect x="0.100098" width="68" height="68" rx="10" fill="url(#paint0_linear_29_199)"/>
<g clip-path="url(#clip0_29_199)">
<path opacity="0.989" fill-rule="evenodd" clip-rule="evenodd" d="M31.561 13.9609C33.2277 13.9609 34.8944 13.9609 36.561 13.9609C39.1946 14.1438 41.7988 14.5735 44.3735 15.25C47.6106 16.5498 50.1236 18.6982 51.9126 21.6953C52.7317 23.2932 53.2524 24.9859 53.4751 26.7734C53.7295 28.3142 53.9249 29.8506 54.061 31.3828C54.061 33.1016 54.061 34.8203 54.061 36.5391C53.8643 39.229 53.4086 41.8852 52.6938 44.5078C51.3974 47.659 49.2751 50.0939 46.3267 51.8125C45.7016 52.1597 45.0505 52.4462 44.3735 52.6719C41.7988 53.3484 39.1946 53.7781 36.561 53.9609C34.8944 53.9609 33.2277 53.9609 31.561 53.9609C28.9293 53.7689 26.3251 53.3392 23.7485 52.6719C19.8409 51.108 17.0674 48.3866 15.4282 44.5078C14.7061 41.8595 14.2503 39.1773 14.061 36.4609C14.061 34.7682 14.061 33.0755 14.061 31.3828C14.2534 28.6922 14.7092 26.0359 15.4282 23.4141C17.0674 19.5353 19.8409 16.8139 23.7485 15.25C26.3251 14.5827 28.9293 14.153 31.561 13.9609ZM38.9829 24.8984C40.0763 24.8588 40.5581 25.3797 40.4282 26.4609C40.1731 26.8596 39.8735 27.2242 39.5298 27.5547C42.0135 27.3447 44.1099 28.1259 45.8188 29.8984C47.5347 32.2276 47.717 34.6755 46.3657 37.2422C44.4081 39.9954 41.8169 40.8417 38.5923 39.7812C37.9511 39.4521 37.3522 39.0615 36.7954 38.6094C34.376 36.0076 31.9281 33.4295 29.4517 30.875C27.4628 29.6201 25.6528 29.8414 24.022 31.5391C22.9997 33.0397 22.9476 34.5761 23.8657 36.1484C24.5688 37.1188 25.5193 37.6787 26.7173 37.8281C27.4478 37.8931 28.177 37.8801 28.9048 37.7891C28.5674 37.4126 28.2159 37.048 27.8501 36.6953C27.4115 35.4153 27.8672 34.8034 29.2173 34.8594C29.3214 34.9115 29.4256 34.9635 29.5298 35.0156C30.5845 36.0703 31.6392 37.125 32.6938 38.1797C33.0028 38.6112 33.0288 39.0539 32.772 39.5078C31.7456 40.6123 30.691 41.693 29.6079 42.75C28.5503 43.3047 27.8731 43.0052 27.5767 41.8516C27.6101 41.5297 27.7273 41.2432 27.9282 40.9922C28.1496 40.7709 28.371 40.5495 28.5923 40.3281C26.0106 40.6049 23.8621 39.7846 22.147 37.8672C20.3118 35.2174 20.3379 32.5872 22.2251 29.9766C24.1721 27.8329 26.5288 27.1948 29.2954 28.0625C29.9199 28.3223 30.4928 28.6609 31.0142 29.0781C33.0324 31.2005 35.0506 33.3229 37.0688 35.4453C37.6831 36.0858 38.3212 36.6977 38.9829 37.2812C40.9933 38.2766 42.725 37.9251 44.1782 36.2266C44.9082 35.0171 45.0385 33.741 44.5688 32.3984C44.016 31.2425 43.1176 30.5003 41.8735 30.1719C40.9655 30.0526 40.054 30.0265 39.1392 30.0938C39.4907 30.4453 39.8423 30.7969 40.1938 31.1484C40.6767 31.9634 40.5074 32.6015 39.686 33.0625C39.3403 33.1243 39.0017 33.0982 38.6704 32.9844C37.5092 31.8493 36.3764 30.6905 35.272 29.5078C35.0903 29.0605 35.1424 28.6438 35.4282 28.2578C36.4569 27.2291 37.4855 26.2005 38.5142 25.1719C38.6651 25.0579 38.8213 24.9668 38.9829 24.8984Z" fill="white"/>
</g>
<defs>
<linearGradient id="paint0_linear_29_199" x1="34.1001" y1="0" x2="34.1001" y2="68" gradientUnits="userSpaceOnUse">
<stop stop-color="#188DCD"/>
<stop offset="1" stop-color="#29BCEE"/>
</linearGradient>
<clipPath id="clip0_29_199">
<rect width="40" height="40" fill="white" transform="translate(14.1001 14)"/>
</clipPath>
</defs>
</svg>
