<svg width="69" height="68" viewBox="0 0 69 68" fill="none" xmlns="http://www.w3.org/2000/svg">
<rect x="0.300049" width="68" height="68" rx="10" fill="url(#paint0_linear_29_127)"/>
<path opacity="0.983" fill-rule="evenodd" clip-rule="evenodd" d="M32.386 16.0703C35.0826 15.8229 36.9967 16.9166 38.1282 19.3516C38.2942 19.8334 38.3984 20.3282 38.4407 20.8359C38.4797 24.638 38.4928 28.44 38.4797 32.2422C36.8404 32.4187 35.6556 31.7676 34.925 30.2891C34.8729 30.1849 34.8729 30.0807 34.925 29.9766C35.6236 29.1712 36.0272 28.2337 36.136 27.1641C35.9829 26.6067 35.6573 26.4765 35.1594 26.7734C34.8659 29.0462 33.5768 30.2312 31.2922 30.3281C30.8451 30.5755 30.793 30.888 31.136 31.2656C32.1222 31.4636 33.0466 31.2943 33.9094 30.7578C34.8661 32.5975 36.3896 33.4829 38.4797 33.4141C38.5157 38.0511 38.4766 42.6866 38.3625 47.3203C37.5447 50.2106 35.6307 51.5778 32.6204 51.4219C30.2596 50.9752 28.8012 49.5819 28.2454 47.2422C28.7627 45.0713 30.1299 43.8473 32.3469 43.5703C32.8058 43.6972 33.2615 43.8404 33.7141 44C34.1279 44.0833 34.5445 44.1484 34.9641 44.1953C35.4838 44.1837 35.7051 43.9233 35.6282 43.4141C35.537 43.3229 35.4459 43.2318 35.3547 43.1406C32.6863 43.0072 31.0978 41.64 30.5891 39.0391C30.7308 38.5986 30.874 38.1559 31.0188 37.7109C31.2032 37.0544 31.1641 36.4164 30.9016 35.7969C30.6187 35.6336 30.3453 35.6466 30.0813 35.8359C30.0525 36.4055 30.0004 36.9784 29.925 37.5547C29.525 38.8661 28.6526 39.6603 27.3079 39.9375C26.92 40.4469 27.0372 40.7725 27.6594 40.9141C28.0006 40.8776 28.3261 40.7865 28.636 40.6406C28.9761 40.4319 29.3147 40.2497 29.6516 40.0937C29.9731 41.0755 30.4939 41.9348 31.2141 42.6719C29.3325 43.2773 28.0304 44.5013 27.3079 46.3437C24.5208 46.5241 22.6328 45.3131 21.6438 42.7109C21.4196 41.8579 21.3936 40.9985 21.5657 40.1328C21.7278 39.6332 21.8971 39.1384 22.0735 38.6484C19.6762 37.8933 18.4262 36.2527 18.3235 33.7266C18.3851 31.5712 19.3877 30.0347 21.3313 29.1172C22.3738 29.8852 23.5457 30.3019 24.8469 30.3672C25.4093 30.2194 25.5525 29.8939 25.2766 29.3906C23.8535 29.3245 22.6165 28.8167 21.5657 27.8672C21.209 25.1529 22.2636 23.2128 24.7297 22.0469C25.889 21.6094 27.0478 21.5964 28.2063 22.0078C28.0061 18.8889 29.3993 16.9097 32.386 16.0703Z" fill="white"/>
<path opacity="0.952" fill-rule="evenodd" clip-rule="evenodd" d="M43.011 17.6328C44.8833 17.6431 45.7818 18.5806 45.7063 20.4453C45.5174 21.4025 44.9575 22.0274 44.0266 22.3203C44.0558 23.1802 43.8343 23.9614 43.3625 24.6641C43.0221 24.9971 42.6184 25.2185 42.1516 25.3281C41.2926 25.3672 40.4333 25.3802 39.5735 25.3672C39.5735 24.9505 39.5735 24.5338 39.5735 24.1172C40.3552 24.1302 41.1365 24.1172 41.9172 24.0781C42.3 23.9295 42.5475 23.6561 42.6594 23.2578C42.7115 22.9453 42.7115 22.6328 42.6594 22.3203C41.1922 21.6771 40.6975 20.5833 41.175 19.0391C41.5743 18.2877 42.1864 17.8189 43.011 17.6328Z" fill="white"/>
<path opacity="0.953" fill-rule="evenodd" clip-rule="evenodd" d="M47.6204 23.1016C49.445 23.2106 50.2914 24.1741 50.1594 25.9922C49.9286 26.9392 49.3426 27.5382 48.4016 27.7891C48.6089 29.1059 48.1401 30.0824 46.9954 30.7188C44.5253 30.8336 42.0513 30.8727 39.5735 30.8359C39.5735 30.4193 39.5735 30.0026 39.5735 29.5859C41.8653 29.599 44.157 29.5859 46.4485 29.5469C46.8078 29.422 47.0291 29.1746 47.1125 28.8047C47.1647 28.4662 47.1647 28.1276 47.1125 27.7891C45.9541 27.3216 45.4072 26.4622 45.4719 25.2109C45.7168 24.0154 46.4329 23.3123 47.6204 23.1016Z" fill="white"/>
<path opacity="0.957" fill-rule="evenodd" clip-rule="evenodd" d="M47.3079 33.1797C49.0055 33.0944 49.943 33.8886 50.1204 35.5625C49.9565 37.2105 49.045 37.9918 47.386 37.9062C46.391 37.7052 45.766 37.1193 45.511 36.1484C43.5318 36.1484 41.5526 36.1484 39.5735 36.1484C39.5735 35.7318 39.5735 35.3151 39.5735 34.8984C41.5533 34.9244 43.5325 34.8984 45.511 34.8203C45.8425 33.9674 46.4415 33.4205 47.3079 33.1797Z" fill="white"/>
<path opacity="0.952" fill-rule="evenodd" clip-rule="evenodd" d="M39.5735 40.2109C41.7872 40.1979 44.0008 40.2109 46.2141 40.25C47.235 40.3073 47.9251 40.8151 48.2844 41.7734C48.3883 42.2884 48.4273 42.8093 48.4016 43.3359C49.9191 43.8442 50.479 44.8858 50.0813 46.4609C49.2895 47.9227 48.1307 48.3264 46.6047 47.6719C45.31 46.6406 45.1147 45.4296 46.0188 44.0391C46.3221 43.7099 46.6866 43.4755 47.1125 43.3359C47.1954 42.8497 47.1433 42.3809 46.9563 41.9297C46.7536 41.6526 46.4802 41.5093 46.136 41.5C43.9486 41.4609 41.7611 41.4479 39.5735 41.4609C39.5735 41.0443 39.5735 40.6276 39.5735 40.2109Z" fill="white"/>
<path opacity="0.959" fill-rule="evenodd" clip-rule="evenodd" d="M39.5735 44.1953C41.9172 43.8833 43.037 44.899 42.9329 47.2422C44.4513 47.7523 45.0112 48.794 44.6125 50.3672C43.8876 51.7636 42.7809 52.1933 41.2922 51.6562C39.975 50.7704 39.6755 49.6115 40.3938 48.1797C40.7238 47.7447 41.1405 47.4322 41.6438 47.2422C41.832 45.6738 41.1418 45.0748 39.5735 45.4453C39.5735 45.0287 39.5735 44.6119 39.5735 44.1953Z" fill="white"/>
<defs>
<linearGradient id="paint0_linear_29_127" x1="34.3" y1="0" x2="34.3" y2="68" gradientUnits="userSpaceOnUse">
<stop stop-color="#188DCD"/>
<stop offset="1" stop-color="#29BCEE"/>
</linearGradient>
</defs>
</svg>
