<svg width="69" height="68" viewBox="0 0 69 68" fill="none" xmlns="http://www.w3.org/2000/svg">
<rect x="0.100098" width="68" height="68" rx="10" fill="url(#paint0_linear_29_223)"/>
<path opacity="0.993" fill-rule="evenodd" clip-rule="evenodd" d="M19.7641 18.3359C29.2953 18.3229 38.8266 18.3359 48.3578 18.375C48.9062 18.5587 49.3099 18.9103 49.5688 19.4297C49.6935 20.2834 49.7196 21.1428 49.6469 22.0078C39.2747 22.0989 28.8971 22.1119 18.5141 22.0469C18.4629 21.6494 18.4369 21.2458 18.4359 20.8359C18.2277 19.637 18.6704 18.8037 19.7641 18.3359ZM35.9359 19.5859C37.1862 19.5729 38.4362 19.5859 39.6859 19.625C40.24 19.7937 40.3702 20.1322 40.0766 20.6406C39.9526 20.708 39.8224 20.7601 39.6859 20.7969C38.4359 20.849 37.1859 20.849 35.9359 20.7969C35.401 20.6511 35.2578 20.3256 35.5063 19.8203C35.6528 19.7337 35.796 19.6556 35.9359 19.5859ZM42.8109 19.5859C44.0612 19.5729 45.3112 19.5859 46.5609 19.625C47.115 19.7937 47.2452 20.1322 46.9516 20.6406C46.8276 20.708 46.6974 20.7601 46.5609 20.7969C45.3109 20.849 44.0609 20.849 42.8109 20.7969C42.276 20.6511 42.1328 20.3256 42.3813 19.8203C42.5278 19.7337 42.671 19.6556 42.8109 19.5859Z" fill="white"/>
<path opacity="0.985" fill-rule="evenodd" clip-rule="evenodd" d="M20.936 23.3359C29.686 23.3359 38.436 23.3359 47.186 23.3359C47.2246 29.1236 47.1855 34.9048 47.0688 40.6797C47.0102 40.7286 46.9451 40.7677 46.8735 40.7969C43.8528 40.8359 40.8319 40.849 37.811 40.8359C37.811 41.6693 37.811 42.5026 37.811 43.3359C38.1246 43.323 38.4371 43.336 38.7485 43.375C38.8201 43.4042 38.8852 43.4433 38.9438 43.4922C39.8032 45.2109 40.6626 46.9297 41.5219 48.6484C41.6219 49.5369 41.2573 49.7973 40.4282 49.4297C39.6339 47.8412 38.8397 46.2526 38.0454 44.6641C36.9268 44.586 35.807 44.5599 34.686 44.5859C34.699 46.1487 34.686 47.7112 34.6469 49.2734C34.5275 49.5091 34.3322 49.6132 34.061 49.5859C33.7898 49.6132 33.5945 49.5091 33.4751 49.2734C33.436 47.7112 33.423 46.1487 33.436 44.5859C32.315 44.5599 31.1952 44.586 30.0766 44.6641C29.2823 46.2526 28.4881 47.8412 27.6938 49.4297C26.8647 49.7973 26.5001 49.5369 26.6001 48.6484C27.4594 46.9297 28.3188 45.2109 29.1782 43.4922C29.2368 43.4433 29.3019 43.4042 29.3735 43.375C29.6849 43.336 29.9974 43.323 30.311 43.3359C30.311 42.5026 30.311 41.6693 30.311 40.8359C27.2901 40.849 24.2692 40.8359 21.2485 40.7969C21.1769 40.7677 21.1118 40.7286 21.0532 40.6797C20.9365 34.9048 20.8974 29.1236 20.936 23.3359ZM43.0454 25.2891C44.1769 25.2095 44.6847 25.7304 44.5688 26.8516C44.3583 27.3544 43.9807 27.6409 43.436 27.7109C43.1412 28.2744 42.8678 28.8473 42.6157 29.4297C42.7184 29.808 42.7444 30.1986 42.6938 30.6016C42.2801 31.4002 41.6682 31.5955 40.8579 31.1875C40.5546 30.9325 40.3853 30.607 40.3501 30.2109C39.934 29.8855 39.4912 29.5991 39.0219 29.3516C38.7547 29.4475 38.4943 29.5516 38.2407 29.6641C37.8073 30.2836 37.4037 30.9216 37.0298 31.5781C37.2448 32.7693 36.75 33.3162 35.5454 33.2188C34.7467 32.8051 34.5514 32.1931 34.9594 31.3828C35.289 31.0489 35.6796 30.8405 36.1313 30.7578C36.5219 30.1588 36.9126 29.5599 37.3032 28.9609C37.2675 28.6262 37.2675 28.2877 37.3032 27.9453C37.7169 27.1466 38.3288 26.9513 39.1391 27.3594C39.4424 27.6144 39.6117 27.9398 39.6469 28.3359C40.063 28.6613 40.5058 28.9478 40.9751 29.1953C41.159 29.0931 41.3544 29.015 41.561 28.9609C41.8795 28.363 42.1659 27.7511 42.4204 27.125C42.0661 26.3121 42.2744 25.7001 43.0454 25.2891ZM28.3579 26.4609C30.8138 26.6388 32.4414 27.8888 33.2407 30.2109C33.7183 32.784 32.8198 34.698 30.5454 35.9531C28.2909 36.8512 26.3248 36.4215 24.6469 34.6641C23.3474 32.9052 23.1651 31.0302 24.1001 29.0391C25.0941 27.4682 26.5134 26.6088 28.3579 26.4609ZM35.311 34.5859C36.9779 34.5729 38.6445 34.5859 40.311 34.625C40.8459 34.7708 40.9891 35.0962 40.7407 35.6016C40.6119 35.6966 40.4687 35.7617 40.311 35.7969C38.6444 35.849 36.9776 35.849 35.311 35.7969C34.7761 35.6511 34.6329 35.3256 34.8813 34.8203C35.0279 34.7337 35.1711 34.6555 35.311 34.5859ZM42.811 34.5859C43.2285 34.573 43.6451 34.586 44.061 34.625C44.5959 34.7708 44.7391 35.0962 44.4907 35.6016C44.1671 35.7907 43.8155 35.8688 43.436 35.8359C43.079 35.8578 42.7404 35.7927 42.4204 35.6406C42.1301 35.122 42.2604 34.7705 42.811 34.5859ZM35.311 37.0859C35.6688 37.0557 36.0074 37.1209 36.3266 37.2812C36.6355 37.9769 36.4011 38.3284 35.6235 38.3359C34.8459 38.3284 34.6115 37.9769 34.9204 37.2812C35.0622 37.2221 35.1923 37.157 35.311 37.0859ZM40.936 37.0859C41.978 37.0729 43.0197 37.0859 44.061 37.125C44.6151 37.2937 44.7452 37.6323 44.4516 38.1406C44.3276 38.208 44.1974 38.2601 44.061 38.2969C43.0194 38.349 41.9776 38.349 40.936 38.2969C40.4011 38.1511 40.2579 37.8256 40.5063 37.3203C40.6529 37.2337 40.7961 37.1555 40.936 37.0859ZM38.2016 37.1641C38.9321 37.1535 39.1405 37.4791 38.8266 38.1406C38.1591 38.4002 37.8597 38.1788 37.9282 37.4766C37.9821 37.332 38.0732 37.2278 38.2016 37.1641ZM31.561 40.8359C32.186 40.8359 32.811 40.8359 33.436 40.8359C33.436 41.6693 33.436 42.5026 33.436 43.3359C32.811 43.3359 32.186 43.3359 31.561 43.3359C31.561 42.5026 31.561 41.6693 31.561 40.8359ZM34.686 40.8359C35.311 40.8359 35.936 40.8359 36.561 40.8359C36.561 41.6693 36.561 42.5026 36.561 43.3359C35.936 43.3359 35.311 43.3359 34.686 43.3359C34.686 42.5026 34.686 41.6693 34.686 40.8359Z" fill="white"/>
<path opacity="0.961" fill-rule="evenodd" clip-rule="evenodd" d="M27.6548 27.7109C27.7588 28.2815 27.8109 28.8805 27.8111 29.5078C27.798 30.1068 27.785 30.7057 27.772 31.3047C26.9897 32.1001 26.1954 32.8813 25.3892 33.6484C24.7272 32.7705 24.5059 31.7809 24.7251 30.6797C25.143 29.1291 26.1196 28.1395 27.6548 27.7109Z" fill="white"/>
<path opacity="0.96" fill-rule="evenodd" clip-rule="evenodd" d="M29.061 27.7109C31.3689 28.3407 32.3976 29.8511 32.147 32.2422C32.0366 32.7714 31.8153 33.2402 31.4829 33.6484C30.6767 32.8813 29.8825 32.1001 29.1001 31.3047C29.061 30.107 29.048 28.9091 29.061 27.7109Z" fill="white"/>
<path opacity="0.936" fill-rule="evenodd" clip-rule="evenodd" d="M28.3579 32.3203C29.1324 32.9773 29.8746 33.6804 30.5845 34.4297C30.6327 34.5038 30.6197 34.5689 30.5454 34.625C29.5468 35.2132 28.4791 35.3695 27.3423 35.0938C26.9597 34.9838 26.6082 34.8146 26.2876 34.5859C26.2355 34.5338 26.2355 34.4818 26.2876 34.4297C26.9936 33.7369 27.6836 33.0337 28.3579 32.3203Z" fill="white"/>
<defs>
<linearGradient id="paint0_linear_29_223" x1="34.1001" y1="0" x2="34.1001" y2="68" gradientUnits="userSpaceOnUse">
<stop stop-color="#188DCD"/>
<stop offset="1" stop-color="#29BCEE"/>
</linearGradient>
</defs>
</svg>
