<svg width="69" height="68" viewBox="0 0 69 68" fill="none" xmlns="http://www.w3.org/2000/svg">
<rect x="0.300049" width="68" height="68" rx="10" fill="url(#paint0_linear_29_207)"/>
<path opacity="0.969" fill-rule="evenodd" clip-rule="evenodd" d="M21.6828 17.2422C22.3604 17.2292 23.0375 17.2422 23.714 17.2812C23.8863 17.6648 24.0686 18.0424 24.2609 18.4141C24.8104 18.5717 25.3313 18.7931 25.8234 19.0781C26.2292 19.0198 26.6198 18.8896 26.9953 18.6875C27.0734 18.6354 27.1515 18.6354 27.2297 18.6875C27.6865 19.1313 28.1293 19.5871 28.5578 20.0547C28.3902 20.4288 28.234 20.8064 28.089 21.1875C28.3564 21.755 28.5777 22.3409 28.7531 22.9453C29.1368 23.1556 29.5404 23.3119 29.964 23.4141C29.964 24.1172 29.964 24.8203 29.964 25.5234C29.54 25.6247 29.1364 25.7809 28.7531 25.9922C28.5855 26.5862 28.3642 27.1591 28.089 27.7109C28.2234 28.11 28.3797 28.5006 28.5578 28.8828C28.1293 29.3504 27.6865 29.8062 27.2297 30.25C26.8568 30.169 26.4922 30.0387 26.1359 29.8594C26.0318 29.8073 25.9275 29.8073 25.8234 29.8594C25.337 30.1547 24.8161 30.363 24.2609 30.4844C24.0792 30.8723 23.8969 31.2629 23.714 31.6562C23.0354 31.7212 22.3583 31.7082 21.6828 31.6172C21.5416 31.2455 21.3853 30.8808 21.214 30.5234C20.6618 30.3699 20.1409 30.1486 19.6515 29.8594C19.5474 29.8073 19.4432 29.8073 19.339 29.8594C18.9827 30.0387 18.6181 30.169 18.2453 30.25C17.8156 29.8203 17.3859 29.3906 16.9562 28.9609C16.9309 28.8005 16.9569 28.6443 17.0343 28.4922C17.173 28.241 17.2901 27.9806 17.3859 27.7109C17.0751 27.1011 16.7887 26.4891 16.5265 25.875C16.194 25.7338 15.8555 25.6166 15.5109 25.5234C15.485 24.8183 15.511 24.1152 15.589 23.4141C15.9445 23.2522 16.3091 23.122 16.6828 23.0234C16.8092 22.3841 17.0436 21.7851 17.3859 21.2266C17.2901 20.9569 17.173 20.6965 17.0343 20.4453C16.9569 20.2932 16.9309 20.1369 16.9562 19.9766C17.3859 19.5469 17.8156 19.1172 18.2453 18.6875C18.6529 18.7924 19.0566 18.9357 19.4562 19.1172C20.0121 18.8066 20.5981 18.5723 21.214 18.4141C21.4012 18.0348 21.5574 17.6441 21.6828 17.2422ZM22.5422 21.0703C24.9697 21.297 26.1285 22.6251 26.0187 25.0547C25.4592 27.0474 24.144 27.9458 22.0734 27.75C20.5519 27.3482 19.6535 26.3716 19.3781 24.8203C19.3246 23.1029 20.0929 21.918 21.6828 21.2656C21.9806 21.2035 22.2671 21.1384 22.5422 21.0703Z" fill="white"/>
<path opacity="0.978" fill-rule="evenodd" clip-rule="evenodd" d="M40.1985 17.8672C41.2404 17.8542 42.2821 17.8672 43.3235 17.9062C43.5523 18.533 43.8127 19.1449 44.1047 19.7422C45.0182 19.9647 45.8776 20.3162 46.6828 20.7969C46.8714 20.8347 47.0536 20.8086 47.2297 20.7187C47.7174 20.5074 48.1991 20.2861 48.675 20.0547C49.3782 20.7578 50.0813 21.4609 50.7844 22.1641C50.8098 22.3245 50.7837 22.4807 50.7063 22.6328C50.4849 23.1276 50.2635 23.6224 50.0422 24.1172C50.5798 24.9614 50.9574 25.8729 51.175 26.8516C51.7628 27.078 52.3487 27.3123 52.9328 27.5547C53.037 28.6224 53.037 29.6901 52.9328 30.7578C52.3363 30.9696 51.7503 31.204 51.175 31.4609C50.9267 32.4279 50.549 33.3394 50.0422 34.1953C50.3305 34.8145 50.5779 35.4395 50.7844 36.0703C50.0943 36.7604 49.4042 37.4505 48.7141 38.1406C48.5537 38.166 48.3974 38.1399 48.2453 38.0625C47.7577 37.8512 47.276 37.6298 46.8 37.3984C45.966 37.9327 45.0676 38.3233 44.1047 38.5703C43.8127 39.1676 43.5523 39.7795 43.3235 40.4062C42.2808 40.4713 41.2392 40.4583 40.1985 40.3672C39.9561 39.783 39.7217 39.1971 39.4953 38.6094C38.5096 38.3417 37.5851 37.938 36.7219 37.3984C36.1115 37.7404 35.4735 37.9877 34.8078 38.1406C34.0906 37.4364 33.3874 36.7202 32.6985 35.9922C32.9696 35.4109 33.23 34.8249 33.4797 34.2344C32.9842 33.3603 32.6067 32.4359 32.3469 31.4609C31.7552 31.1716 31.1432 30.9372 30.511 30.7578C30.4849 29.6888 30.511 28.6211 30.5891 27.5547C31.1857 27.3429 31.7716 27.1085 32.3469 26.8516C32.6067 25.8766 32.9842 24.9522 33.4797 24.0781C33.1947 23.4708 32.9473 22.8587 32.7375 22.2422C33.4667 21.513 34.1959 20.7838 34.925 20.0547C35.524 20.3411 36.1229 20.6276 36.7219 20.9141C37.5851 20.3744 38.5096 19.9708 39.4953 19.7031C39.7409 19.095 39.9753 18.483 40.1985 17.8672ZM40.9016 23.4141C44.0035 23.1984 46.1258 24.5266 47.2688 27.3984C47.993 30.5927 46.9123 32.9494 44.0266 34.4687C41.0121 35.4691 38.6032 34.6748 36.8 32.0859C35.4236 29.3071 35.8533 26.8462 38.0891 24.7031C38.9242 24.038 39.8617 23.6083 40.9016 23.4141Z" fill="white"/>
<path opacity="0.968" fill-rule="evenodd" clip-rule="evenodd" d="M19.6516 37.0859C20.2435 37.092 20.6211 37.3785 20.7844 37.9453C21.714 41.4942 22.6124 45.0489 23.4797 48.6094C23.5117 49.0143 23.3554 49.3268 23.011 49.5469C22.1791 49.7765 21.3457 49.9978 20.511 50.2109C20.0528 50.1579 19.7272 49.9235 19.5344 49.5078C18.5975 45.8902 17.673 42.2703 16.761 38.6484C16.7755 38.3199 16.9057 38.0465 17.1516 37.8281C17.9856 37.5548 18.819 37.3075 19.6516 37.0859ZM18.8704 38.9609C19.5234 38.9743 19.7708 39.2868 19.6125 39.8984C19.0733 40.3352 18.6957 40.218 18.4797 39.5469C18.5056 39.275 18.6358 39.0797 18.8704 38.9609Z" fill="white"/>
<path opacity="0.976" fill-rule="evenodd" clip-rule="evenodd" d="M28.2454 38.0234C28.7668 38.0104 29.2877 38.0234 29.8079 38.0625C30.1114 38.1202 30.3979 38.2244 30.6672 38.375C32.5944 39.8055 34.6257 41.0815 36.761 42.2031C37.4901 42.9322 37.4901 43.6615 36.761 44.3906C36.0272 44.5851 35.3501 44.4548 34.7297 44C33.6749 43.3553 32.6072 42.7303 31.5266 42.125C31.0601 42.1489 30.8388 42.3963 30.8625 42.8672C30.9239 43.0067 31.015 43.1239 31.136 43.2187C32.2558 43.8697 33.3756 44.5208 34.4954 45.1719C35.3401 45.6183 36.2256 45.9569 37.1516 46.1875C37.6204 46.2396 38.0891 46.2396 38.5579 46.1875C41.2953 45.4706 44.0297 44.7414 46.761 44C47.59 43.7901 48.4233 43.7641 49.261 43.9219C50.1246 44.2974 50.398 44.9354 50.0813 45.8359C49.9381 46.1875 49.6907 46.4349 49.3391 46.5781C44.9866 47.868 40.6376 49.1701 36.2922 50.4844C35.3453 50.7645 34.4078 50.7384 33.4797 50.4062C30.7326 48.8635 27.9983 47.301 25.2766 45.7187C24.8511 45.6531 24.4475 45.7182 24.0657 45.914C23.5049 43.8156 22.945 41.7192 22.386 39.625C24.338 39.0526 26.2911 38.5186 28.2454 38.0234Z" fill="white"/>
<defs>
<linearGradient id="paint0_linear_29_207" x1="34.3" y1="0" x2="34.3" y2="68" gradientUnits="userSpaceOnUse">
<stop stop-color="#188DCD"/>
<stop offset="1" stop-color="#29BCEE"/>
</linearGradient>
</defs>
</svg>
