<svg width="69" height="68" viewBox="0 0 69 68" fill="none" xmlns="http://www.w3.org/2000/svg">
<rect x="0.5" width="68" height="68" rx="10" fill="url(#paint0_linear_29_208)"/>
<path opacity="0.93" fill-rule="evenodd" clip-rule="evenodd" d="M33.9141 15.2109C35.5637 15.0767 36.3579 15.8319 36.297 17.4766C36.0934 18.1879 35.6377 18.6567 34.9298 18.8828C34.8517 20.0014 34.8256 21.1212 34.8516 22.2422C35.9975 22.2422 37.1433 22.2422 38.2891 22.2422C38.2761 21.1481 38.2891 20.0544 38.3282 18.9609C38.3673 18.8177 38.4584 18.7266 38.6016 18.6875C39.3062 18.6744 40.0093 18.6353 40.711 18.5703C41.1336 17.5122 41.9148 17.0826 43.0548 17.2812C44.3618 17.8682 44.7134 18.8187 44.1095 20.1328C43.358 21.0397 42.4596 21.209 41.4141 20.6406C41.0528 20.3738 40.8184 20.0222 40.711 19.5859C40.1927 19.5081 39.672 19.482 39.1485 19.5078C39.1485 20.4193 39.1485 21.3307 39.1485 22.2422C40.6331 22.2291 42.1175 22.2422 43.6016 22.2812C45.0969 22.4744 45.9432 23.3208 46.1407 24.8203C46.1798 26.3044 46.1928 27.7888 46.1798 29.2734C47.0912 29.2734 48.0027 29.2734 48.9141 29.2734C48.9399 28.75 48.9139 28.2292 48.836 27.7109C47.6076 27.2069 47.204 26.3216 47.6251 25.0547C48.1294 24.2105 48.8716 23.885 49.8516 24.0781C51.1587 24.6651 51.5102 25.6156 50.9063 26.9297C50.6338 27.2928 50.2823 27.5532 49.8516 27.7109C49.7866 28.4126 49.7476 29.1158 49.7345 29.8203C49.6954 29.9635 49.6042 30.0547 49.461 30.0937C48.3676 30.1328 47.2738 30.1459 46.1798 30.1328C46.1798 31.2787 46.1798 32.4244 46.1798 33.5703C47.3008 33.5963 48.4205 33.5702 49.5391 33.4922C50.0334 32.2378 50.9188 31.8341 52.1954 32.2812C53.0788 32.7676 53.4043 33.5098 53.172 34.5078C52.7684 35.5107 52.0262 35.9404 50.9454 35.7969C50.2341 35.5934 49.7653 35.1376 49.5391 34.4297C48.4205 34.3516 47.3008 34.3255 46.1798 34.3516C46.1798 35.4974 46.1798 36.6432 46.1798 37.7891C47.2738 37.776 48.3676 37.7891 49.461 37.8281C49.6042 37.8672 49.6954 37.9584 49.7345 38.1016C49.7476 38.8061 49.7866 39.5092 49.8516 40.2109C50.9097 40.6335 51.3394 41.4148 51.1407 42.5547C50.5537 43.8617 49.6032 44.2133 48.2891 43.6094C47.3823 42.858 47.213 41.9595 47.7813 40.9141C48.0481 40.5527 48.3997 40.3184 48.836 40.2109C48.9139 39.6926 48.9399 39.1719 48.9141 38.6484C48.0027 38.6484 47.0912 38.6484 46.1798 38.6484C46.1928 40.133 46.1798 41.6174 46.1407 43.1016C45.9454 44.599 45.0991 45.4453 43.6016 45.6406C42.1175 45.6797 40.6331 45.6927 39.1485 45.6797C39.1485 46.5912 39.1485 47.5026 39.1485 48.4141C39.672 48.4398 40.1927 48.4138 40.711 48.3359C41.215 47.1075 42.1004 46.7039 43.3673 47.125C44.4235 47.8213 44.6709 48.7458 44.1095 49.8984C43.3719 50.7349 42.4995 50.9041 41.4923 50.4062C41.1291 50.1337 40.8687 49.7822 40.711 49.3516C40.0093 49.2866 39.3062 49.2475 38.6016 49.2344C38.4584 49.1953 38.3673 49.1041 38.3282 48.9609C38.2891 47.8675 38.2761 46.7737 38.2891 45.6797C37.1433 45.6797 35.9975 45.6797 34.8516 45.6797C34.8256 46.8007 34.8517 47.9205 34.9298 49.0391C36.1841 49.5334 36.5878 50.4187 36.1407 51.6953C35.6543 52.5787 34.9121 52.9042 33.9141 52.6719C32.9112 52.2684 32.4816 51.5262 32.6251 50.4453C32.8286 49.734 33.2843 49.2652 33.9923 49.0391C34.0703 47.9205 34.0964 46.8007 34.0704 45.6797C32.9245 45.6797 31.7787 45.6797 30.6329 45.6797C30.6459 46.7737 30.6329 47.8675 30.5938 48.9609C30.5548 49.1041 30.4636 49.1953 30.3204 49.2344C29.6159 49.2475 28.9127 49.2866 28.211 49.3516C27.7884 50.4096 27.0072 50.8393 25.8673 50.6406C24.5602 50.0537 24.2087 49.1031 24.8126 47.7891C25.564 46.8822 26.4624 46.7129 27.5079 47.2812C27.8692 47.548 28.1036 47.8996 28.211 48.3359C28.7293 48.4138 29.2501 48.4398 29.7735 48.4141C29.7735 47.5026 29.7735 46.5912 29.7735 45.6797C28.2889 45.6927 26.8045 45.6797 25.3204 45.6406C23.8591 45.4554 23.0128 44.6351 22.7813 43.1797C22.7423 41.6695 22.7292 40.1591 22.7423 38.6484C21.8308 38.6484 20.9194 38.6484 20.0079 38.6484C19.9821 39.1719 20.0081 39.6926 20.086 40.2109C21.3144 40.7149 21.7181 41.6003 21.297 42.8672C20.6006 43.9234 19.6762 44.1709 18.5235 43.6094C17.6871 42.8718 17.5178 41.9994 18.0157 40.9922C18.2882 40.6291 18.6397 40.3687 19.0704 40.2109C19.1354 39.5092 19.1745 38.8061 19.1876 38.1016C19.2266 37.9584 19.3178 37.8672 19.461 37.8281C20.5545 37.7891 21.6482 37.776 22.7423 37.7891C22.7423 36.6432 22.7423 35.4974 22.7423 34.3516C21.6213 34.3255 20.5015 34.3516 19.3829 34.4297C18.8886 35.6841 18.0032 36.0877 16.7266 35.6406C15.8432 35.1542 15.5177 34.412 15.7501 33.4141C16.1536 32.4112 16.8958 31.9815 17.9766 32.125C18.688 32.3285 19.1567 32.7842 19.3829 33.4922C20.5015 33.5702 21.6213 33.5963 22.7423 33.5703C22.7423 32.4244 22.7423 31.2787 22.7423 30.1328C21.6482 30.1459 20.5545 30.1328 19.461 30.0937C19.3178 30.0547 19.2266 29.9635 19.1876 29.8203C19.1745 29.1158 19.1354 28.4126 19.0704 27.7109C18.0123 27.2884 17.5826 26.5071 17.7813 25.3672C18.3683 24.0601 19.3188 23.7086 20.6329 24.3125C21.5398 25.0639 21.7091 25.9623 21.1407 27.0078C20.8739 27.3691 20.5223 27.6035 20.086 27.7109C20.0081 28.2292 19.9821 28.75 20.0079 29.2734C20.9194 29.2734 21.8308 29.2734 22.7423 29.2734C22.7292 27.7628 22.7423 26.2523 22.7813 24.7422C23.0106 23.289 23.857 22.4687 25.3204 22.2812C26.8045 22.2422 28.2889 22.2291 29.7735 22.2422C29.7735 21.3307 29.7735 20.4193 29.7735 19.5078C29.2501 19.482 28.7293 19.5081 28.211 19.5859C27.707 20.8143 26.8216 21.218 25.5548 20.7969C24.4985 20.1005 24.2511 19.1761 24.8126 18.0234C25.5502 17.187 26.4226 17.0177 27.4298 17.5156C27.7929 17.7881 28.0533 18.1396 28.211 18.5703C28.9127 18.6353 29.6159 18.6744 30.3204 18.6875C30.4636 18.7266 30.5548 18.8177 30.5938 18.9609C30.6329 20.0544 30.6459 21.1481 30.6329 22.2422C31.7787 22.2422 32.9245 22.2422 34.0704 22.2422C34.0964 21.1212 34.0703 20.0014 33.9923 18.8828C32.9366 18.4909 32.4808 17.7357 32.6251 16.6172C32.8297 15.9312 33.2594 15.4625 33.9141 15.2109ZM25.2423 23.1016C31.3881 23.0885 37.534 23.1016 43.6798 23.1406C44.5782 23.3099 45.112 23.8437 45.2813 24.7422C45.3334 30.888 45.3334 37.0338 45.2813 43.1797C45.112 44.0781 44.5782 44.6119 43.6798 44.7812C37.5339 44.8334 31.3881 44.8334 25.2423 44.7812C24.3438 44.6119 23.81 44.0781 23.6407 43.1797C23.5886 37.0338 23.5886 30.888 23.6407 24.7422C23.8241 23.8427 24.358 23.2959 25.2423 23.1016ZM31.8829 25.9922C32.9072 25.8496 33.6233 26.2402 34.0313 27.1641C34.0834 31.6953 34.0834 36.2266 34.0313 40.7578C33.7372 41.5453 33.1643 41.9359 32.3126 41.9297C31.4621 41.8633 30.9283 41.4205 30.711 40.6016C28.9624 40.4946 28.103 39.5571 28.1329 37.7891C26.9441 37.3628 26.4103 36.5294 26.5313 35.2891C26.7343 34.7261 27.0859 34.2833 27.586 33.9609C26.5618 33.3232 26.2623 32.4378 26.6876 31.3047C27.041 30.7559 27.5228 30.3653 28.1329 30.1328C28.0769 28.3403 28.9362 27.4028 30.711 27.3203C30.8559 26.6549 31.2465 26.2122 31.8829 25.9922ZM36.1798 25.9922C37.2348 25.8777 37.9119 26.3205 38.211 27.3203C39.9954 27.3994 40.8417 28.3369 40.7501 30.1328C42.2198 30.7018 42.6886 31.7174 42.1563 33.1797C41.9462 33.507 41.6727 33.7675 41.336 33.9609C42.3552 34.5992 42.6547 35.4846 42.2345 36.6172C41.881 37.1659 41.3992 37.5566 40.7891 37.7891C40.818 39.5604 39.9586 40.4979 38.211 40.6016C37.7276 41.9051 36.8421 42.2566 35.5548 41.6562C35.2432 41.4229 35.0219 41.1234 34.8907 40.7578C34.8386 36.2266 34.8386 31.6953 34.8907 27.1641C35.1365 26.5666 35.5662 26.1759 36.1798 25.9922Z" fill="white"/>
<path opacity="0.958" fill-rule="evenodd" clip-rule="evenodd" d="M32.1172 26.6953C32.4111 26.7232 32.6976 26.7883 32.9765 26.8906C33.157 27.0185 33.2742 27.1878 33.3281 27.3984C33.3672 29.4555 33.3802 31.5129 33.3672 33.5703C31.7263 33.5834 30.0857 33.5703 28.4453 33.5312C27.402 33.2203 27.0504 32.5563 27.3906 31.5391C27.6241 31.2273 27.9236 31.0059 28.289 30.875C28.831 30.7834 29.3779 30.7312 29.9297 30.7188C30.2257 30.5232 30.2257 30.3148 29.9297 30.0938C29.5961 30.0098 29.2575 29.9707 28.914 29.9766C28.8368 28.6344 29.4618 28.0224 30.789 28.1406C31.0587 28.2805 31.3061 28.4498 31.5312 28.6484C31.7615 28.6135 31.9047 28.4834 31.9609 28.2578C31.7759 27.9955 31.5936 27.7351 31.414 27.4766C31.5166 27.088 31.751 26.8275 32.1172 26.6953Z" fill="white"/>
<path opacity="0.958" fill-rule="evenodd" clip-rule="evenodd" d="M36.4922 26.6953C37.1188 26.7102 37.4444 27.0227 37.4688 27.6328C37.2374 27.8115 37.0681 28.0328 36.9609 28.2969C37.0658 28.5445 37.2481 28.6486 37.5078 28.6094C37.9856 28.094 38.5585 27.9638 39.2266 28.2188C39.8552 28.6323 40.1156 29.2183 40.0078 29.9766C39.6643 29.9707 39.3258 30.0098 38.9922 30.0938C38.685 30.3057 38.685 30.514 38.9922 30.7188C39.544 30.7312 40.0909 30.7834 40.6328 30.875C41.7261 31.3441 41.9605 32.0733 41.3359 33.0625C41.0845 33.2795 40.7981 33.4357 40.4766 33.5312C38.8362 33.5703 37.1956 33.5834 35.5547 33.5703C35.5417 31.5129 35.5547 29.4555 35.5938 27.3984C35.7478 26.9702 36.0473 26.7359 36.4922 26.6953Z" fill="white"/>
<path opacity="0.958" fill-rule="evenodd" clip-rule="evenodd" d="M28.4453 34.3516C30.0859 34.3516 31.7266 34.3516 33.3672 34.3516C33.3802 36.409 33.3672 38.4663 33.3281 40.5234C33.1434 40.9909 32.7919 41.2252 32.2734 41.2266C31.813 41.1568 31.5266 40.8963 31.4141 40.4453C31.5937 40.1868 31.7759 39.9264 31.9609 39.6641C31.8755 39.3874 31.6932 39.2702 31.4141 39.3125C30.8991 39.8618 30.3001 39.9659 29.6172 39.625C29.0712 39.197 28.8369 38.6371 28.9141 37.9453C29.2576 37.9512 29.5961 37.9121 29.9297 37.8281C30.2422 37.6198 30.2422 37.4115 29.9297 37.2031C29.487 37.1771 29.0443 37.151 28.6016 37.125C27.834 36.9693 27.3652 36.5136 27.1953 35.7578C27.3656 35.0668 27.7823 34.598 28.4453 34.3516Z" fill="white"/>
<path opacity="0.958" fill-rule="evenodd" clip-rule="evenodd" d="M35.5547 34.3516C37.1956 34.3385 38.8362 34.3516 40.4766 34.3906C41.1545 34.6126 41.5711 35.0683 41.7266 35.7578C41.6049 36.3877 41.2403 36.8174 40.6328 37.0469C40.0909 37.1385 39.544 37.1906 38.9922 37.2031C38.6797 37.4115 38.6797 37.6198 38.9922 37.8281C39.3258 37.9121 39.6643 37.9512 40.0078 37.9453C40.0576 39.2628 39.4326 39.8749 38.1328 39.7813C37.8803 39.6852 37.672 39.5289 37.5078 39.3125C37.2287 39.2702 37.0463 39.3874 36.9609 39.6641C37.0858 39.9063 37.2551 40.1147 37.4688 40.2891C37.4667 40.8257 37.1932 41.1382 36.6484 41.2266C36.13 41.2252 35.7784 40.9909 35.5938 40.5234C35.5547 38.4663 35.5417 36.409 35.5547 34.3516Z" fill="white"/>
<defs>
<linearGradient id="paint0_linear_29_208" x1="34.5" y1="0" x2="34.5" y2="68" gradientUnits="userSpaceOnUse">
<stop stop-color="#188DCD"/>
<stop offset="1" stop-color="#29BCEE"/>
</linearGradient>
</defs>
</svg>
