<svg width="69" height="68" viewBox="0 0 69 68" fill="none" xmlns="http://www.w3.org/2000/svg">
<rect x="0.699951" width="68" height="68" rx="10" fill="url(#paint0_linear_29_144)"/>
<g clip-path="url(#clip0_29_144)">
<path opacity="0.962" fill-rule="evenodd" clip-rule="evenodd" d="M54.6609 32.6328C54.6609 33.4922 54.6609 34.3516 54.6609 35.2109C53.9877 39.3873 51.696 42.2909 47.7859 43.9219C43.1388 45.3741 39.1675 44.3195 35.8718 40.7578C34.0846 38.4425 33.2513 35.8123 33.3718 32.8672C32.8675 29.8634 31.2399 27.715 28.489 26.4219C24.832 25.0934 21.668 25.8356 18.9968 28.6484C17.1354 30.9765 16.6145 33.5807 17.4343 36.4609C18.3372 39.0043 20.0429 40.736 22.5515 41.6563C22.2163 41.1813 21.8908 40.6995 21.575 40.2109C21.3618 39.2411 21.7394 38.6942 22.7078 38.5703C22.9233 38.5736 23.1316 38.6127 23.3328 38.6875C23.5808 38.9096 23.8022 39.157 23.9968 39.4297C24.8347 40.6063 25.642 41.8042 26.4187 43.0234C26.5082 43.5102 26.391 43.9398 26.0671 44.3125C24.8295 45.1527 23.6056 46.012 22.3953 46.8906C21.6873 47.2388 21.0753 47.1216 20.5593 46.5391C20.3385 45.9555 20.4297 45.4346 20.8328 44.9766C21.2402 44.7083 21.6309 44.4218 22.0046 44.1172C17.8448 42.5884 15.3969 39.6457 14.6609 35.2891C14.6609 34.4037 14.6609 33.5182 14.6609 32.6328C15.3321 28.5886 17.5457 25.737 21.3015 24.0781C26.0221 22.5076 30.0716 23.5363 33.45 27.1641C35.2371 29.4791 36.0704 32.1093 35.95 35.0547C36.4543 38.0584 38.0819 40.2069 40.8328 41.5C44.71 42.872 47.9782 41.9996 50.6375 38.8828C52.3854 36.3832 52.7239 33.7009 51.6531 30.8359C50.67 28.6022 49.0424 27.0788 46.7703 26.2656C47.1054 26.7406 47.431 27.2224 47.7468 27.7109C47.9599 28.6808 47.5824 29.2277 46.614 29.3516C46.3985 29.3483 46.1902 29.3092 45.989 29.2344C45.741 29.0123 45.5196 28.7648 45.325 28.4922C44.4871 27.3156 43.6798 26.1177 42.9031 24.8984C42.8136 24.4117 42.9308 23.982 43.2546 23.6094C44.4923 22.7692 45.7162 21.9098 46.9265 21.0313C47.6345 20.6832 48.2464 20.8003 48.7625 21.3828C49.0414 22.1031 48.8721 22.6891 48.2546 23.1406C47.9255 23.3438 47.613 23.5651 47.3171 23.8047C51.477 25.3334 53.9249 28.2762 54.6609 32.6328ZM20.4421 32.6328C21.4016 32.542 21.8704 32.9847 21.8484 33.9609C21.8279 34.8932 21.3592 35.3359 20.4421 35.2891C20.4421 34.4037 20.4421 33.5182 20.4421 32.6328ZM39.4265 32.6328C40.3711 32.5881 40.918 33.0308 41.0671 33.9609C40.8073 35.0934 40.1302 35.4709 39.0359 35.0938C38.3485 34.5398 38.2313 33.8757 38.6843 33.1016C38.9064 32.8935 39.1538 32.7373 39.4265 32.6328ZM44.2703 32.6328C44.731 32.5183 45.0435 32.6745 45.2078 33.1016C45.1875 33.2334 45.1353 33.3506 45.0515 33.4531C44.8025 33.5559 44.542 33.595 44.2703 33.5703C44.2703 33.2578 44.2703 32.9453 44.2703 32.6328Z" fill="white"/>
<path opacity="0.934" fill-rule="evenodd" clip-rule="evenodd" d="M19.5046 31.3828C22.1884 31.0067 23.3472 32.1525 22.9812 34.8203C22.7253 35.7273 22.1393 36.2873 21.2234 36.5C20.6505 36.5521 20.0776 36.5521 19.5046 36.5C19.3614 36.4609 19.2703 36.3698 19.2312 36.2266C19.1791 34.7162 19.1791 33.2057 19.2312 31.6953C19.2851 31.5508 19.3762 31.4466 19.5046 31.3828ZM20.4421 32.6328C20.4421 33.5182 20.4421 34.4037 20.4421 35.2891C21.3592 35.3359 21.8279 34.8932 21.8484 33.9609C21.8704 32.9847 21.4016 32.542 20.4421 32.6328Z" fill="white"/>
<path opacity="0.929" fill-rule="evenodd" clip-rule="evenodd" d="M24.1922 31.3828C24.8958 31.3698 25.5989 31.3828 26.3016 31.4219C26.7515 31.7259 26.8036 32.0905 26.4578 32.5156C25.9985 32.6258 25.5298 32.6648 25.0516 32.6328C25.0516 32.8672 25.0516 33.1015 25.0516 33.3359C25.4171 33.3229 25.7817 33.336 26.1453 33.375C26.5144 33.5652 26.6316 33.8647 26.4969 34.2734C26.4021 34.3944 26.2849 34.4855 26.1453 34.5469C25.7817 34.5858 25.4171 34.5989 25.0516 34.5859C25.0516 34.8203 25.0516 35.0547 25.0516 35.289C25.4691 35.2761 25.8857 35.2891 26.3016 35.3281C26.6423 35.502 26.7595 35.7754 26.6532 36.1484C26.5881 36.3177 26.4709 36.4349 26.3016 36.5C25.5985 36.5521 24.8953 36.5521 24.1922 36.5C24.0804 36.4636 23.9893 36.3985 23.9188 36.3047C23.7906 34.8013 23.7645 33.2908 23.8407 31.7734C23.9207 31.6026 24.0379 31.4723 24.1922 31.3828Z" fill="white"/>
<path opacity="0.923" fill-rule="evenodd" clip-rule="evenodd" d="M27.7859 31.3828C28.0743 31.3415 28.3217 31.4196 28.5281 31.6172C28.828 32.4251 29.1275 33.2324 29.4265 34.039C29.7231 33.2665 29.9965 32.4852 30.2468 31.6953C30.6114 31.2787 30.976 31.2787 31.3406 31.6953C31.3927 31.9297 31.3927 32.164 31.3406 32.3984C30.9239 33.6484 30.5072 34.8984 30.0906 36.1484C29.7011 36.6301 29.2845 36.6561 28.8406 36.2265C28.3564 34.9044 27.8877 33.5762 27.4343 32.2422C27.3387 31.8614 27.4559 31.5749 27.7859 31.3828Z" fill="white"/>
<path opacity="0.925" fill-rule="evenodd" clip-rule="evenodd" d="M39.2702 31.3828C41.4471 31.4111 42.4237 32.5048 42.1999 34.6641C41.6914 36.0188 40.7149 36.6307 39.2702 36.5C38.1783 36.2934 37.4881 35.6554 37.1999 34.5859C36.9906 32.9183 37.6807 31.8505 39.2702 31.3828ZM39.4264 32.6328C39.1537 32.7373 38.9063 32.8935 38.6842 33.1016C38.2312 33.8757 38.3484 34.5398 39.0358 35.0938C40.1301 35.4709 40.8072 35.0934 41.067 33.9609C40.9179 33.0308 40.371 32.588 39.4264 32.6328Z" fill="white"/>
<path opacity="0.936" fill-rule="evenodd" clip-rule="evenodd" d="M43.3328 31.3828C44.0164 31.3508 44.6934 31.3899 45.364 31.5C46.4983 32.1435 46.7457 33.0419 46.1062 34.1953C45.6036 34.7058 44.9917 34.9141 44.2703 34.8203C44.3078 35.3274 44.2557 35.8221 44.114 36.3047C43.7428 36.6274 43.3912 36.6013 43.0593 36.2266C43.0072 34.7162 43.0072 33.2057 43.0593 31.6953C43.1133 31.5508 43.2043 31.4466 43.3328 31.3828ZM44.2703 32.6328C44.2703 32.9453 44.2703 33.2578 44.2703 33.5703C44.542 33.595 44.8025 33.556 45.0515 33.4531C45.1354 33.3506 45.1875 33.2334 45.2078 33.1016C45.0435 32.6746 44.731 32.5183 44.2703 32.6328Z" fill="white"/>
<path opacity="0.919" fill-rule="evenodd" clip-rule="evenodd" d="M48.7234 31.3828C49.4304 31.299 50.0554 31.4813 50.5984 31.9297C50.9285 32.3406 50.8764 32.6921 50.4422 32.9844C50.1055 33.078 49.819 32.9999 49.5828 32.75C49.294 32.6017 49.0075 32.6017 48.7234 32.75C48.658 32.829 48.632 32.9202 48.6453 33.0235C49.4404 33.1931 50.1304 33.5577 50.7156 34.1172C51.189 35.3186 50.8115 36.1129 49.5828 36.5C48.6839 36.6431 47.9157 36.3957 47.2781 35.7578C47.0383 35.0077 47.3118 34.6822 48.0984 34.7813C48.4899 35.2159 48.9587 35.3461 49.5047 35.1719C49.713 35.0157 49.713 34.8594 49.5047 34.7032C48.9108 34.4842 48.3379 34.2239 47.7859 33.9219C47.0576 32.6817 47.3701 31.8354 48.7234 31.3828Z" fill="white"/>
</g>
<defs>
<linearGradient id="paint0_linear_29_144" x1="34.7" y1="0" x2="34.7" y2="68" gradientUnits="userSpaceOnUse">
<stop stop-color="#188DCD"/>
<stop offset="1" stop-color="#29BCEE"/>
</linearGradient>
<clipPath id="clip0_29_144">
<rect width="40" height="40" fill="white" transform="translate(14.7 14)"/>
</clipPath>
</defs>
</svg>
