<svg width="20" height="20" viewBox="0 0 20 20" fill="none" xmlns="http://www.w3.org/2000/svg">
<path opacity="0.984" fill-rule="evenodd" clip-rule="evenodd" d="M11.582 1.97314C12.3894 1.96664 13.1967 1.97314 14.0039 1.99267C14.1961 2.01864 14.2938 2.12932 14.2969 2.32471C14.3229 3.132 14.3229 3.93928 14.2969 4.74658C14.2885 4.90041 14.2169 5.01111 14.082 5.07861C13.3778 5.08385 12.6747 5.10986 11.9727 5.15674C11.6897 5.22127 11.527 5.39705 11.4844 5.68408C11.4649 6.36103 11.4583 7.0381 11.4649 7.71533C12.3408 7.69662 13.2132 7.71615 14.082 7.77392C14.1747 7.87838 14.2202 8.00209 14.2188 8.14502C14.2448 8.96533 14.2448 9.78564 14.2188 10.606C14.2424 10.8785 14.1186 11.0153 13.8477 11.0161C13.0535 11.0356 12.2592 11.0422 11.4649 11.0356C11.4714 13.2622 11.4649 15.4888 11.4453 17.7153C11.4299 17.8479 11.3583 17.9325 11.2305 17.9692C10.2409 17.9953 9.2513 17.9953 8.26173 17.9692C8.12958 17.9153 8.05798 17.8177 8.04688 17.6763C8.02735 15.4628 8.02083 13.2492 8.02735 11.0356C7.2695 11.0537 6.51427 11.0342 5.76173 10.977C5.70731 10.9313 5.67474 10.8727 5.66407 10.8013C5.63802 9.85076 5.63802 8.90021 5.66407 7.94971C5.68224 7.89381 5.71481 7.84826 5.76173 7.81299C6.51333 7.75537 7.26853 7.73584 8.02735 7.75439C8.01384 6.9201 8.03337 6.08678 8.08595 5.25439C8.40294 3.25113 9.56829 2.15738 11.582 1.97314Z" fill="#29A0D6"/>
</svg>
