<svg width="1920" height="1588" viewBox="0 0 1920 1588" fill="none" xmlns="http://www.w3.org/2000/svg">
<path d="M0 85C0 52.2657 0 35.8985 7.36799 23.8751C11.4908 17.1473 17.1473 11.4908 23.8751 7.36799C35.8985 0 52.2657 0 85 0H1835C1867.73 0 1884.1 0 1896.12 7.36799C1902.85 11.4908 1908.51 17.1473 1912.63 23.8751C1920 35.8985 1920 52.2657 1920 85V1588H1374.62C1356.82 1588 1340.86 1577.01 1334.51 1560.38C1328.15 1543.75 1312.19 1532.76 1294.39 1532.76H605.33C587.267 1532.76 570.993 1543.67 564.132 1560.38C557.271 1577.09 540.997 1588 522.934 1588H0V85Z" fill="black"/>
</svg>
