<svg width="1920" height="82" viewBox="0 0 1920 82" fill="none" xmlns="http://www.w3.org/2000/svg">
<mask id="mask0_1021_4" style="mask-type:alpha" maskUnits="userSpaceOnUse" x="0" y="0" width="1920" height="82">
<rect width="1920" height="82" fill="#D9D9D9"/>
</mask>
<g mask="url(#mask0_1021_4)">
<path d="M0 -1421C0 -1453.73 0 -1470.1 7.36799 -1482.12C11.4908 -1488.85 17.1473 -1494.51 23.8751 -1498.63C35.8985 -1506 52.2657 -1506 85 -1506H1835C1867.73 -1506 1884.1 -1506 1896.12 -1498.63C1902.85 -1494.51 1908.51 -1488.85 1912.63 -1482.12C1920 -1470.1 1920 -1453.73 1920 -1421V82H1374.62C1356.82 82 1340.86 71.013 1334.51 54.3804V54.3804C1328.15 37.7478 1312.19 26.7608 1294.39 26.7608H605.33C587.267 26.7608 570.993 37.6711 564.132 54.3804V54.3804C557.271 71.0897 540.997 82 522.934 82H0V-1421Z" fill="black"/>
</g>
</svg>
