<svg width="64" height="65" viewBox="0 0 64 65" fill="none" xmlns="http://www.w3.org/2000/svg">
<circle cx="32" cy="32.5" r="32" fill="url(#paint0_linear_1_11)"/>
<path opacity="0.985" fill-rule="evenodd" clip-rule="evenodd" d="M44.3047 22.9034C39.4609 22.8941 34.6171 22.9034 29.7734 22.9313C28.8763 23.2172 28.5248 23.7095 28.7187 24.4082C28.8619 24.8819 29.2656 25.1699 29.9297 25.272C34.6693 25.3092 39.4088 25.3092 44.1484 25.272C45.0058 25.1245 45.4224 24.7344 45.3984 24.1016C45.4136 23.5181 45.049 23.1187 44.3047 22.9034Z" fill="white"/>
<path opacity="0.967" fill-rule="evenodd" clip-rule="evenodd" d="M44.0703 31.1846C36.0494 31.1755 28.0286 31.1846 20.0078 31.2118C18.9156 31.4211 18.4859 31.9203 18.7187 32.7097C18.8706 33.1943 19.3003 33.4757 20.0078 33.5539C28.0287 33.5902 36.0494 33.5902 44.0703 33.5539C45.1625 33.3446 45.5922 32.8454 45.3594 32.056C45.1885 31.5752 44.7588 31.2847 44.0703 31.1846Z" fill="white"/>
<path opacity="0.985" fill-rule="evenodd" clip-rule="evenodd" d="M44.1484 39.544C39.4087 39.5347 34.6692 39.544 29.9297 39.5719C29.3003 39.6679 28.8966 39.9373 28.7187 40.38C28.4995 41.0982 28.8511 41.6091 29.7734 41.9126C34.6172 41.9498 39.4609 41.9498 44.3047 41.9126C45.2256 41.6111 45.5772 41.1002 45.3594 40.38C45.1676 39.9365 44.7639 39.6579 44.1484 39.544Z" fill="white"/>
<defs>
<linearGradient id="paint0_linear_1_11" x1="-15.2727" y1="36.8636" x2="64" y2="36.8636" gradientUnits="userSpaceOnUse">
<stop stop-color="#57CBFF"/>
<stop offset="0.904" stop-color="#199BD5"/>
</linearGradient>
</defs>
</svg>
