<svg width="20" height="20" viewBox="0 0 20 20" fill="none" xmlns="http://www.w3.org/2000/svg">
<g clip-path="url(#clip0_1_437)">
<path opacity="0.974" fill-rule="evenodd" clip-rule="evenodd" d="M4.74609 -0.0195312C8.23566 -0.0195312 11.7253 -0.0195312 15.2148 -0.0195312C17.8841 0.488281 19.4727 2.07682 19.9805 4.74609C19.9805 8.23566 19.9805 11.7253 19.9805 15.2148C19.4727 17.8841 17.8841 19.4727 15.2148 19.9805C11.7253 19.9805 8.23566 19.9805 4.74609 19.9805C2.07682 19.4727 0.488281 17.8841 -0.0195312 15.2148C-0.0195312 11.7253 -0.0195312 8.23566 -0.0195312 4.74609C0.488281 2.07682 2.07682 0.488281 4.74609 -0.0195312ZM4.86328 1.19141C8.27477 1.18489 11.6862 1.19141 15.0977 1.21094C17.0316 1.55631 18.236 2.68261 18.7109 4.58984C18.7499 4.86199 18.7759 5.13543 18.7891 5.41016C18.8151 8.45703 18.8151 11.5039 18.7891 14.5508C18.6763 16.5379 17.6932 17.8856 15.8398 18.5938C15.4191 18.7171 14.9895 18.7822 14.5508 18.7891C11.5039 18.8151 8.45703 18.8151 5.41016 18.7891C3.5646 18.7001 2.25601 17.8212 1.48438 16.1523C1.35049 15.8121 1.25934 15.4605 1.21094 15.0977C1.17257 11.594 1.18559 8.09144 1.25 4.58984C1.73176 2.68214 2.93619 1.54933 4.86328 1.19141ZM15.4492 3.76953C15.8327 3.75581 16.0085 3.93809 15.9766 4.31641C15.868 4.57223 15.6792 4.65688 15.4102 4.57031C15.1911 4.4423 15.1195 4.25352 15.1953 4.00391C15.2701 3.91188 15.3547 3.83373 15.4492 3.76953Z" fill="#29A0D6"/>
<path opacity="0.963" fill-rule="evenodd" clip-rule="evenodd" d="M15.2933 2.55906C16.2928 2.48836 16.9244 2.93106 17.1878 3.88719C17.2879 4.73547 16.9559 5.34094 16.1917 5.70359C15.2906 5.97609 14.594 5.70914 14.1019 4.90281C13.7722 4.02984 13.987 3.32021 14.7464 2.7739C14.9284 2.68961 15.1106 2.618 15.2933 2.55906ZM15.4495 3.77C15.355 3.8342 15.2704 3.91234 15.1956 4.00437C15.1197 4.25398 15.1913 4.44277 15.4104 4.57078C15.6795 4.65734 15.8683 4.57269 15.9769 4.31687C16.0088 3.93855 15.833 3.75628 15.4495 3.77Z" fill="#29A0D6"/>
<path opacity="0.962" fill-rule="evenodd" clip-rule="evenodd" d="M9.35546 4.51173C11.719 4.36848 13.5223 5.29298 14.7656 7.28516C15.4962 8.65321 15.6524 10.0855 15.2344 11.582C14.4604 13.7888 12.9174 15.0714 10.6055 15.4297C8.24104 15.592 6.43765 14.674 5.1953 12.6758C4.46476 11.3077 4.30851 9.87544 4.72655 8.37891C5.5096 6.17497 7.05257 4.88591 9.35546 4.51173ZM9.43358 5.72266C7.37679 6.13231 6.14632 7.3693 5.74218 9.4336C5.60858 11.5375 6.48749 13.0414 8.3789 13.9453C9.99261 14.5206 11.4639 14.2732 12.793 13.2031C14.1989 11.8434 14.583 10.2353 13.9453 8.37891C13.0404 6.49348 11.5365 5.60806 9.43358 5.72266Z" fill="#29A0D6"/>
</g>
<defs>
<clipPath id="clip0_1_437">
<rect width="20" height="20" fill="white"/>
</clipPath>
</defs>
</svg>
