<svg width="20" height="20" viewBox="0 0 20 20" fill="none" xmlns="http://www.w3.org/2000/svg">
<path opacity="0.977" fill-rule="evenodd" clip-rule="evenodd" d="M3.53516 1.97257C4.76371 1.88063 5.52543 2.4275 5.82031 3.6132C5.89988 4.76972 5.38559 5.50542 4.27734 5.82023C3.06596 5.93632 2.30424 5.40898 1.99219 4.2382C1.89919 3.06275 2.41351 2.30754 3.53516 1.97257Z" fill="#29A0D6"/>
<path opacity="0.987" fill-rule="evenodd" clip-rule="evenodd" d="M13.6914 7.01144C14.6115 6.96074 15.4839 7.13652 16.3086 7.53879C16.9322 7.9414 17.3684 8.4948 17.6172 9.19894C17.8228 9.82051 17.94 10.4586 17.9688 11.113C17.9883 13.4046 17.9948 15.6963 17.9883 17.988C16.8685 17.988 15.7487 17.988 14.6289 17.988C14.6354 15.9177 14.6289 13.8473 14.6094 11.7771C14.4893 10.3154 13.7146 9.73597 12.2852 10.0388C11.624 10.2705 11.2269 10.7327 11.0938 11.4255C11.0581 11.5933 11.0321 11.7625 11.0156 11.9333C10.9961 13.9515 10.9896 15.9697 10.9961 17.988C9.87629 17.988 8.75652 17.988 7.63672 17.988C7.63672 14.4203 7.63672 10.8526 7.63672 7.28488C8.70441 7.28488 9.77215 7.28488 10.8398 7.28488C10.8333 7.76683 10.8398 8.24859 10.8594 8.73019C11.3393 7.9257 12.0359 7.39836 12.9492 7.14816C13.2007 7.09386 13.4481 7.04828 13.6914 7.01144Z" fill="#29A0D6"/>
<path opacity="0.986" fill-rule="evenodd" clip-rule="evenodd" d="M2.20703 7.28516C3.32682 7.28516 4.4466 7.28516 5.56641 7.28516C5.56641 10.8529 5.56641 14.4206 5.56641 17.9883C4.4466 17.9883 3.32682 17.9883 2.20703 17.9883C2.20703 14.4206 2.20703 10.8529 2.20703 7.28516Z" fill="#29A0D6"/>
</svg>
