<svg width="68" height="68" viewBox="0 0 68 68" fill="none" xmlns="http://www.w3.org/2000/svg">
<rect width="68" height="68" rx="10" fill="url(#paint0_linear_1_91)"/>
<path opacity="0.961" fill-rule="evenodd" clip-rule="evenodd" d="M33.4141 15.4453C33.9876 15.4323 34.5605 15.4453 35.1328 15.4844C35.2401 15.7929 35.3703 16.0924 35.5234 16.3828C36.0355 16.523 36.5173 16.7314 36.9688 17.0078C37.3 16.8086 37.6516 16.6914 38.0234 16.6562C38.349 16.9818 38.6745 17.3073 39 17.6328C39.0085 18.021 38.8913 18.3725 38.6484 18.6875C38.9251 19.1398 39.1334 19.6216 39.2734 20.1328C39.5956 20.3096 39.9342 20.4398 40.2891 20.5234C40.3149 21.0987 40.2888 21.6716 40.2109 22.2422C39.8977 22.3726 39.5852 22.5028 39.2734 22.6328C39.1334 23.144 38.9251 23.6258 38.6484 24.0781C38.8613 24.4042 38.9785 24.7558 39 25.1328C38.6354 25.4974 38.2709 25.8619 37.9062 26.2265C37.5841 26.0915 37.2716 25.9352 36.9688 25.7578C36.5164 26.0344 36.0346 26.2428 35.5234 26.3828C35.3629 26.6819 35.2327 26.9944 35.1328 27.3203C34.5599 27.4244 33.987 27.4244 33.4141 27.3203C33.3141 26.9944 33.184 26.6819 33.0234 26.3828C32.5123 26.2428 32.0305 26.0344 31.5781 25.7578C31.2753 25.9352 30.9628 26.0915 30.6406 26.2265C30.276 25.8619 29.9115 25.4974 29.5469 25.1328C29.5684 24.7558 29.6855 24.4042 29.8984 24.0781C29.6218 23.6258 29.4134 23.144 29.2734 22.6328C28.983 22.4797 28.6836 22.3494 28.375 22.2422C28.3101 21.6675 28.323 21.0946 28.4141 20.5234C28.7098 20.4077 28.9962 20.2775 29.2734 20.1328C29.4137 19.6207 29.622 19.139 29.8984 18.6875C29.6855 18.3614 29.5684 18.0098 29.5469 17.6328C29.8724 17.3073 30.1979 16.9818 30.5234 16.6562C30.9005 16.6777 31.252 16.7949 31.5781 17.0078C32.0296 16.7314 32.5113 16.523 33.0234 16.3828C33.1845 16.0818 33.3146 15.7693 33.4141 15.4453ZM33.7266 18.6484C35.399 18.5138 36.4797 19.2429 36.9688 20.8359C37.1371 22.4654 36.447 23.5461 34.8984 24.0781C33.1952 24.2751 32.0884 23.559 31.5781 21.9297C31.4149 20.2491 32.1311 19.1553 33.7266 18.6484Z" fill="white"/>
<path opacity="0.952" fill-rule="evenodd" clip-rule="evenodd" d="M20.4453 22.9453C23.7398 22.6972 26.0966 24.0514 27.5156 27.0078C28.6049 30.322 27.7585 33.0174 24.9766 35.0938C22.3147 36.5853 19.7366 36.4551 17.2422 34.7031C14.8447 32.5218 14.2067 29.9046 15.3281 26.8516C16.3724 24.6735 18.0781 23.3715 20.4453 22.9453ZM20.6016 24.2734C22.9749 24.0994 24.7849 25.0109 26.0313 27.0078C27.042 29.161 26.8077 31.1662 25.3281 33.0234C24.3152 30.9479 22.6616 30.1016 20.3672 30.4844C19.0086 30.8403 18.0451 31.6606 17.4766 32.9453C16.093 31.3523 15.7675 29.5554 16.5 27.5547C17.306 25.7448 18.6732 24.651 20.6016 24.2734Z" fill="white"/>
<path opacity="0.963" fill-rule="evenodd" clip-rule="evenodd" d="M46.2266 23.5703C49.2041 23.32 51.3525 24.5179 52.6719 27.164C53.6289 29.8233 53.095 32.1279 51.0703 34.0781C48.6667 35.8679 46.1928 35.9722 43.6484 34.3906C41.3099 32.4454 40.6458 30.0365 41.6563 27.164C42.5743 25.1908 44.0977 23.9929 46.2266 23.5703ZM46.9297 25.2109C47.5427 25.1569 47.8292 25.4433 47.7891 26.0703C48.7509 26.3153 49.3108 26.9143 49.4688 27.8672C49.2107 28.3357 48.8722 28.4138 48.4531 28.1015C48.0895 27.2885 47.4776 27.0151 46.6172 27.2812C46.0199 27.6047 45.9157 28.0475 46.3047 28.6094C46.8327 28.8261 47.3795 28.9823 47.9453 29.0781C49.4257 29.5778 49.9075 30.5544 49.3906 32.0078C48.9624 32.5021 48.4286 32.8276 47.7891 32.9844C47.84 33.4669 47.6317 33.7663 47.1641 33.8828C46.7084 33.7457 46.474 33.4332 46.4609 32.9453C45.5056 32.6801 44.9067 32.0682 44.6641 31.1094C44.7356 30.6598 44.996 30.4776 45.4453 30.5625C45.7195 30.7319 45.8888 30.9794 45.9531 31.3047C46.2677 31.6747 46.6714 31.8569 47.1641 31.8515C47.7234 31.8876 48.1531 31.6793 48.4531 31.2265C48.5203 30.8787 48.4031 30.6053 48.1016 30.4062C47.3086 30.185 46.5274 29.9246 45.7578 29.625C44.8453 28.9254 44.65 28.053 45.1719 27.0078C45.5061 26.5436 45.9488 26.2311 46.5 26.0703C46.5339 25.7164 46.6771 25.4299 46.9297 25.2109Z" fill="white"/>
<path opacity="0.956" fill-rule="evenodd" clip-rule="evenodd" d="M21.1484 25.8359C22.8923 25.9262 23.6605 26.8376 23.4531 28.5703C23.033 29.7188 22.2127 30.2266 20.9922 30.0938C19.6769 29.7145 19.117 28.842 19.3125 27.4766C19.5985 26.5597 20.2104 26.0128 21.1484 25.8359Z" fill="white"/>
<path opacity="0.886" fill-rule="evenodd" clip-rule="evenodd" d="M34.0391 29.5078C34.5402 29.4385 34.8396 29.6468 34.9375 30.1328C34.9896 31.5911 34.9896 33.0494 34.9375 34.5078C34.7819 35.0639 34.4303 35.2332 33.8828 35.0156C33.7056 34.8939 33.6145 34.7247 33.6094 34.5078C33.5573 33.0494 33.5573 31.5911 33.6094 30.1328C33.6477 29.8479 33.7909 29.6396 34.0391 29.5078Z" fill="white"/>
<path opacity="0.913" fill-rule="evenodd" clip-rule="evenodd" d="M28.4922 32.711C28.7087 32.7048 28.9169 32.7438 29.1172 32.8281C30.4328 33.858 31.7219 34.9127 32.9844 35.9922C33.0694 36.8182 32.7178 37.0917 31.9297 36.8125C30.7057 35.849 29.4818 34.8854 28.2578 33.9219C27.9211 33.4353 27.9992 33.0317 28.4922 32.711Z" fill="white"/>
<path opacity="0.914" fill-rule="evenodd" clip-rule="evenodd" d="M39.6641 32.7109C40.4477 32.7832 40.669 33.1738 40.3281 33.8828C39.0912 34.8594 37.8541 35.8359 36.6172 36.8125C36.2087 37.0173 35.8571 36.9522 35.5625 36.6172C35.4987 36.3466 35.5248 36.0861 35.6406 35.8359C36.9828 34.7825 38.324 33.7408 39.6641 32.7109Z" fill="white"/>
<path opacity="0.973" fill-rule="evenodd" clip-rule="evenodd" d="M26.6172 40.2109C26.9869 40.2014 27.3514 40.2405 27.7109 40.3281C29.829 41.147 31.9905 41.8241 34.1953 42.3594C34.7671 42.7945 34.8843 43.3283 34.5469 43.9609C34.4116 44.1263 34.2423 44.2435 34.0391 44.3125C33.6179 44.3666 33.2012 44.3405 32.7891 44.2344C31.6598 43.9187 30.527 43.6192 29.3906 43.3359C28.8777 43.3962 28.6955 43.6827 28.8438 44.1953C28.9088 44.2604 28.974 44.3255 29.0391 44.3906C30.6645 44.8686 32.3051 45.2852 33.9609 45.6406C34.7876 45.7413 35.5948 45.6632 36.3828 45.4062C38.8962 43.9542 41.4222 42.5219 43.9609 41.1094C44.6841 40.7912 45.4134 40.7651 46.1484 41.0312C46.3138 41.1665 46.431 41.3358 46.5 41.5391C46.5867 42.002 46.5347 42.4447 46.3438 42.8672C42.7306 45.1491 39.0978 47.4017 35.4453 49.625C34.726 50.0761 33.9448 50.2584 33.1016 50.1719C30.2423 49.4603 27.3908 48.7181 24.5469 47.9453C24.0774 48.1475 23.6217 48.3819 23.1797 48.6484C23.0709 48.5621 22.9798 48.4579 22.9062 48.3359C22.0036 46.778 21.1312 45.2025 20.2891 43.6094C21.7583 42.7052 23.2427 41.8198 24.7422 40.9531C25.3439 40.6186 25.9689 40.3712 26.6172 40.2109Z" fill="white"/>
<path opacity="0.942" fill-rule="evenodd" clip-rule="evenodd" d="M17.7891 42.3203C17.9878 42.2894 18.1571 42.3415 18.2969 42.4765C19.9115 45.3411 21.526 48.2057 23.1406 51.0703C23.2106 51.2676 23.1716 51.4369 23.0234 51.5781C22.5026 51.8646 21.9818 52.151 21.4609 52.4375C21.2637 52.5075 21.0944 52.4684 20.9531 52.3203C19.3385 49.4557 17.724 46.5911 16.1094 43.7265C16.0513 43.5749 16.0644 43.4317 16.1484 43.2969C16.7261 43.0086 17.273 42.6831 17.7891 42.3203ZM17.4766 43.414C18.1526 43.374 18.426 43.6865 18.2969 44.3515C17.8684 44.8793 17.4778 44.8533 17.125 44.2734C17.0294 43.8926 17.1465 43.6061 17.4766 43.414Z" fill="white"/>
<defs>
<linearGradient id="paint0_linear_1_91" x1="34" y1="0" x2="34" y2="68" gradientUnits="userSpaceOnUse">
<stop stop-color="#188DCD"/>
<stop offset="1" stop-color="#29BCEE"/>
</linearGradient>
</defs>
</svg>
