<svg width="68" height="68" viewBox="0 0 68 68" fill="none" xmlns="http://www.w3.org/2000/svg">
<rect width="68" height="68" rx="10" fill="url(#paint0_linear_1_116)"/>
<g clip-path="url(#clip0_1_116)">
<path opacity="0.967" fill-rule="evenodd" clip-rule="evenodd" d="M42.7109 13.9609C43.1797 13.9609 43.6484 13.9609 44.1172 13.9609C45.4796 14.3896 46.2088 15.3271 46.3047 16.7734C46.1999 18.1843 45.4708 19.0698 44.1172 19.4297C44.1302 21.2788 44.1172 23.1278 44.0781 24.9766C43.8363 26.5205 42.9378 27.367 41.3828 27.5156C39.2736 27.5547 37.1642 27.5677 35.0547 27.5547C35.0547 28.3099 35.0547 29.0651 35.0547 29.8203C37.4767 29.8334 39.8986 29.8203 42.3203 29.7812C43.8727 28.8412 45.4352 27.9167 47.0078 27.0078C47.0869 26.8252 47.0738 26.643 46.9688 26.4609C46.733 24.3661 47.6575 23.1681 49.7422 22.8672C51.4846 23.047 52.3961 24.0106 52.4766 25.7578C52.3646 27.4974 51.4402 28.4088 49.7031 28.4922C49.4818 28.4791 49.2604 28.4662 49.0391 28.4531C48.6481 28.2952 48.2575 28.1651 47.8672 28.0625C46.1873 29.0718 44.4946 30.0614 42.7891 31.0312C40.2111 31.0703 37.633 31.0834 35.0547 31.0703C35.0547 31.8255 35.0547 32.5807 35.0547 33.3359C39.0131 33.349 42.9714 33.3359 46.9297 33.2969C47.6521 31.4122 48.9802 30.7612 50.9141 31.3438C52.2788 32.1545 52.7605 33.3394 52.3594 34.8984C51.6723 36.4724 50.4873 37.0584 48.8047 36.6562C47.8548 36.2793 47.2298 35.6022 46.9297 34.625C42.9714 34.5859 39.0131 34.5729 35.0547 34.5859C35.0547 35.3412 35.0547 36.0963 35.0547 36.8516C37.633 36.8385 40.2111 36.8516 42.7891 36.8906C44.5338 37.8932 46.2787 38.8959 48.0234 39.8984C49.2237 39.2423 50.3956 39.2813 51.5391 40.0156C52.4916 40.9578 52.739 42.0646 52.2812 43.3359C51.6148 44.6262 50.5602 45.1601 49.1172 44.9375C48.0187 44.6464 47.3027 43.9563 46.9688 42.8672C46.9115 42.2073 46.9375 41.5562 47.0469 40.9141C45.4521 40.0191 43.8766 39.0947 42.3203 38.1406C39.8986 38.1016 37.4767 38.0885 35.0547 38.1016C35.0547 38.8568 35.0547 39.612 35.0547 40.3672C37.1642 40.3541 39.2736 40.3672 41.3828 40.4062C42.9378 40.5549 43.8363 41.4013 44.0781 42.9453C44.1172 44.7941 44.1302 46.643 44.1172 48.4922C45.4698 48.8491 46.199 49.7345 46.3047 51.1484C46.1809 52.5726 45.4516 53.5101 44.1172 53.9609C43.6745 53.9609 43.2318 53.9609 42.7891 53.9609C41.427 53.5337 40.6979 52.5962 40.6016 51.1484C40.7118 49.7779 41.4149 48.8925 42.7109 48.4922C42.724 46.5649 42.7109 44.6378 42.6719 42.7109C42.4703 42.1349 42.0667 41.8094 41.4609 41.7344C39.3257 41.6953 37.1902 41.6823 35.0547 41.6953C35.0547 41.8776 35.0547 42.0599 35.0547 42.2422C31.523 41.9777 29.0361 40.233 27.5937 37.0078C26.3336 33.1331 27.258 29.8909 30.3672 27.2812C31.7654 26.2727 33.3279 25.7388 35.0547 25.6797C35.0547 25.8359 35.0547 25.9922 35.0547 26.1484C37.2945 26.1615 39.534 26.1484 41.7734 26.1094C42.2291 25.9662 42.5287 25.6666 42.6719 25.2109C42.7109 23.2841 42.724 21.3569 42.7109 19.4297C41.4149 19.0294 40.7118 18.144 40.6016 16.7734C40.7036 15.3664 41.4067 14.4289 42.7109 13.9609Z" fill="white"/>
<path opacity="0.985" fill-rule="evenodd" clip-rule="evenodd" d="M29.9766 14.6641C31.4612 14.651 32.9455 14.6641 34.4297 14.7031C34.6636 14.7348 34.8329 14.852 34.9375 15.0547C35.0534 18.4093 35.0925 21.7687 35.0547 25.1328C31.3299 25.3993 28.6867 27.2222 27.125 30.6016C25.7076 34.8113 26.7102 38.3139 30.1328 41.1094C31.6045 42.1574 33.2452 42.7173 35.0547 42.7891C35.0677 46.0704 35.0547 49.3516 35.0156 52.6328C34.985 52.8637 34.8678 53.033 34.6641 53.1406C33.0234 53.1927 31.3828 53.1927 29.7422 53.1406C29.5384 53.033 29.4213 52.8637 29.3906 52.6328C29.3776 51.4601 29.3385 50.2882 29.2734 49.1172C27.1704 48.3724 25.2824 47.2787 23.6094 45.8359C22.6076 46.4206 21.605 47.0066 20.6016 47.5938C20.3623 47.6516 20.128 47.6387 19.8984 47.5547C18.4073 45.0154 16.936 42.4633 15.4844 39.8984C15.4118 39.6059 15.4509 39.3325 15.6016 39.0781C16.6045 38.4854 17.6202 37.9125 18.6484 37.3594C18.6892 37.3155 18.7153 37.2634 18.7266 37.2031C18.4904 36.1181 18.3602 35.0244 18.3359 33.9219C18.3858 32.8073 18.5029 31.7005 18.6875 30.6016C17.6525 30.0255 16.6239 29.4395 15.6016 28.8437C15.5028 28.6984 15.4247 28.5421 15.3672 28.375C15.4521 28.088 15.5693 27.8145 15.7188 27.5547C17.026 25.3352 18.3021 23.0956 19.5469 20.8359C19.7363 20.3441 20.0879 20.1749 20.6016 20.3281C21.6172 20.9141 22.6328 21.5 23.6484 22.0859C25.3027 20.6331 27.1777 19.5393 29.2734 18.8047C29.3385 17.6337 29.3776 16.4618 29.3906 15.2891C29.4438 14.9367 29.6391 14.7283 29.9766 14.6641Z" fill="white"/>
</g>
<defs>
<linearGradient id="paint0_linear_1_116" x1="34" y1="0" x2="34" y2="68" gradientUnits="userSpaceOnUse">
<stop stop-color="#188DCD"/>
<stop offset="1" stop-color="#29BCEE"/>
</linearGradient>
<clipPath id="clip0_1_116">
<rect width="40" height="40" fill="white" transform="translate(14 14)"/>
</clipPath>
</defs>
</svg>
