<svg width="68" height="68" viewBox="0 0 68 68" fill="none" xmlns="http://www.w3.org/2000/svg">
<rect width="68" height="68" rx="10" fill="url(#paint0_linear_1_128)"/>
<g clip-path="url(#clip0_1_128)">
<path opacity="0.969" fill-rule="evenodd" clip-rule="evenodd" d="M53.9609 17.5547C53.9609 18.0495 53.9609 18.5443 53.9609 19.0391C53.2274 21.0868 51.7952 21.881 49.6641 21.4219C48.7489 21.0927 48.0979 20.4808 47.7109 19.586C46.6705 19.5079 45.6289 19.4818 44.5859 19.5078C44.599 22.1121 44.5859 24.7163 44.5469 27.3203C44.437 27.7167 44.1897 27.9901 43.8047 28.1406C42.8151 28.1927 41.8255 28.1927 40.8359 28.1406C40.4528 27.3353 40.0622 26.5411 39.6641 25.7578C40.4974 25.7578 41.3307 25.7578 42.1641 25.7578C42.151 23.1795 42.1641 20.6014 42.2031 18.0235C42.3716 17.4647 42.7492 17.1653 43.3359 17.125C44.795 17.112 46.2533 17.0729 47.7109 17.0078C48.6364 15.3053 50.0427 14.7193 51.9297 15.25C52.9789 15.6975 53.6559 16.4657 53.9609 17.5547Z" fill="white"/>
<path opacity="0.983" fill-rule="evenodd" clip-rule="evenodd" d="M13.9609 35.3672C13.9609 34.4297 13.9609 33.4922 13.9609 32.5547C14.5487 28.3185 16.6581 25.0763 20.2891 22.8281C24.6812 20.4663 29.0562 20.4923 33.4141 22.9062C37.4071 25.4865 39.4905 29.1715 39.6641 33.9609C39.4117 39.4833 36.8076 43.4286 31.8516 45.7969C26.9828 47.6386 22.5037 46.9615 18.4141 43.7656C15.8897 41.5162 14.4053 38.7168 13.9609 35.3672ZM32.3203 29.5859C33.1045 29.5693 33.8857 29.6083 34.6641 29.7031C36.5594 30.3493 37.3537 31.6644 37.0469 33.6484C36.4646 35.315 35.2797 36.1222 33.4922 36.0703C33.5052 36.5137 33.4921 36.9565 33.4531 37.3984C33.1891 38.11 32.6813 38.3834 31.9297 38.2187C31.6259 38.0451 31.4046 37.7978 31.2656 37.4765C31.2135 35.1328 31.2135 32.789 31.2656 30.4453C31.4727 29.9633 31.8243 29.6768 32.3203 29.5859ZM21.5391 29.664C22.3337 29.5332 22.8416 29.8457 23.0625 30.6015C23.1388 32.898 23.1127 35.1897 22.9844 37.4765C22.5346 38.1997 21.9487 38.343 21.2266 37.9062C20.5528 36.9103 19.8887 35.9077 19.2344 34.8984C19.2083 35.7578 19.1823 36.6172 19.1562 37.4765C18.8931 38.1485 18.4113 38.3959 17.7109 38.2187C17.326 38.0682 17.0786 37.7948 16.9688 37.3984C16.8925 35.0759 16.9185 32.7582 17.0469 30.4453C17.4933 29.7235 18.0792 29.5802 18.8047 30.0156C19.4785 31.0115 20.1425 32.0141 20.7969 33.0234C20.8229 32.164 20.849 31.3047 20.875 30.4453C21.0295 30.122 21.2509 29.8616 21.5391 29.664ZM26.1484 29.664C26.8486 29.5258 27.3304 29.7862 27.5938 30.4453C27.6328 32.294 27.6459 34.143 27.6328 35.9922C28.4179 35.8582 28.9778 36.1447 29.3125 36.8515C29.4127 37.6628 29.0612 38.1445 28.2578 38.2969C27.5505 38.363 26.8474 38.3369 26.1484 38.2187C25.7634 38.0682 25.5161 37.7948 25.4062 37.3984C25.3541 35.1068 25.3541 32.8151 25.4062 30.5234C25.5312 30.1255 25.7786 29.839 26.1484 29.664Z" fill="white"/>
<path opacity="0.971" fill-rule="evenodd" clip-rule="evenodd" d="M53.9609 33.2578C53.9609 33.7526 53.9609 34.2474 53.9609 34.7422C53.2672 36.7043 51.887 37.4985 49.8203 37.125C48.8603 36.8027 48.1572 36.1907 47.7109 35.2891C45.7845 35.2109 43.8575 35.1849 41.9297 35.2109C42.0312 34.4034 42.0312 33.5961 41.9297 32.7891C43.8575 32.8151 45.7845 32.7891 47.7109 32.7109C48.3113 31.4405 49.314 30.7634 50.7188 30.6797C52.3912 30.8051 53.4719 31.6645 53.9609 33.2578Z" fill="white"/>
<path opacity="0.909" fill-rule="evenodd" clip-rule="evenodd" d="M33.4922 31.9297C34.635 31.7571 35.0907 32.2258 34.8594 33.3359C34.4859 33.7129 34.0302 33.8692 33.4922 33.8047C33.4922 33.1797 33.4922 32.5547 33.4922 31.9297Z" fill="white"/>
<path opacity="0.969" fill-rule="evenodd" clip-rule="evenodd" d="M53.9609 48.8828C53.9609 49.3776 53.9609 49.8724 53.9609 50.3672C53.2672 52.3293 51.887 53.1235 49.8203 52.75C48.8603 52.4277 48.1572 51.8157 47.7109 50.9141C46.1491 50.849 44.5866 50.8099 43.0234 50.7969C42.5938 50.6797 42.3203 50.4063 42.2031 49.9766C42.1641 47.3725 42.151 44.7684 42.1641 42.1641C41.3043 42.1771 40.4449 42.1641 39.5859 42.125C40.0634 41.3785 40.4801 40.5973 40.8359 39.7813C41.7474 39.7292 42.6588 39.7292 43.5703 39.7813C43.9795 39.8516 44.279 40.073 44.4688 40.4453C44.5843 43.0967 44.6234 45.753 44.5859 48.4141C45.6289 48.4401 46.6705 48.414 47.7109 48.336C48.3113 47.0656 49.314 46.3885 50.7188 46.3047C52.3919 46.4292 53.4726 47.2885 53.9609 48.8828Z" fill="white"/>
</g>
<defs>
<linearGradient id="paint0_linear_1_128" x1="34" y1="0" x2="34" y2="68" gradientUnits="userSpaceOnUse">
<stop stop-color="#188DCD"/>
<stop offset="1" stop-color="#29BCEE"/>
</linearGradient>
<clipPath id="clip0_1_128">
<rect width="40" height="40" fill="white" transform="translate(14 14)"/>
</clipPath>
</defs>
</svg>
