<svg width="68" height="68" viewBox="0 0 68 68" fill="none" xmlns="http://www.w3.org/2000/svg">
<g clip-path="url(#clip0_1_148)">
<path opacity="0.969" fill-rule="evenodd" clip-rule="evenodd" d="M53.9609 17.5547C53.9609 18.0495 53.9609 18.5443 53.9609 19.0391C53.2274 21.0868 51.7952 21.881 49.6641 21.4219C48.7489 21.0927 48.0979 20.4808 47.7109 19.586C46.6705 19.5079 45.6289 19.4818 44.5859 19.5078C44.599 22.1121 44.5859 24.7163 44.5469 27.3203C44.437 27.7167 44.1897 27.9901 43.8047 28.1406C42.8151 28.1927 41.8255 28.1927 40.8359 28.1406C40.4528 27.3353 40.0622 26.5411 39.6641 25.7578C40.4974 25.7578 41.3307 25.7578 42.1641 25.7578C42.151 23.1795 42.1641 20.6014 42.2031 18.0235C42.3716 17.4647 42.7492 17.1653 43.3359 17.125C44.795 17.112 46.2533 17.0729 47.7109 17.0078C48.6364 15.3053 50.0427 14.7193 51.9297 15.25C52.9789 15.6975 53.6559 16.4657 53.9609 17.5547Z" fill="white"/>
<path opacity="0.983" fill-rule="evenodd" clip-rule="evenodd" d="M13.9609 35.3672C13.9609 34.4297 13.9609 33.4922 13.9609 32.5547C14.5487 28.3185 16.6581 25.0763 20.2891 22.8281C24.6812 20.4663 29.0562 20.4923 33.4141 22.9062C37.4071 25.4865 39.4905 29.1715 39.6641 33.9609C39.4117 39.4833 36.8076 43.4286 31.8516 45.7969C26.9828 47.6386 22.5037 46.9615 18.4141 43.7656C15.8897 41.5162 14.4053 38.7168 13.9609 35.3672ZM32.3203 29.5859C33.1045 29.5693 33.8857 29.6083 34.6641 29.7031C36.5594 30.3493 37.3537 31.6644 37.0469 33.6484C36.4646 35.315 35.2797 36.1222 33.4922 36.0703C33.5052 36.5137 33.4921 36.9565 33.4531 37.3984C33.1891 38.11 32.6813 38.3834 31.9297 38.2187C31.6259 38.0451 31.4046 37.7978 31.2656 37.4765C31.2135 35.1328 31.2135 32.789 31.2656 30.4453C31.4727 29.9633 31.8243 29.6768 32.3203 29.5859ZM21.5391 29.664C22.3337 29.5332 22.8416 29.8457 23.0625 30.6015C23.1388 32.898 23.1127 35.1897 22.9844 37.4765C22.5346 38.1997 21.9487 38.343 21.2266 37.9062C20.5528 36.9103 19.8887 35.9077 19.2344 34.8984C19.2083 35.7578 19.1823 36.6172 19.1562 37.4765C18.8931 38.1485 18.4113 38.3959 17.7109 38.2187C17.326 38.0682 17.0786 37.7948 16.9688 37.3984C16.8925 35.0759 16.9185 32.7582 17.0469 30.4453C17.4933 29.7235 18.0792 29.5802 18.8047 30.0156C19.4785 31.0115 20.1425 32.0141 20.7969 33.0234C20.8229 32.164 20.849 31.3047 20.875 30.4453C21.0295 30.122 21.2509 29.8616 21.5391 29.664ZM26.1484 29.664C26.8486 29.5258 27.3304 29.7862 27.5938 30.4453C27.6328 32.294 27.6459 34.143 27.6328 35.9922C28.4179 35.8582 28.9778 36.1447 29.3125 36.8515C29.4127 37.6628 29.0612 38.1445 28.2578 38.2969C27.5505 38.363 26.8474 38.3369 26.1484 38.2187C25.7634 38.0682 25.5161 37.7948 25.4062 37.3984C25.3541 35.1068 25.3541 32.8151 25.4062 30.5234C25.5312 30.1255 25.7786 29.839 26.1484 29.664Z" fill="white"/>
<path opacity="0.971" fill-rule="evenodd" clip-rule="evenodd" d="M53.9609 33.2578C53.9609 33.7526 53.9609 34.2474 53.9609 34.7422C53.2672 36.7043 51.887 37.4985 49.8203 37.125C48.8603 36.8027 48.1572 36.1907 47.7109 35.2891C45.7845 35.2109 43.8575 35.1849 41.9297 35.2109C42.0312 34.4034 42.0312 33.5961 41.9297 32.7891C43.8575 32.8151 45.7845 32.7891 47.7109 32.7109C48.3113 31.4405 49.314 30.7634 50.7188 30.6797C52.3912 30.8051 53.4719 31.6645 53.9609 33.2578Z" fill="white"/>
<path opacity="0.909" fill-rule="evenodd" clip-rule="evenodd" d="M33.4922 31.9297C34.635 31.7571 35.0907 32.2258 34.8594 33.3359C34.4859 33.7129 34.0302 33.8692 33.4922 33.8047C33.4922 33.1797 33.4922 32.5547 33.4922 31.9297Z" fill="white"/>
<path opacity="0.969" fill-rule="evenodd" clip-rule="evenodd" d="M53.9609 48.8828C53.9609 49.3776 53.9609 49.8724 53.9609 50.3672C53.2672 52.3293 51.887 53.1235 49.8203 52.75C48.8603 52.4277 48.1572 51.8157 47.7109 50.9141C46.1491 50.849 44.5866 50.8099 43.0234 50.7969C42.5938 50.6797 42.3203 50.4063 42.2031 49.9766C42.1641 47.3725 42.151 44.7684 42.1641 42.1641C41.3043 42.1771 40.4449 42.1641 39.5859 42.125C40.0634 41.3785 40.4801 40.5973 40.8359 39.7813C41.7474 39.7292 42.6588 39.7292 43.5703 39.7813C43.9795 39.8516 44.279 40.073 44.4688 40.4453C44.5843 43.0967 44.6234 45.753 44.5859 48.4141C45.6289 48.4401 46.6705 48.414 47.7109 48.336C48.3113 47.0656 49.314 46.3885 50.7188 46.3047C52.3919 46.4292 53.4726 47.2885 53.9609 48.8828Z" fill="white"/>
</g>
<rect width="68" height="68" rx="10" fill="url(#paint0_linear_1_148)"/>
<path opacity="0.955" fill-rule="evenodd" clip-rule="evenodd" d="M23.1016 15.9922C24.1656 15.9508 24.8948 16.4195 25.2891 17.3985C27.5089 17.4388 29.7224 17.5039 31.9297 17.5938C31.9786 17.6524 32.0177 17.7175 32.0469 17.7891C32.0859 20.1066 32.099 22.4243 32.0859 24.7422C31.6967 24.7854 31.3061 24.8115 30.9141 24.8203C30.9271 22.7629 30.9141 20.7056 30.875 18.6485C29.0448 18.5578 27.2088 18.5448 25.3672 18.6094C24.7702 19.8582 23.8066 20.2748 22.4766 19.8594C21.3492 19.1324 21.0758 18.1559 21.6562 16.9297C22.0209 16.4288 22.5027 16.1163 23.1016 15.9922Z" fill="white"/>
<path opacity="0.954" fill-rule="evenodd" clip-rule="evenodd" d="M44.2734 15.9922C45.9871 16.0592 46.7293 16.9446 46.5 18.6484C45.9971 19.8178 45.1247 20.2475 43.8828 19.9375C43.2311 19.7 42.7884 19.2573 42.5547 18.6094C40.713 18.5448 38.8771 18.5578 37.0469 18.6484C37.0078 20.7056 36.9948 22.7629 37.0078 24.8203C36.6158 24.8115 36.2252 24.7854 35.8359 24.7422C35.7981 22.3655 35.8372 19.9957 35.9531 17.6328C36.0117 17.5839 36.0769 17.5449 36.1484 17.5156C38.3104 17.5026 40.4718 17.4635 42.6328 17.3984C42.9448 16.643 43.4916 16.1743 44.2734 15.9922Z" fill="white"/>
<path opacity="0.943" fill-rule="evenodd" clip-rule="evenodd" d="M18.5703 20.9922C19.5078 21.0578 20.1589 21.5265 20.5234 22.3984C22.0853 22.4635 23.6478 22.5026 25.2109 22.5156C25.3021 22.6068 25.3932 22.6979 25.4844 22.7891C25.5365 24.013 25.5365 25.237 25.4844 26.4609C25.1459 26.6432 24.8073 26.8255 24.4688 27.0078C24.353 25.9003 24.3139 24.7805 24.3516 23.6484C23.0752 23.6354 21.7992 23.6484 20.5234 23.6875C20.0025 24.8518 19.1171 25.2684 17.8672 24.9375C16.7131 24.366 16.3355 23.4676 16.7344 22.2422C17.1058 21.4663 17.7178 21.0497 18.5703 20.9922Z" fill="white"/>
<path opacity="0.943" fill-rule="evenodd" clip-rule="evenodd" d="M49.2734 20.9922C50.9593 21.2591 51.5973 22.2227 51.1875 23.8828C50.5408 24.9791 49.6163 25.3047 48.4141 24.8594C47.9075 24.6133 47.5689 24.2227 47.3984 23.6875C46.1226 23.6484 44.8466 23.6354 43.5703 23.6484C43.608 24.7805 43.5689 25.9003 43.4531 27.0078C43.1146 26.8255 42.776 26.6432 42.4375 26.4609C42.3854 25.237 42.3854 24.013 42.4375 22.7891C42.5287 22.6979 42.6198 22.6068 42.7109 22.5156C44.2741 22.5026 45.8366 22.4635 47.3984 22.3984C47.7506 21.5472 48.3756 21.0784 49.2734 20.9922Z" fill="white"/>
<path opacity="0.974" fill-rule="evenodd" clip-rule="evenodd" d="M32.3203 25.6797C37.1391 25.3293 41.4881 26.5663 45.3672 29.3907C46.8931 30.584 48.1562 32.0033 49.1562 33.6485C49.3125 33.8568 49.3125 34.0651 49.1562 34.2735C46.6285 38.1517 43.0998 40.6386 38.5703 41.7344C32.8928 42.9998 27.6584 42.0102 22.8672 38.7656C21.1962 37.5378 19.829 36.0403 18.7656 34.2735C18.664 34.1278 18.6379 33.9715 18.6875 33.8047C20.8788 30.2657 23.9648 27.8567 27.9453 26.5782C29.3851 26.1346 30.8434 25.8351 32.3203 25.6797ZM32.7109 27.086C32.7891 27.086 32.8672 27.086 32.9453 27.086C32.9453 27.8932 32.9453 28.7006 32.9453 29.5078C30.5273 30.2478 29.3685 31.8884 29.4688 34.4297C29.8724 36.7084 31.2135 38.0495 33.4922 38.4531C36.0335 38.5534 37.6741 37.3946 38.4141 34.9766C39.223 34.9507 40.0303 34.9767 40.8359 35.0547C40.227 37.8121 38.5863 39.6481 35.9141 40.5625C32.8448 41.2757 30.3318 40.4032 28.375 37.9453C26.6563 35.2631 26.6563 32.5807 28.375 29.8985C29.487 28.4382 30.9323 27.5007 32.7109 27.086ZM35.0547 27.086C37.6733 27.582 39.4832 29.0664 40.4844 31.5391C40.626 31.9496 40.7432 32.3663 40.8359 32.7891C40.0303 32.8671 39.223 32.8932 38.4141 32.8672C37.9453 31.0964 36.8255 29.9766 35.0547 29.5078C35.0547 28.7006 35.0547 27.8932 35.0547 27.086ZM33.4922 31.9297C35.2483 31.8498 36.0686 32.6832 35.9531 34.4297C35.3617 35.8384 34.3591 36.242 32.9453 35.6406C31.9645 34.9048 31.7431 33.9803 32.2813 32.8672C32.5953 32.4312 32.9989 32.1187 33.4922 31.9297Z" fill="white"/>
<path opacity="0.942" fill-rule="evenodd" clip-rule="evenodd" d="M24.4297 40.9141C24.7853 41.0854 25.1369 41.2677 25.4844 41.4609C25.5365 42.6849 25.5365 43.9088 25.4844 45.1328C25.3932 45.224 25.3021 45.3151 25.2109 45.4062C23.6478 45.4193 22.0853 45.4584 20.5234 45.5234C19.9675 46.7372 19.056 47.1409 17.7891 46.7344C17.0044 46.3645 16.5877 45.7395 16.5391 44.8594C16.799 43.2841 17.7104 42.6591 19.2734 42.9844C19.8984 43.1927 20.3151 43.6094 20.5234 44.2344C21.7992 44.2734 23.0752 44.2865 24.3516 44.2734C24.3269 43.1475 24.353 42.0277 24.4297 40.9141Z" fill="white"/>
<path opacity="0.943" fill-rule="evenodd" clip-rule="evenodd" d="M43.4141 40.9141C43.4623 40.9227 43.5013 40.9488 43.5312 40.9922C43.5703 42.0856 43.5833 43.1794 43.5703 44.2734C44.8466 44.2865 46.1226 44.2734 47.3984 44.2344C47.9194 43.0701 48.8048 42.6534 50.0547 42.9844C51.2092 43.5577 51.5869 44.4561 51.1875 45.6797C50.5766 46.7687 49.6781 47.1202 48.4922 46.7344C47.9776 46.4671 47.613 46.0635 47.3984 45.5234C45.8366 45.4584 44.2741 45.4193 42.7109 45.4062C42.6198 45.3151 42.5287 45.224 42.4375 45.1328C42.3854 43.9088 42.3854 42.6849 42.4375 41.4609C42.7742 41.2864 43.0997 41.1041 43.4141 40.9141Z" fill="white"/>
<path opacity="0.955" fill-rule="evenodd" clip-rule="evenodd" d="M30.9141 43.1016C31.3061 43.1104 31.6967 43.1365 32.0859 43.1797C32.1237 45.5563 32.0847 47.9261 31.9687 50.2891C31.9101 50.338 31.845 50.377 31.7734 50.4062C29.6115 50.4193 27.4501 50.4584 25.2891 50.5234C24.517 51.9827 23.4233 52.2822 22.0078 51.4219C21.4197 50.8195 21.2243 50.1034 21.4219 49.2734C21.9248 48.1041 22.7972 47.6744 24.0391 47.9844C24.6908 48.2219 25.1335 48.6646 25.3672 49.3125C27.2088 49.3771 29.0448 49.3641 30.875 49.2734C30.9141 47.2163 30.9271 45.159 30.9141 43.1016Z" fill="white"/>
<path opacity="0.955" fill-rule="evenodd" clip-rule="evenodd" d="M36.3047 43.1016C36.5391 43.1016 36.7734 43.1016 37.0078 43.1016C36.9948 45.159 37.0078 47.2163 37.0469 49.2734C38.8771 49.3641 40.713 49.3771 42.5547 49.3125C43.2997 47.863 44.3934 47.5245 45.8359 48.2969C46.464 48.8794 46.6853 49.5955 46.5 50.4453C46.1711 51.3531 45.52 51.8479 44.5469 51.9297C43.6091 51.8638 42.9711 51.3951 42.6328 50.5234C40.4718 50.4584 38.3104 50.4193 36.1484 50.4062C36.0769 50.377 36.0117 50.338 35.9531 50.2891C35.8372 47.9261 35.7981 45.5563 35.8359 43.1797C36.0105 43.2027 36.1668 43.1766 36.3047 43.1016Z" fill="white"/>
<defs>
<linearGradient id="paint0_linear_1_148" x1="34" y1="0" x2="34" y2="68" gradientUnits="userSpaceOnUse">
<stop stop-color="#188DCD"/>
<stop offset="1" stop-color="#29BCEE"/>
</linearGradient>
<clipPath id="clip0_1_148">
<rect width="40" height="40" fill="white" transform="translate(14 14)"/>
</clipPath>
</defs>
</svg>
