<svg width="68" height="68" viewBox="0 0 68 68" fill="none" xmlns="http://www.w3.org/2000/svg">
<g clip-path="url(#clip0_1_186)">
<path opacity="0.969" fill-rule="evenodd" clip-rule="evenodd" d="M53.9609 17.5547C53.9609 18.0495 53.9609 18.5443 53.9609 19.0391C53.2274 21.0868 51.7952 21.881 49.6641 21.4219C48.7489 21.0927 48.0979 20.4808 47.7109 19.586C46.6705 19.5079 45.6289 19.4818 44.5859 19.5078C44.599 22.1121 44.5859 24.7163 44.5469 27.3203C44.437 27.7167 44.1897 27.9901 43.8047 28.1406C42.8151 28.1927 41.8255 28.1927 40.8359 28.1406C40.4528 27.3353 40.0622 26.5411 39.6641 25.7578C40.4974 25.7578 41.3307 25.7578 42.1641 25.7578C42.151 23.1795 42.1641 20.6014 42.2031 18.0235C42.3716 17.4647 42.7492 17.1653 43.3359 17.125C44.795 17.112 46.2533 17.0729 47.7109 17.0078C48.6364 15.3053 50.0427 14.7193 51.9297 15.25C52.9789 15.6975 53.6559 16.4657 53.9609 17.5547Z" fill="white"/>
<path opacity="0.983" fill-rule="evenodd" clip-rule="evenodd" d="M13.9609 35.3672C13.9609 34.4297 13.9609 33.4922 13.9609 32.5547C14.5487 28.3185 16.6581 25.0763 20.2891 22.8281C24.6812 20.4663 29.0562 20.4923 33.4141 22.9062C37.4071 25.4865 39.4905 29.1715 39.6641 33.9609C39.4117 39.4833 36.8076 43.4286 31.8516 45.7969C26.9828 47.6386 22.5037 46.9615 18.4141 43.7656C15.8897 41.5162 14.4053 38.7168 13.9609 35.3672ZM32.3203 29.5859C33.1045 29.5693 33.8857 29.6083 34.6641 29.7031C36.5594 30.3493 37.3537 31.6644 37.0469 33.6484C36.4646 35.315 35.2797 36.1222 33.4922 36.0703C33.5052 36.5137 33.4921 36.9565 33.4531 37.3984C33.1891 38.11 32.6813 38.3834 31.9297 38.2187C31.6259 38.0451 31.4046 37.7978 31.2656 37.4765C31.2135 35.1328 31.2135 32.789 31.2656 30.4453C31.4727 29.9633 31.8243 29.6768 32.3203 29.5859ZM21.5391 29.664C22.3337 29.5332 22.8416 29.8457 23.0625 30.6015C23.1388 32.898 23.1127 35.1897 22.9844 37.4765C22.5346 38.1997 21.9487 38.343 21.2266 37.9062C20.5528 36.9103 19.8887 35.9077 19.2344 34.8984C19.2083 35.7578 19.1823 36.6172 19.1562 37.4765C18.8931 38.1485 18.4113 38.3959 17.7109 38.2187C17.326 38.0682 17.0786 37.7948 16.9688 37.3984C16.8925 35.0759 16.9185 32.7582 17.0469 30.4453C17.4933 29.7235 18.0792 29.5802 18.8047 30.0156C19.4785 31.0115 20.1425 32.0141 20.7969 33.0234C20.8229 32.164 20.849 31.3047 20.875 30.4453C21.0295 30.122 21.2509 29.8616 21.5391 29.664ZM26.1484 29.664C26.8486 29.5258 27.3304 29.7862 27.5938 30.4453C27.6328 32.294 27.6459 34.143 27.6328 35.9922C28.4179 35.8582 28.9778 36.1447 29.3125 36.8515C29.4127 37.6628 29.0612 38.1445 28.2578 38.2969C27.5505 38.363 26.8474 38.3369 26.1484 38.2187C25.7634 38.0682 25.5161 37.7948 25.4062 37.3984C25.3541 35.1068 25.3541 32.8151 25.4062 30.5234C25.5312 30.1255 25.7786 29.839 26.1484 29.664Z" fill="white"/>
<path opacity="0.971" fill-rule="evenodd" clip-rule="evenodd" d="M53.9609 33.2578C53.9609 33.7526 53.9609 34.2474 53.9609 34.7422C53.2672 36.7043 51.887 37.4985 49.8203 37.125C48.8603 36.8027 48.1572 36.1907 47.7109 35.2891C45.7845 35.2109 43.8575 35.1849 41.9297 35.2109C42.0312 34.4034 42.0312 33.5961 41.9297 32.7891C43.8575 32.8151 45.7845 32.7891 47.7109 32.7109C48.3113 31.4405 49.314 30.7634 50.7188 30.6797C52.3912 30.8051 53.4719 31.6645 53.9609 33.2578Z" fill="white"/>
<path opacity="0.909" fill-rule="evenodd" clip-rule="evenodd" d="M33.4922 31.9297C34.635 31.7571 35.0907 32.2258 34.8594 33.3359C34.4859 33.7129 34.0302 33.8692 33.4922 33.8047C33.4922 33.1797 33.4922 32.5547 33.4922 31.9297Z" fill="white"/>
<path opacity="0.969" fill-rule="evenodd" clip-rule="evenodd" d="M53.9609 48.8828C53.9609 49.3776 53.9609 49.8724 53.9609 50.3672C53.2672 52.3293 51.887 53.1235 49.8203 52.75C48.8603 52.4277 48.1572 51.8157 47.7109 50.9141C46.1491 50.849 44.5866 50.8099 43.0234 50.7969C42.5938 50.6797 42.3203 50.4063 42.2031 49.9766C42.1641 47.3725 42.151 44.7684 42.1641 42.1641C41.3043 42.1771 40.4449 42.1641 39.5859 42.125C40.0634 41.3785 40.4801 40.5973 40.8359 39.7813C41.7474 39.7292 42.6588 39.7292 43.5703 39.7813C43.9795 39.8516 44.279 40.073 44.4688 40.4453C44.5843 43.0967 44.6234 45.753 44.5859 48.4141C45.6289 48.4401 46.6705 48.414 47.7109 48.336C48.3113 47.0656 49.314 46.3885 50.7188 46.3047C52.3919 46.4292 53.4726 47.2885 53.9609 48.8828Z" fill="white"/>
</g>
<rect width="68" height="68" rx="10" fill="url(#paint0_linear_1_186)"/>
<path opacity="0.932" fill-rule="evenodd" clip-rule="evenodd" d="M41.6172 15.2891C41.8116 15.2733 41.994 15.3123 42.1641 15.4062C43.2448 16.487 44.3255 17.5677 45.4063 18.6484C45.6759 19.1925 45.5196 19.531 44.9375 19.6641C44.8104 19.6543 44.6932 19.6152 44.5859 19.5469C43.8698 18.8307 43.1537 18.1146 42.4375 17.3984C42.4115 20.4453 42.3854 23.4922 42.3594 26.5391C41.6905 33.6754 38.3181 39.1051 32.2422 42.8281C28.0771 45.1821 23.663 45.9763 19 45.2109C18.8923 44.8604 18.9835 44.5869 19.2734 44.3906C23.961 44.7615 28.3099 43.7459 32.3203 41.3437C37.8725 37.6252 40.8282 32.4037 41.1875 25.6797C41.2526 22.9449 41.2396 20.2106 41.1484 17.4766C40.4334 18.1525 39.7303 18.8426 39.0391 19.5469C38.2584 19.7816 37.959 19.5081 38.1406 18.7266C39.2913 17.5628 40.4502 16.417 41.6172 15.2891Z" fill="white"/>
<path opacity="0.974" fill-rule="evenodd" clip-rule="evenodd" d="M27.1641 19.7422C27.8251 19.707 28.4761 19.7591 29.1172 19.8985C29.1172 23.0495 29.1172 26.2006 29.1172 29.3516C27.9962 29.3776 26.8764 29.3515 25.7578 29.2735C25.4451 28.0884 24.7029 27.3332 23.5312 27.0078C23.2173 27.0349 23.022 27.2042 22.9453 27.5156C22.9945 27.6635 23.0727 27.7937 23.1797 27.9063C24.4757 28.3688 24.9575 29.2672 24.625 30.6016C24.5406 30.7966 24.4364 30.9789 24.3125 31.1485C23.9339 31.4937 23.5173 31.7802 23.0625 32.0078C22.9184 32.3299 23.0095 32.5773 23.3359 32.75C24.3063 32.6148 25.0224 32.107 25.4844 31.2266C25.5877 30.9815 25.6788 30.7341 25.7578 30.4844C26.8773 30.4453 27.9971 30.4323 29.1172 30.4453C29.1302 33.5704 29.1172 36.6954 29.0781 39.8203C27.4395 40.3592 26.1375 39.9165 25.1719 38.4922C24.9484 37.9082 24.753 37.3223 24.5859 36.7344C24.4899 36.6734 24.3858 36.6343 24.2734 36.6172C23.4441 37.1145 22.6107 37.1275 21.7734 36.6563C21.0843 36.0731 20.8499 35.344 21.0703 34.4688C21.0231 34.276 20.9189 34.1197 20.7578 34C19.3303 34.069 18.497 33.4049 18.2578 32.0078C18.3273 31.1963 18.7049 30.5713 19.3906 30.1328C19.4427 29.9766 19.4427 29.8203 19.3906 29.6641C18.1995 28.781 17.9912 27.7133 18.7656 26.461C19.2965 25.9454 19.9345 25.7241 20.6797 25.7969C21.079 25.5382 21.1831 25.1867 20.9922 24.7422C21.0443 23.4922 21.6953 22.8412 22.9453 22.7891C23.4315 22.7776 23.8742 22.9078 24.2734 23.1797C24.531 23.1174 24.7003 22.9611 24.7812 22.711C24.9303 21.1955 25.7246 20.2059 27.1641 19.7422Z" fill="white"/>
<path opacity="0.977" fill-rule="evenodd" clip-rule="evenodd" d="M45.0547 20.9141C46.4351 20.901 47.8153 20.9141 49.1953 20.9531C49.433 20.9964 49.5762 21.1397 49.625 21.3828C49.6771 31.6432 49.6771 41.9037 49.625 52.1641C49.5762 52.4072 49.433 52.5504 49.1953 52.5937C47.8151 52.6459 46.4349 52.6459 45.0547 52.5937C44.8854 52.5287 44.7682 52.4115 44.7031 52.2422C44.651 41.9297 44.651 31.6172 44.7031 21.3047C44.7832 21.1338 44.9004 21.0036 45.0547 20.9141Z" fill="white"/>
<path opacity="0.951" fill-rule="evenodd" clip-rule="evenodd" d="M30.1328 21.6953C30.4145 21.6727 30.688 21.6988 30.9531 21.7734C31.1512 22.3416 31.3334 22.9145 31.5 23.4922C31.5619 23.6552 31.6531 23.7985 31.7734 23.9219C32.5095 24.2163 33.1866 24.607 33.8047 25.0937C34.5407 25.043 35.2699 24.9259 35.9922 24.7422C36.0703 24.7682 36.1484 24.7943 36.2266 24.8203C36.6383 25.5137 37.0289 26.2169 37.3984 26.9297C37.0065 27.4503 36.5768 27.9452 36.1094 28.4141C36.0225 28.5617 35.9574 28.718 35.9141 28.8828C35.9983 29.6644 36.0113 30.4456 35.9531 31.2266C36.4523 31.8162 36.934 32.4152 37.3984 33.0234C37.0289 33.7362 36.6383 34.4394 36.2266 35.1328C36.1615 35.1588 36.0963 35.1849 36.0313 35.2109C35.3842 35.0607 34.7331 34.9305 34.0781 34.8203C33.9245 34.8236 33.7812 34.8627 33.6484 34.9375C32.9755 35.3975 32.2853 35.8272 31.5781 36.2266C31.3561 36.8927 31.1347 37.5568 30.9141 38.2187C30.6549 38.2577 30.3945 38.2707 30.1328 38.2578C30.1068 37.0067 30.1329 35.7567 30.2109 34.5078C32.6484 33.9714 33.9766 32.461 34.1953 29.9766C33.9637 27.4535 32.6095 25.943 30.1328 25.4453C30.1328 24.1953 30.1328 22.9453 30.1328 21.6953Z" fill="white"/>
<path opacity="0.988" fill-rule="evenodd" clip-rule="evenodd" d="M36.6172 40.8359C38.0497 40.8229 39.482 40.8359 40.9141 40.875C41.0573 40.9141 41.1484 41.0052 41.1875 41.1484C41.2396 44.8724 41.2396 48.5963 41.1875 52.3203C41.0926 52.4413 40.9755 52.5324 40.8359 52.5938C39.4557 52.6459 38.0755 52.6459 36.6953 52.5938C36.5558 52.5324 36.4386 52.4413 36.3437 52.3203C36.2916 48.5963 36.2916 44.8724 36.3437 41.1484C36.3976 41.0039 36.4887 40.8997 36.6172 40.8359Z" fill="white"/>
<path opacity="0.969" fill-rule="evenodd" clip-rule="evenodd" d="M28.2578 46.3828C29.6903 46.3698 31.1226 46.3828 32.5547 46.4219C32.6262 46.4511 32.6914 46.4902 32.75 46.5391C32.8787 48.4593 32.9047 50.3864 32.8281 52.3203C32.763 52.3854 32.6979 52.4506 32.6328 52.5156C31.2076 52.6438 29.7753 52.6698 28.3359 52.5938C28.0802 52.5203 27.937 52.351 27.9062 52.0859C27.8541 50.3672 27.8541 48.6484 27.9062 46.9297C27.9176 46.6724 28.0348 46.4902 28.2578 46.3828Z" fill="white"/>
<path opacity="0.965" fill-rule="evenodd" clip-rule="evenodd" d="M19.8203 47.4766C21.2789 47.4635 22.7372 47.4766 24.1953 47.5156C24.2865 47.6068 24.3776 47.6979 24.4688 47.7891C24.5209 49.2734 24.5209 50.7578 24.4688 52.2422C24.4324 52.354 24.3673 52.4451 24.2735 52.5156C22.8222 52.6438 21.3638 52.6699 19.8985 52.5938C19.7867 52.5574 19.6955 52.4923 19.625 52.3984C19.4977 50.8931 19.4717 49.3827 19.5469 47.8672C19.6248 47.7248 19.7159 47.5945 19.8203 47.4766Z" fill="white"/>
<defs>
<linearGradient id="paint0_linear_1_186" x1="34" y1="0" x2="34" y2="68" gradientUnits="userSpaceOnUse">
<stop stop-color="#188DCD"/>
<stop offset="1" stop-color="#29BCEE"/>
</linearGradient>
<clipPath id="clip0_1_186">
<rect width="40" height="40" fill="white" transform="translate(14 14)"/>
</clipPath>
</defs>
</svg>
