<svg width="68" height="68" viewBox="0 0 68 68" fill="none" xmlns="http://www.w3.org/2000/svg">
<g clip-path="url(#clip0_1_220)">
<path opacity="0.969" fill-rule="evenodd" clip-rule="evenodd" d="M53.9609 17.5547C53.9609 18.0495 53.9609 18.5443 53.9609 19.0391C53.2274 21.0868 51.7952 21.881 49.6641 21.4219C48.7489 21.0927 48.0979 20.4808 47.7109 19.586C46.6705 19.5079 45.6289 19.4818 44.5859 19.5078C44.599 22.1121 44.5859 24.7163 44.5469 27.3203C44.437 27.7167 44.1897 27.9901 43.8047 28.1406C42.8151 28.1927 41.8255 28.1927 40.8359 28.1406C40.4528 27.3353 40.0622 26.5411 39.6641 25.7578C40.4974 25.7578 41.3307 25.7578 42.1641 25.7578C42.151 23.1795 42.1641 20.6014 42.2031 18.0235C42.3716 17.4647 42.7492 17.1653 43.3359 17.125C44.795 17.112 46.2533 17.0729 47.7109 17.0078C48.6364 15.3053 50.0427 14.7193 51.9297 15.25C52.9789 15.6975 53.6559 16.4657 53.9609 17.5547Z" fill="white"/>
<path opacity="0.983" fill-rule="evenodd" clip-rule="evenodd" d="M13.9609 35.3672C13.9609 34.4297 13.9609 33.4922 13.9609 32.5547C14.5487 28.3185 16.6581 25.0763 20.2891 22.8281C24.6812 20.4663 29.0562 20.4923 33.4141 22.9062C37.4071 25.4865 39.4905 29.1715 39.6641 33.9609C39.4117 39.4833 36.8076 43.4286 31.8516 45.7969C26.9828 47.6386 22.5037 46.9615 18.4141 43.7656C15.8897 41.5162 14.4053 38.7168 13.9609 35.3672ZM32.3203 29.5859C33.1045 29.5693 33.8857 29.6083 34.6641 29.7031C36.5594 30.3493 37.3537 31.6644 37.0469 33.6484C36.4646 35.315 35.2797 36.1222 33.4922 36.0703C33.5052 36.5137 33.4921 36.9565 33.4531 37.3984C33.1891 38.11 32.6813 38.3834 31.9297 38.2187C31.6259 38.0451 31.4046 37.7978 31.2656 37.4765C31.2135 35.1328 31.2135 32.789 31.2656 30.4453C31.4727 29.9633 31.8243 29.6768 32.3203 29.5859ZM21.5391 29.664C22.3337 29.5332 22.8416 29.8457 23.0625 30.6015C23.1388 32.898 23.1127 35.1897 22.9844 37.4765C22.5346 38.1997 21.9487 38.343 21.2266 37.9062C20.5528 36.9103 19.8887 35.9077 19.2344 34.8984C19.2083 35.7578 19.1823 36.6172 19.1562 37.4765C18.8931 38.1485 18.4113 38.3959 17.7109 38.2187C17.326 38.0682 17.0786 37.7948 16.9688 37.3984C16.8925 35.0759 16.9185 32.7582 17.0469 30.4453C17.4933 29.7235 18.0792 29.5802 18.8047 30.0156C19.4785 31.0115 20.1425 32.0141 20.7969 33.0234C20.8229 32.164 20.849 31.3047 20.875 30.4453C21.0295 30.122 21.2509 29.8616 21.5391 29.664ZM26.1484 29.664C26.8486 29.5258 27.3304 29.7862 27.5938 30.4453C27.6328 32.294 27.6459 34.143 27.6328 35.9922C28.4179 35.8582 28.9778 36.1447 29.3125 36.8515C29.4127 37.6628 29.0612 38.1445 28.2578 38.2969C27.5505 38.363 26.8474 38.3369 26.1484 38.2187C25.7634 38.0682 25.5161 37.7948 25.4062 37.3984C25.3541 35.1068 25.3541 32.8151 25.4062 30.5234C25.5312 30.1255 25.7786 29.839 26.1484 29.664Z" fill="white"/>
<path opacity="0.971" fill-rule="evenodd" clip-rule="evenodd" d="M53.9609 33.2578C53.9609 33.7526 53.9609 34.2474 53.9609 34.7422C53.2672 36.7043 51.887 37.4985 49.8203 37.125C48.8603 36.8027 48.1572 36.1907 47.7109 35.2891C45.7845 35.2109 43.8575 35.1849 41.9297 35.2109C42.0312 34.4034 42.0312 33.5961 41.9297 32.7891C43.8575 32.8151 45.7845 32.7891 47.7109 32.7109C48.3113 31.4405 49.314 30.7634 50.7188 30.6797C52.3912 30.8051 53.4719 31.6645 53.9609 33.2578Z" fill="white"/>
<path opacity="0.909" fill-rule="evenodd" clip-rule="evenodd" d="M33.4922 31.9297C34.635 31.7571 35.0907 32.2258 34.8594 33.3359C34.4859 33.7129 34.0302 33.8692 33.4922 33.8047C33.4922 33.1797 33.4922 32.5547 33.4922 31.9297Z" fill="white"/>
<path opacity="0.969" fill-rule="evenodd" clip-rule="evenodd" d="M53.9609 48.8828C53.9609 49.3776 53.9609 49.8724 53.9609 50.3672C53.2672 52.3293 51.887 53.1235 49.8203 52.75C48.8603 52.4277 48.1572 51.8157 47.7109 50.9141C46.1491 50.849 44.5866 50.8099 43.0234 50.7969C42.5938 50.6797 42.3203 50.4063 42.2031 49.9766C42.1641 47.3725 42.151 44.7684 42.1641 42.1641C41.3043 42.1771 40.4449 42.1641 39.5859 42.125C40.0634 41.3785 40.4801 40.5973 40.8359 39.7813C41.7474 39.7292 42.6588 39.7292 43.5703 39.7813C43.9795 39.8516 44.279 40.073 44.4688 40.4453C44.5843 43.0967 44.6234 45.753 44.5859 48.4141C45.6289 48.4401 46.6705 48.414 47.7109 48.336C48.3113 47.0656 49.314 46.3885 50.7188 46.3047C52.3919 46.4292 53.4726 47.2885 53.9609 48.8828Z" fill="white"/>
</g>
<rect width="68" height="68" rx="10" fill="url(#paint0_linear_1_220)"/>
<g clip-path="url(#clip1_1_220)">
<path opacity="0.976" fill-rule="evenodd" clip-rule="evenodd" d="M33.4141 13.9609C33.7787 13.9609 34.1432 13.9609 34.5078 13.9609C35.8416 14.6062 36.1671 15.5958 35.4844 16.9297C35.2505 17.2154 34.9641 17.4237 34.625 17.5547C34.5859 19.3253 34.5729 21.0962 34.5859 22.8672C35.1849 22.8672 35.7838 22.8672 36.3828 22.8672C36.4218 22.399 36.4609 21.9302 36.5 21.4609C36.5566 21.2696 36.6348 21.0873 36.7344 20.9141C37.3552 20.2933 37.9802 19.6683 38.6094 19.0391C38.4179 18.4242 38.47 17.8252 38.7656 17.2422C39.4611 16.3426 40.3334 16.1212 41.3828 16.5781C42.2583 17.2034 42.5057 18.0237 42.125 19.0391C41.7689 19.7057 41.2091 20.0443 40.4453 20.0547C40.1469 20.0454 39.8604 20.0064 39.5859 19.9375C39 20.5234 38.4141 21.1094 37.8281 21.6953C37.7804 22.0856 37.7413 22.4762 37.7109 22.8672C39.7945 22.8541 41.8777 22.8672 43.9609 22.9062C44.4836 23.0645 44.783 23.4161 44.8594 23.9609C44.8984 26.0441 44.9115 28.1274 44.8984 30.2109C45.3473 30.2335 45.79 30.1945 46.2266 30.0938C46.8125 29.5078 47.3984 28.9219 47.9844 28.3359C47.589 26.7815 48.1749 25.87 49.7422 25.6016C51.375 25.9502 51.9088 26.9137 51.3438 28.4922C50.9639 29.086 50.417 29.3985 49.7031 29.4297C49.4292 29.359 49.1558 29.3199 48.8828 29.3125C48.2536 29.9417 47.6286 30.5667 47.0078 31.1875C46.8346 31.2871 46.6523 31.3652 46.4609 31.4219C45.9417 31.4868 45.4209 31.5259 44.8984 31.5391C44.8984 32.138 44.8984 32.737 44.8984 33.3359C46.7216 33.349 48.5445 33.3359 50.3672 33.2969C50.8058 32.3161 51.561 31.9255 52.6328 32.125C53.2722 32.3609 53.7149 32.7905 53.9609 33.4141C53.9609 33.7787 53.9609 34.1432 53.9609 34.5078C53.4221 35.6648 52.5366 36.0424 51.3047 35.6406C50.8552 35.4256 50.5427 35.0871 50.3672 34.625C48.5445 34.5859 46.7216 34.5729 44.8984 34.5859C44.8738 35.2047 44.8998 35.8166 44.9766 36.4219C45.4713 36.4479 45.9662 36.474 46.4609 36.5C46.6523 36.5566 46.8346 36.6348 47.0078 36.7344C47.6286 37.3552 48.2536 37.9802 48.8828 38.6094C49.4932 38.5141 50.0922 38.5662 50.6797 38.7656C51.5793 39.4611 51.8007 40.3334 51.3438 41.3828C50.7184 42.2583 49.8981 42.5057 48.8828 42.125C48.2048 41.7595 47.8663 41.1866 47.8672 40.4062C47.8785 40.1209 47.9176 39.8475 47.9844 39.5859C47.3984 39 46.8125 38.4141 46.2266 37.8281C45.7881 37.7398 45.3454 37.7007 44.8984 37.7109C44.9115 39.7945 44.8984 41.8777 44.8594 43.9609C44.783 44.5058 44.4836 44.8573 43.9609 45.0156C41.8777 45.0547 39.7945 45.0677 37.7109 45.0547C37.6984 45.4505 37.7375 45.8411 37.8281 46.2266C38.4141 46.8125 39 47.3984 39.5859 47.9844C40.3348 47.7567 41.0379 47.8609 41.6953 48.2969C42.3586 49.0101 42.4758 49.8044 42.0469 50.6797C41.3514 51.5793 40.4791 51.8007 39.4297 51.3438C38.8243 50.9538 38.5118 50.394 38.4922 49.6641C38.558 49.4025 38.5971 49.1421 38.6094 48.8828C37.9802 48.2536 37.3552 47.6286 36.7344 47.0078C36.471 46.3864 36.3538 45.7353 36.3828 45.0547C35.7838 45.0547 35.1849 45.0547 34.5859 45.0547C34.5729 46.8257 34.5859 48.5966 34.625 50.3672C35.6058 50.8058 35.9964 51.561 35.7969 52.6328C35.6252 53.2595 35.2476 53.7023 34.6641 53.9609C34.1953 53.9609 33.7266 53.9609 33.2578 53.9609C32.0423 53.243 31.7689 52.2534 32.4375 50.9922C32.6713 50.7065 32.9578 50.4982 33.2969 50.3672C33.3359 48.5966 33.349 46.8257 33.3359 45.0547C32.737 45.0547 32.138 45.0547 31.5391 45.0547C31.5001 45.5229 31.461 45.9916 31.4219 46.4609C31.3652 46.6523 31.2871 46.8346 31.1875 47.0078C30.5667 47.6286 29.9417 48.2536 29.3125 48.8828C29.4976 49.4969 29.4455 50.0959 29.1562 50.6797C28.5238 51.5343 27.7034 51.7816 26.6953 51.4219C25.6862 50.8327 25.3867 49.9863 25.7969 48.8828C26.1624 48.2048 26.7353 47.8663 27.5156 47.8672C27.8009 47.8785 28.0744 47.9176 28.3359 47.9844C28.9219 47.3984 29.5078 46.8125 30.0938 46.2266C30.1415 45.8363 30.1805 45.4456 30.2109 45.0547C28.1274 45.0677 26.0441 45.0547 23.9609 45.0156C23.4383 44.8573 23.1388 44.5058 23.0625 43.9609C23.0234 41.8777 23.0104 39.7945 23.0234 37.7109C22.5746 37.6884 22.1319 37.7274 21.6953 37.8281C21.1094 38.4141 20.5234 39 19.9375 39.5859C20.1847 40.3806 20.0545 41.1098 19.5469 41.7734C18.7743 42.412 17.954 42.4771 17.0859 41.9688C16.3244 41.2404 16.1551 40.3941 16.5781 39.4297C16.8377 38.9938 17.2153 38.7204 17.7109 38.6094C18.1565 38.5737 18.5992 38.5737 19.0391 38.6094C19.6683 37.9802 20.2933 37.3552 20.9141 36.7344C21.0873 36.6348 21.2696 36.5566 21.4609 36.5C21.9802 36.4351 22.501 36.396 23.0234 36.3828C23.0234 35.7838 23.0234 35.1849 23.0234 34.5859C21.2003 34.5729 19.3774 34.5859 17.5547 34.625C17.1391 35.5852 16.4099 35.9758 15.3672 35.7969C14.6832 35.5944 14.2144 35.1647 13.9609 34.5078C13.9609 34.1432 13.9609 33.7787 13.9609 33.4141C14.6062 32.0802 15.5958 31.7548 16.9297 32.4375C17.2154 32.6713 17.4237 32.9578 17.5547 33.2969C19.3774 33.3359 21.2003 33.349 23.0234 33.3359C23.048 32.7172 23.022 32.1052 22.9453 31.5C22.4505 31.474 21.9557 31.4479 21.4609 31.4219C21.2696 31.3652 21.0873 31.2871 20.9141 31.1875C20.2933 30.5667 19.6683 29.9417 19.0391 29.3125C18.425 29.4976 17.826 29.4455 17.2422 29.1562C16.3877 28.5244 16.1403 27.7041 16.5 26.6953C17.0214 25.7922 17.7897 25.4667 18.8047 25.7188C19.9388 26.2558 20.3164 27.1282 19.9375 28.3359C20.5234 28.9219 21.1094 29.5078 21.6953 30.0938C22.1337 30.1821 22.5765 30.2212 23.0234 30.2109C23.0104 28.1274 23.0234 26.0441 23.0625 23.9609C23.1388 23.4161 23.4383 23.0645 23.9609 22.9062C26.0441 22.8672 28.1274 22.8541 30.2109 22.8672C30.2234 22.4714 30.1844 22.0808 30.0938 21.6953C29.5078 21.1094 28.9219 20.5234 28.3359 19.9375C27.5853 20.1721 26.8822 20.0679 26.2266 19.625C25.5202 18.8472 25.4291 18.0008 25.9531 17.0859C26.6815 16.3244 27.5278 16.1551 28.4922 16.5781C29.086 16.9579 29.3985 17.5048 29.4297 18.2188C29.359 18.4926 29.3199 18.7661 29.3125 19.0391C29.9417 19.6683 30.5667 20.2933 31.1875 20.9141C31.4509 21.5355 31.568 22.1866 31.5391 22.8672C32.138 22.8672 32.737 22.8672 33.3359 22.8672C33.349 21.0962 33.3359 19.3253 33.2969 17.5547C32.2384 17.0383 31.8738 16.2049 32.2031 15.0547C32.4759 14.5339 32.8796 14.1694 33.4141 13.9609ZM30.7578 26.9297C31.3397 26.9499 31.7434 27.2364 31.9688 27.7891C32.0788 28.067 32.1569 28.3534 32.2031 28.6484C32.2552 32.1901 32.2552 35.7318 32.2031 39.2734C32.1476 39.9973 31.822 40.5573 31.2266 40.9531C30.7946 41.0173 30.443 40.8741 30.1719 40.5234C29.8572 39.9937 29.6879 39.4209 29.6641 38.8047C28.7969 38.5856 28.1328 38.0909 27.6719 37.3203C26.5363 35.186 26.4841 33.0246 27.5156 30.8359C27.9682 29.927 28.6844 29.3541 29.6641 29.1172C29.6879 28.5011 29.8571 27.9282 30.1719 27.3984C30.337 27.1937 30.5323 27.0374 30.7578 26.9297ZM36.6953 26.9297C37.4113 26.9545 37.867 27.3191 38.0625 28.0234C38.153 28.3842 38.2181 28.7487 38.2578 29.1172C39.125 29.3363 39.7891 29.831 40.25 30.6016C41.3856 32.7359 41.4377 34.8973 40.4062 37.0859C39.9537 37.9948 39.2375 38.5678 38.2578 38.8047C38.234 39.4208 38.0648 39.9937 37.75 40.5234C36.9863 41.2334 36.3873 41.1032 35.9531 40.1328C35.8431 39.8549 35.765 39.5684 35.7188 39.2734C35.6666 35.7318 35.6666 32.1901 35.7188 28.6484C35.7845 27.917 36.11 27.3441 36.6953 26.9297Z" fill="white"/>
</g>
<defs>
<linearGradient id="paint0_linear_1_220" x1="34" y1="0" x2="34" y2="68" gradientUnits="userSpaceOnUse">
<stop stop-color="#188DCD"/>
<stop offset="1" stop-color="#29BCEE"/>
</linearGradient>
<clipPath id="clip0_1_220">
<rect width="40" height="40" fill="white" transform="translate(14 14)"/>
</clipPath>
<clipPath id="clip1_1_220">
<rect width="40" height="40" fill="white" transform="translate(14 14)"/>
</clipPath>
</defs>
</svg>
