<svg width="68" height="68" viewBox="0 0 68 68" fill="none" xmlns="http://www.w3.org/2000/svg">
<g clip-path="url(#clip0_1_242)">
<path opacity="0.969" fill-rule="evenodd" clip-rule="evenodd" d="M53.9609 17.5547C53.9609 18.0495 53.9609 18.5443 53.9609 19.0391C53.2274 21.0868 51.7952 21.881 49.6641 21.4219C48.7489 21.0927 48.0979 20.4808 47.7109 19.586C46.6705 19.5079 45.6289 19.4818 44.5859 19.5078C44.599 22.1121 44.5859 24.7163 44.5469 27.3203C44.437 27.7167 44.1897 27.9901 43.8047 28.1406C42.8151 28.1927 41.8255 28.1927 40.8359 28.1406C40.4528 27.3353 40.0622 26.5411 39.6641 25.7578C40.4974 25.7578 41.3307 25.7578 42.1641 25.7578C42.151 23.1795 42.1641 20.6014 42.2031 18.0235C42.3716 17.4647 42.7492 17.1653 43.3359 17.125C44.795 17.112 46.2533 17.0729 47.7109 17.0078C48.6364 15.3053 50.0427 14.7193 51.9297 15.25C52.9789 15.6975 53.6559 16.4657 53.9609 17.5547Z" fill="white"/>
<path opacity="0.983" fill-rule="evenodd" clip-rule="evenodd" d="M13.9609 35.3672C13.9609 34.4297 13.9609 33.4922 13.9609 32.5547C14.5487 28.3185 16.6581 25.0763 20.2891 22.8281C24.6812 20.4663 29.0562 20.4923 33.4141 22.9062C37.4071 25.4865 39.4905 29.1715 39.6641 33.9609C39.4117 39.4833 36.8076 43.4286 31.8516 45.7969C26.9828 47.6386 22.5037 46.9615 18.4141 43.7656C15.8897 41.5162 14.4053 38.7168 13.9609 35.3672ZM32.3203 29.5859C33.1045 29.5693 33.8857 29.6083 34.6641 29.7031C36.5594 30.3493 37.3537 31.6644 37.0469 33.6484C36.4646 35.315 35.2797 36.1222 33.4922 36.0703C33.5052 36.5137 33.4921 36.9565 33.4531 37.3984C33.1891 38.11 32.6813 38.3834 31.9297 38.2187C31.6259 38.0451 31.4046 37.7978 31.2656 37.4765C31.2135 35.1328 31.2135 32.789 31.2656 30.4453C31.4727 29.9633 31.8243 29.6768 32.3203 29.5859ZM21.5391 29.664C22.3337 29.5332 22.8416 29.8457 23.0625 30.6015C23.1388 32.898 23.1127 35.1897 22.9844 37.4765C22.5346 38.1997 21.9487 38.343 21.2266 37.9062C20.5528 36.9103 19.8887 35.9077 19.2344 34.8984C19.2083 35.7578 19.1823 36.6172 19.1562 37.4765C18.8931 38.1485 18.4113 38.3959 17.7109 38.2187C17.326 38.0682 17.0786 37.7948 16.9688 37.3984C16.8925 35.0759 16.9185 32.7582 17.0469 30.4453C17.4933 29.7235 18.0792 29.5802 18.8047 30.0156C19.4785 31.0115 20.1425 32.0141 20.7969 33.0234C20.8229 32.164 20.849 31.3047 20.875 30.4453C21.0295 30.122 21.2509 29.8616 21.5391 29.664ZM26.1484 29.664C26.8486 29.5258 27.3304 29.7862 27.5938 30.4453C27.6328 32.294 27.6459 34.143 27.6328 35.9922C28.4179 35.8582 28.9778 36.1447 29.3125 36.8515C29.4127 37.6628 29.0612 38.1445 28.2578 38.2969C27.5505 38.363 26.8474 38.3369 26.1484 38.2187C25.7634 38.0682 25.5161 37.7948 25.4062 37.3984C25.3541 35.1068 25.3541 32.8151 25.4062 30.5234C25.5312 30.1255 25.7786 29.839 26.1484 29.664Z" fill="white"/>
<path opacity="0.971" fill-rule="evenodd" clip-rule="evenodd" d="M53.9609 33.2578C53.9609 33.7526 53.9609 34.2474 53.9609 34.7422C53.2672 36.7043 51.887 37.4985 49.8203 37.125C48.8603 36.8027 48.1572 36.1907 47.7109 35.2891C45.7845 35.2109 43.8575 35.1849 41.9297 35.2109C42.0312 34.4034 42.0312 33.5961 41.9297 32.7891C43.8575 32.8151 45.7845 32.7891 47.7109 32.7109C48.3113 31.4405 49.314 30.7634 50.7188 30.6797C52.3912 30.8051 53.4719 31.6645 53.9609 33.2578Z" fill="white"/>
<path opacity="0.909" fill-rule="evenodd" clip-rule="evenodd" d="M33.4922 31.9297C34.635 31.7571 35.0907 32.2258 34.8594 33.3359C34.4859 33.7129 34.0302 33.8692 33.4922 33.8047C33.4922 33.1797 33.4922 32.5547 33.4922 31.9297Z" fill="white"/>
<path opacity="0.969" fill-rule="evenodd" clip-rule="evenodd" d="M53.9609 48.8828C53.9609 49.3776 53.9609 49.8724 53.9609 50.3672C53.2672 52.3293 51.887 53.1235 49.8203 52.75C48.8603 52.4277 48.1572 51.8157 47.7109 50.9141C46.1491 50.849 44.5866 50.8099 43.0234 50.7969C42.5938 50.6797 42.3203 50.4063 42.2031 49.9766C42.1641 47.3725 42.151 44.7684 42.1641 42.1641C41.3043 42.1771 40.4449 42.1641 39.5859 42.125C40.0634 41.3785 40.4801 40.5973 40.8359 39.7813C41.7474 39.7292 42.6588 39.7292 43.5703 39.7813C43.9795 39.8516 44.279 40.073 44.4688 40.4453C44.5843 43.0967 44.6234 45.753 44.5859 48.4141C45.6289 48.4401 46.6705 48.414 47.7109 48.336C48.3113 47.0656 49.314 46.3885 50.7188 46.3047C52.3919 46.4292 53.4726 47.2885 53.9609 48.8828Z" fill="white"/>
</g>
<rect width="68" height="68" rx="10" fill="url(#paint0_linear_1_242)"/>
<path opacity="0.98" fill-rule="evenodd" clip-rule="evenodd" d="M17.6328 20.7578C24.2995 20.7448 30.9662 20.7578 37.6328 20.7969C38.2023 20.8975 38.5799 21.223 38.7656 21.7734C38.8047 22.3718 38.8177 22.9708 38.8047 23.5703C35.2629 23.5573 31.7213 23.5703 28.1797 23.6094C27.0647 23.8651 26.4006 24.5552 26.1875 25.6797C26.1484 29.5598 26.1354 33.44 26.1484 37.3203C25.5926 37.2871 25.0457 37.3262 24.5078 37.4375C22.8802 38.8047 21.2526 40.1719 19.625 41.5391C19.6229 40.1778 19.5708 38.8236 19.4688 37.4766C19.4101 37.4277 19.345 37.3886 19.2734 37.3594C18.5916 37.3498 17.9145 37.2977 17.2422 37.2031C16.787 36.9564 16.5135 36.5788 16.4219 36.0703C16.3698 31.3828 16.3698 26.6953 16.4219 22.0078C16.5793 21.3427 16.983 20.926 17.6328 20.7578Z" fill="white"/>
<path opacity="0.975" fill-rule="evenodd" clip-rule="evenodd" d="M28.3359 24.4297C35.6277 24.4167 42.9193 24.4297 50.2109 24.4688C50.9339 24.6449 51.3636 25.1006 51.5 25.8359C51.5521 30.9141 51.5521 35.9922 51.5 41.0703C51.4392 41.7524 51.0877 42.2081 50.4453 42.4375C49.7201 42.5302 48.9909 42.5823 48.2578 42.5938C48.2187 42.6328 48.1797 42.6719 48.1406 42.7109C48.0394 44.1902 47.9873 45.6746 47.9844 47.1641C46.1673 45.6499 44.3573 44.1265 42.5547 42.5938C37.8672 42.5677 33.1797 42.5417 28.4922 42.5156C27.6816 42.4081 27.1998 41.9524 27.0469 41.1484C26.9948 36.0443 26.9948 30.9401 27.0469 25.8359C27.1964 25.1008 27.6261 24.632 28.3359 24.4297ZM36.9297 26.4609C37.1759 26.4187 37.3712 26.4968 37.5156 26.6953C37.5547 27.2937 37.5677 27.8927 37.5547 28.4922C38.0755 28.4922 38.5963 28.4922 39.1172 28.4922C39.1042 27.8927 39.1172 27.2937 39.1562 26.6953C39.4488 26.3777 39.7092 26.4037 39.9375 26.7734C39.9766 27.3458 39.9895 27.9187 39.9766 28.4922C40.4713 28.4922 40.9662 28.4922 41.4609 28.4922C41.448 27.9447 41.4609 27.3978 41.5 26.8516C41.6046 26.5063 41.826 26.4022 42.1641 26.5391C42.2487 26.6301 42.3138 26.7342 42.3594 26.8516C42.3984 27.3978 42.4114 27.9447 42.3984 28.4922C43.7776 28.5692 44.5067 29.2984 44.5859 30.6797C45.1595 30.6667 45.7323 30.6797 46.3047 30.7188C46.6592 30.9552 46.6853 31.2156 46.3828 31.5C45.7845 31.5391 45.1855 31.552 44.5859 31.5391C44.5859 32.0599 44.5859 32.5807 44.5859 33.1016C45.1595 33.0886 45.7323 33.1016 46.3047 33.1406C46.7213 33.401 46.7213 33.6615 46.3047 33.9219C45.7323 33.9609 45.1595 33.9739 44.5859 33.9609C44.5859 34.4557 44.5859 34.9506 44.5859 35.4453C45.1916 35.4144 45.7906 35.4534 46.3828 35.5625C46.694 35.8818 46.642 36.1422 46.2266 36.3438C45.6803 36.3828 45.1334 36.3958 44.5859 36.3828C44.4827 37.8402 43.7015 38.5694 42.2422 38.5703C42.2552 39.1178 42.2422 39.6647 42.2031 40.2109C41.9166 40.7318 41.6302 40.7318 41.3437 40.2109C41.3047 39.6647 41.2917 39.1178 41.3047 38.5703C40.7578 38.5703 40.2109 38.5703 39.6641 38.5703C39.677 39.1699 39.6641 39.7688 39.625 40.3672C39.3259 40.6924 39.0654 40.6663 38.8437 40.2891C38.8047 39.7167 38.7917 39.1438 38.8047 38.5703C38.3359 38.5703 37.8672 38.5703 37.3984 38.5703C37.4114 39.1699 37.3984 39.7688 37.3594 40.3672C37.0602 40.6924 36.7998 40.6663 36.5781 40.2891C36.5391 39.7167 36.5261 39.1438 36.5391 38.5703C35.2408 38.4178 34.5637 37.6887 34.5078 36.3828C33.9343 36.3958 33.3614 36.3828 32.7891 36.3438C32.4827 36.2073 32.4046 35.9859 32.5547 35.6797C32.665 35.5777 32.7952 35.5125 32.9453 35.4844C33.4655 35.4453 33.9863 35.4324 34.5078 35.4453C34.5078 34.9506 34.5078 34.4557 34.5078 33.9609C33.9083 33.9739 33.3093 33.9609 32.7109 33.9219C32.3984 33.6615 32.3984 33.401 32.7109 33.1406C33.3093 33.1016 33.9083 33.0886 34.5078 33.1016C34.5078 32.5807 34.5078 32.0599 34.5078 31.5391C33.9083 31.552 33.3093 31.5391 32.7109 31.5C32.3796 31.2036 32.4056 30.9432 32.7891 30.7188C33.3614 30.6797 33.9343 30.6667 34.5078 30.6797C34.5577 29.2757 35.2868 28.5466 36.6953 28.4922C36.6823 27.8927 36.6953 27.2937 36.7344 26.6953C36.816 26.6271 36.8811 26.549 36.9297 26.4609ZM38.4922 31.3047C39.3016 31.3977 39.8094 31.8404 40.0156 32.6328C40.0905 33.6038 40.0645 34.5674 39.9375 35.5234C39.7031 35.7318 39.4687 35.7318 39.2344 35.5234C39.1288 35.0881 39.0898 34.6455 39.1172 34.1953C38.7266 34.1953 38.3359 34.1953 37.9453 34.1953C37.9678 34.6429 37.9417 35.0856 37.8672 35.5234C37.5941 35.7475 37.3467 35.7215 37.125 35.4453C37.0729 34.4557 37.0729 33.4662 37.125 32.4766C37.3323 31.7869 37.7881 31.3963 38.4922 31.3047ZM41.3047 31.3828C41.6644 31.2952 41.8857 31.4254 41.9687 31.7734C42.0209 32.9453 42.0209 34.1172 41.9687 35.2891C41.8846 35.6496 41.6633 35.7668 41.3047 35.6406C41.2109 35.5701 41.1457 35.479 41.1094 35.3672C41.0573 34.1432 41.0573 32.9193 41.1094 31.6953C41.1611 31.5794 41.2262 31.4752 41.3047 31.3828Z" fill="white"/>
<path opacity="0.959" fill-rule="evenodd" clip-rule="evenodd" d="M36.3047 29.3516C38.4663 29.3385 40.6277 29.3516 42.7891 29.3906C43.162 29.492 43.4355 29.7134 43.6094 30.0547C43.6615 32.3724 43.6615 34.6901 43.6094 37.0078C43.4196 37.3802 43.1201 37.6016 42.7109 37.6719C40.6016 37.724 38.4922 37.724 36.3828 37.6719C35.8677 37.6256 35.5421 37.3521 35.4063 36.8516C35.3541 34.6381 35.3541 32.4245 35.4063 30.2109C35.546 29.7454 35.8455 29.459 36.3047 29.3516ZM38.4922 31.3047C37.7881 31.3963 37.3323 31.7869 37.125 32.4766C37.0729 33.4662 37.0729 34.4557 37.125 35.4453C37.3467 35.7215 37.5941 35.7475 37.8672 35.5234C37.9417 35.0856 37.9678 34.6429 37.9453 34.1953C38.3359 34.1953 38.7266 34.1953 39.1172 34.1953C39.0898 34.6455 39.1288 35.0881 39.2344 35.5234C39.4688 35.7318 39.7031 35.7318 39.9375 35.5234C40.0645 34.5674 40.0906 33.6038 40.0156 32.6328C39.8094 31.8404 39.3016 31.3977 38.4922 31.3047ZM41.3047 31.3828C41.2263 31.4752 41.1611 31.5794 41.1094 31.6953C41.0573 32.9193 41.0573 34.1432 41.1094 35.3672C41.1457 35.479 41.2109 35.5701 41.3047 35.6406C41.6633 35.7668 41.8846 35.6496 41.9688 35.2891C42.0209 34.1172 42.0209 32.9453 41.9688 31.7734C41.8857 31.4254 41.6644 31.2952 41.3047 31.3828Z" fill="white"/>
<path opacity="0.86" fill-rule="evenodd" clip-rule="evenodd" d="M38.2578 32.2422C39.0217 32.2018 39.3082 32.5664 39.1172 33.3359C38.7266 33.3359 38.3359 33.3359 37.9453 33.3359C37.8753 32.9129 37.9795 32.5483 38.2578 32.2422Z" fill="white"/>
<defs>
<linearGradient id="paint0_linear_1_242" x1="34" y1="0" x2="34" y2="68" gradientUnits="userSpaceOnUse">
<stop stop-color="#188DCD"/>
<stop offset="1" stop-color="#29BCEE"/>
</linearGradient>
<clipPath id="clip0_1_242">
<rect width="40" height="40" fill="white" transform="translate(14 14)"/>
</clipPath>
</defs>
</svg>
