<svg width="68" height="68" viewBox="0 0 68 68" fill="none" xmlns="http://www.w3.org/2000/svg">
<g clip-path="url(#clip0_1_270)">
<path opacity="0.969" fill-rule="evenodd" clip-rule="evenodd" d="M53.9609 17.5547C53.9609 18.0495 53.9609 18.5443 53.9609 19.0391C53.2274 21.0868 51.7952 21.881 49.6641 21.4219C48.7489 21.0927 48.0979 20.4808 47.7109 19.586C46.6705 19.5079 45.6289 19.4818 44.5859 19.5078C44.599 22.1121 44.5859 24.7163 44.5469 27.3203C44.437 27.7167 44.1897 27.9901 43.8047 28.1406C42.8151 28.1927 41.8255 28.1927 40.8359 28.1406C40.4528 27.3353 40.0622 26.5411 39.6641 25.7578C40.4974 25.7578 41.3307 25.7578 42.1641 25.7578C42.151 23.1795 42.1641 20.6014 42.2031 18.0235C42.3716 17.4647 42.7492 17.1653 43.3359 17.125C44.795 17.112 46.2533 17.0729 47.7109 17.0078C48.6364 15.3053 50.0427 14.7193 51.9297 15.25C52.9789 15.6975 53.6559 16.4657 53.9609 17.5547Z" fill="white"/>
<path opacity="0.983" fill-rule="evenodd" clip-rule="evenodd" d="M13.9609 35.3672C13.9609 34.4297 13.9609 33.4922 13.9609 32.5547C14.5487 28.3185 16.6581 25.0763 20.2891 22.8281C24.6812 20.4663 29.0562 20.4923 33.4141 22.9062C37.4071 25.4865 39.4905 29.1715 39.6641 33.9609C39.4117 39.4833 36.8076 43.4286 31.8516 45.7969C26.9828 47.6386 22.5037 46.9615 18.4141 43.7656C15.8897 41.5162 14.4053 38.7168 13.9609 35.3672ZM32.3203 29.5859C33.1045 29.5693 33.8857 29.6083 34.6641 29.7031C36.5594 30.3493 37.3537 31.6644 37.0469 33.6484C36.4646 35.315 35.2797 36.1222 33.4922 36.0703C33.5052 36.5137 33.4921 36.9565 33.4531 37.3984C33.1891 38.11 32.6813 38.3834 31.9297 38.2187C31.6259 38.0451 31.4046 37.7978 31.2656 37.4765C31.2135 35.1328 31.2135 32.789 31.2656 30.4453C31.4727 29.9633 31.8243 29.6768 32.3203 29.5859ZM21.5391 29.664C22.3337 29.5332 22.8416 29.8457 23.0625 30.6015C23.1388 32.898 23.1127 35.1897 22.9844 37.4765C22.5346 38.1997 21.9487 38.343 21.2266 37.9062C20.5528 36.9103 19.8887 35.9077 19.2344 34.8984C19.2083 35.7578 19.1823 36.6172 19.1562 37.4765C18.8931 38.1485 18.4113 38.3959 17.7109 38.2187C17.326 38.0682 17.0786 37.7948 16.9688 37.3984C16.8925 35.0759 16.9185 32.7582 17.0469 30.4453C17.4933 29.7235 18.0792 29.5802 18.8047 30.0156C19.4785 31.0115 20.1425 32.0141 20.7969 33.0234C20.8229 32.164 20.849 31.3047 20.875 30.4453C21.0295 30.122 21.2509 29.8616 21.5391 29.664ZM26.1484 29.664C26.8486 29.5258 27.3304 29.7862 27.5938 30.4453C27.6328 32.294 27.6459 34.143 27.6328 35.9922C28.4179 35.8582 28.9778 36.1447 29.3125 36.8515C29.4127 37.6628 29.0612 38.1445 28.2578 38.2969C27.5505 38.363 26.8474 38.3369 26.1484 38.2187C25.7634 38.0682 25.5161 37.7948 25.4062 37.3984C25.3541 35.1068 25.3541 32.8151 25.4062 30.5234C25.5312 30.1255 25.7786 29.839 26.1484 29.664Z" fill="white"/>
<path opacity="0.971" fill-rule="evenodd" clip-rule="evenodd" d="M53.9609 33.2578C53.9609 33.7526 53.9609 34.2474 53.9609 34.7422C53.2672 36.7043 51.887 37.4985 49.8203 37.125C48.8603 36.8027 48.1572 36.1907 47.7109 35.2891C45.7845 35.2109 43.8575 35.1849 41.9297 35.2109C42.0312 34.4034 42.0312 33.5961 41.9297 32.7891C43.8575 32.8151 45.7845 32.7891 47.7109 32.7109C48.3113 31.4405 49.314 30.7634 50.7188 30.6797C52.3912 30.8051 53.4719 31.6645 53.9609 33.2578Z" fill="white"/>
<path opacity="0.909" fill-rule="evenodd" clip-rule="evenodd" d="M33.4922 31.9297C34.635 31.7571 35.0907 32.2258 34.8594 33.3359C34.4859 33.7129 34.0302 33.8692 33.4922 33.8047C33.4922 33.1797 33.4922 32.5547 33.4922 31.9297Z" fill="white"/>
<path opacity="0.969" fill-rule="evenodd" clip-rule="evenodd" d="M53.9609 48.8828C53.9609 49.3776 53.9609 49.8724 53.9609 50.3672C53.2672 52.3293 51.887 53.1235 49.8203 52.75C48.8603 52.4277 48.1572 51.8157 47.7109 50.9141C46.1491 50.849 44.5866 50.8099 43.0234 50.7969C42.5938 50.6797 42.3203 50.4063 42.2031 49.9766C42.1641 47.3725 42.151 44.7684 42.1641 42.1641C41.3043 42.1771 40.4449 42.1641 39.5859 42.125C40.0634 41.3785 40.4801 40.5973 40.8359 39.7813C41.7474 39.7292 42.6588 39.7292 43.5703 39.7813C43.9795 39.8516 44.279 40.073 44.4688 40.4453C44.5843 43.0967 44.6234 45.753 44.5859 48.4141C45.6289 48.4401 46.6705 48.414 47.7109 48.336C48.3113 47.0656 49.314 46.3885 50.7188 46.3047C52.3919 46.4292 53.4726 47.2885 53.9609 48.8828Z" fill="white"/>
</g>
<rect width="68" height="68" rx="10" fill="url(#paint0_linear_1_270)"/>
<path opacity="0.972" fill-rule="evenodd" clip-rule="evenodd" d="M29.8203 15.8359C31.0748 15.8017 32.3248 15.8407 33.5703 15.9531C33.6615 16.0442 33.7526 16.1354 33.8438 16.2265C33.8698 17.0078 33.8959 17.789 33.9219 18.5703C35.6856 16.7634 37.7559 16.3076 40.1328 17.2031C42.2006 18.2432 43.2684 19.9228 43.3359 22.2422C46.1058 22.3566 47.8897 23.7368 48.6875 26.3828C48.8111 27.1661 48.8371 27.9473 48.7656 28.7265C51.2834 29.5647 52.5985 31.3094 52.7109 33.9609C52.5962 36.6143 51.281 38.359 48.7656 39.1953C49.1098 41.9837 48.0291 44.002 45.5234 45.25C44.8189 45.5185 44.0897 45.6617 43.3359 45.6797C43.223 48.4447 41.8428 50.2285 39.1953 51.0312C37.1148 51.4574 35.357 50.8975 33.9219 49.3515C33.8959 50.1328 33.8698 50.914 33.8438 51.6953C33.7526 51.7865 33.6615 51.8776 33.5703 51.9687C32.8978 52.0551 32.2207 52.0942 31.5391 52.0859C30.8574 52.0942 30.1803 52.0551 29.5078 51.9687C29.3868 51.8739 29.2957 51.7567 29.2344 51.6172C29.1953 50.4716 29.1823 49.3258 29.1953 48.1797C28.0991 47.9011 27.0575 47.4843 26.0703 46.9297C25.2771 47.6837 24.4959 48.452 23.7266 49.2343C23.4662 49.3906 23.2057 49.3906 22.9453 49.2343C21.2374 47.5525 19.5577 45.8468 17.9063 44.1172C17.8473 43.8982 17.8733 43.6898 17.9844 43.4922C18.7667 42.7229 19.535 41.9416 20.2891 41.1484C19.7345 40.1618 19.3178 39.1201 19.0391 38.0234C17.8929 38.0365 16.7471 38.0234 15.6016 37.9843C15.462 37.923 15.3448 37.8319 15.25 37.7109C15.1979 35.2109 15.1979 32.7109 15.25 30.2109C15.3448 30.0899 15.462 29.9988 15.6016 29.9375C16.7471 29.8984 17.8929 29.8854 19.0391 29.8984C19.3178 28.8018 19.7345 27.76 20.2891 26.7734C19.535 25.9802 18.7667 25.199 17.9844 24.4297C17.8281 24.1693 17.8281 23.9088 17.9844 23.6484C19.6663 21.9404 21.372 20.2608 23.1016 18.6093C23.3205 18.5504 23.5289 18.5764 23.7266 18.6875C24.4959 19.4698 25.2771 20.2381 26.0703 20.9922C27.045 20.4069 28.0867 19.9902 29.1953 19.7422C29.1823 18.596 29.1953 17.4502 29.2344 16.3047C29.3548 16.0396 29.5502 15.8834 29.8203 15.8359ZM37.3203 18.1015C40.1014 18.0315 41.6639 19.3727 42.0078 22.125C41.6566 23.4405 42.1384 23.9222 43.4531 23.5703C46.2936 23.9381 47.6217 25.5526 47.4375 28.414C47.2764 28.7915 47.2243 29.1821 47.2813 29.5859C47.3724 29.6771 47.4635 29.7682 47.5547 29.8593C50.2888 30.353 51.5517 31.9807 51.3438 34.7422C50.8138 36.6779 49.5508 37.7847 47.5547 38.0625C47.2596 38.2933 47.1685 38.5928 47.2813 38.9609C47.7892 40.8484 47.2814 42.3979 45.7578 43.6093C45.0576 44.0597 44.2893 44.3072 43.4531 44.3515C42.1384 43.9996 41.6566 44.4813 42.0078 45.7968C41.7533 48.2519 40.3991 49.593 37.9453 49.8203C35.6823 49.6536 34.3411 48.4557 33.9219 46.2265C33.8828 43.8829 33.8698 41.5392 33.8828 39.1953C34.7426 39.1822 35.602 39.1953 36.4609 39.2343C36.7616 39.522 37.0481 39.8215 37.3203 40.1328C36.7816 41.3588 37.016 42.4135 38.0234 43.2968C39.0131 43.8697 40.0026 43.8697 40.9922 43.2968C41.9805 42.3821 42.2019 41.3014 41.6563 40.0547C40.7939 38.8775 39.6871 38.565 38.3359 39.1172C37.9049 38.6991 37.4622 38.2954 37.0078 37.9062C35.9665 37.8672 34.9248 37.8541 33.8828 37.8672C33.8828 36.7734 33.8828 35.6797 33.8828 34.5859C36.2267 34.5729 38.5705 34.5859 40.9141 34.625C41.5964 36.2289 42.7683 36.7497 44.4297 36.1875C45.8537 35.2328 46.1532 33.9958 45.3281 32.4765C44.1891 31.3035 42.9521 31.1863 41.6172 32.125C41.3032 32.4663 41.0688 32.8569 40.9141 33.2968C38.5705 33.3359 36.2267 33.349 33.8828 33.3359C33.8828 32.2422 33.8828 31.1484 33.8828 30.0547C34.9248 30.0677 35.9665 30.0547 37.0078 30.0156C37.4622 29.6264 37.9049 29.2227 38.3359 28.8047C39.6871 29.3568 40.7939 29.0443 41.6563 27.8672C42.372 25.7856 41.6559 24.5356 39.5078 24.1172C38.0238 24.299 37.1905 25.1324 37.0078 26.6172C37.033 27.0297 37.1372 27.4204 37.3203 27.789C37.0481 28.1004 36.7616 28.3998 36.4609 28.6875C35.602 28.7265 34.7426 28.7396 33.8828 28.7265C33.8698 26.3826 33.8828 24.0389 33.9219 21.6953C34.2691 19.7467 35.402 18.5488 37.3203 18.1015ZM39.4297 25.4453C40.5759 25.7064 40.8753 26.3574 40.3281 27.3984C39.7315 27.9378 39.1586 27.9117 38.6094 27.3203C38.1378 26.3719 38.4113 25.7469 39.4297 25.4453ZM32.0859 26.0703C32.2422 26.0703 32.3984 26.0703 32.5547 26.0703C32.5547 31.3307 32.5547 36.5911 32.5547 41.8515C29.3812 41.4438 27.1546 39.7772 25.875 36.8515C24.7242 33.4379 25.4404 30.4821 28.0234 27.9843C29.2123 26.9861 30.5665 26.3481 32.0859 26.0703ZM43.1797 32.789C44.375 33.0018 44.7006 33.6529 44.1563 34.7422C43.5084 35.2818 42.9095 35.2298 42.3594 34.5859C41.9993 33.6917 42.2727 33.0928 43.1797 32.789ZM39.3516 40.1328C40.5529 40.3479 40.8784 40.999 40.3281 42.0859C39.6061 42.6221 38.9811 42.5179 38.4531 41.7734C38.2613 40.9593 38.5607 40.4125 39.3516 40.1328Z" fill="white"/>
<defs>
<linearGradient id="paint0_linear_1_270" x1="34" y1="0" x2="34" y2="68" gradientUnits="userSpaceOnUse">
<stop stop-color="#188DCD"/>
<stop offset="1" stop-color="#29BCEE"/>
</linearGradient>
<clipPath id="clip0_1_270">
<rect width="40" height="40" fill="white" transform="translate(14 14)"/>
</clipPath>
</defs>
</svg>
