<svg width="49" height="48" viewBox="0 0 49 48" fill="none" xmlns="http://www.w3.org/2000/svg">
<g clip-path="url(#clip0_1_48)">
<path opacity="0.979" fill-rule="evenodd" clip-rule="evenodd" d="M32.7969 1.07812C33.1028 5.46005 35.1966 8.66318 39.0781 10.6875C40.4595 11.2673 41.8971 11.611 43.3906 11.7188C39.0224 11.9403 35.8506 13.9871 33.875 17.8594C33.2807 19.2678 32.9369 20.7366 32.8438 22.2656C32.6128 17.7544 30.4722 14.52 26.4219 12.5625C25.1315 12.029 23.7878 11.7477 22.3906 11.7188C27.0669 11.3531 30.3326 9.02499 32.1875 4.73438C32.613 3.55239 32.8162 2.33364 32.7969 1.07812Z" fill="url(#paint0_linear_1_48)"/>
<path opacity="0.985" fill-rule="evenodd" clip-rule="evenodd" d="M16.2969 14.0156C16.6034 20.4904 19.6034 25.256 25.2969 28.3125C27.4631 29.3305 29.7443 29.8618 32.1406 29.9062C25.1055 30.3343 20.1837 33.7562 17.375 40.1719C16.7079 41.9873 16.3641 43.8623 16.3438 45.7969C15.9785 39.0942 12.8067 34.2661 6.82812 31.3125C4.81936 30.4745 2.72562 30.0057 0.546875 29.9062C7.51971 29.4922 12.4104 26.1016 15.2188 19.7344C15.9012 17.8894 16.2606 15.9831 16.2969 14.0156Z" fill="url(#paint1_linear_1_48)"/>
<path opacity="0.974" fill-rule="evenodd" clip-rule="evenodd" d="M48.4531 38.1094C48.4531 38.1406 48.4531 38.1719 48.4531 38.2031C44.6773 38.3329 42.0055 40.1141 40.4375 43.5469C40.0278 44.6021 39.8091 45.6959 39.7812 46.8281C39.4398 42.5939 37.268 39.797 33.2656 38.4375C32.5571 38.2676 31.8384 38.1739 31.1094 38.1562C35.0157 37.8672 37.7188 35.9141 39.2188 32.2969C39.5144 31.3494 39.7019 30.3807 39.7812 29.3906C40.0039 33.1357 41.8007 35.8075 45.1719 37.4062C46.2277 37.8217 47.3215 38.0561 48.4531 38.1094Z" fill="url(#paint2_linear_1_48)"/>
</g>
<defs>
<linearGradient id="paint0_linear_1_48" x1="32.8906" y1="1.07812" x2="32.8906" y2="22.2656" gradientUnits="userSpaceOnUse">
<stop stop-color="#188DCD"/>
<stop offset="1" stop-color="#29BCEE"/>
</linearGradient>
<linearGradient id="paint1_linear_1_48" x1="16.3438" y1="14.0156" x2="16.3438" y2="45.7969" gradientUnits="userSpaceOnUse">
<stop stop-color="#188DCD"/>
<stop offset="1" stop-color="#29BCEE"/>
</linearGradient>
<linearGradient id="paint2_linear_1_48" x1="39.7812" y1="29.3906" x2="39.7812" y2="46.8281" gradientUnits="userSpaceOnUse">
<stop stop-color="#188DCD"/>
<stop offset="1" stop-color="#29BCEE"/>
</linearGradient>
<clipPath id="clip0_1_48">
<rect width="48" height="48" fill="white" transform="translate(0.5)"/>
</clipPath>
</defs>
</svg>
