<svg width="17" height="16" viewBox="0 0 17 16" fill="none" xmlns="http://www.w3.org/2000/svg">
<path d="M6.60557 2.24471C7.21877 0.43296 9.78123 0.432959 10.3944 2.24471L10.8465 3.58044C11.1214 4.39265 11.8835 4.93926 12.741 4.93926H14.0247C15.9819 4.93926 16.7741 7.46002 15.1688 8.57966L14.2726 9.20476C13.5429 9.71374 13.2371 10.6436 13.5223 11.4863L13.8975 12.5948C14.5163 14.4231 12.4421 15.9806 10.8589 14.8763L9.64415 14.0291C8.95673 13.5496 8.04327 13.5496 7.35585 14.0291L6.14109 14.8763C4.55791 15.9806 2.48369 14.4231 3.10251 12.5948L3.47766 11.4863C3.7629 10.6436 3.45712 9.71374 2.72738 9.20476L1.83115 8.57966C0.225885 7.46002 1.01814 4.93926 2.9753 4.93926H4.25904C5.11652 4.93926 5.87858 4.39265 6.15348 3.58044L6.60557 2.24471Z" fill="#FF9900"/>
</svg>
