<svg width="69" height="68" viewBox="0 0 69 68" fill="none" xmlns="http://www.w3.org/2000/svg">
<rect x="0.100098" width="68" height="68" rx="10" fill="url(#paint0_linear_29_383)"/>
<path opacity="0.962" fill-rule="evenodd" clip-rule="evenodd" d="M20.5454 14.7422C20.7484 14.746 20.9177 14.8242 21.0532 14.9766C21.9386 16.2786 22.824 17.5807 23.7094 18.8828C23.7971 19.1528 23.7321 19.3742 23.5141 19.5469C23.0461 19.5859 22.5773 19.5989 22.1079 19.5859C22.1209 20.5238 22.1079 21.4613 22.0688 22.3984C22.0297 22.4896 21.9646 22.5547 21.8735 22.5938C21.0141 22.6459 20.1547 22.6459 19.2954 22.5938C19.2322 22.5697 19.1801 22.5306 19.1391 22.4766C19.0625 21.517 19.0365 20.5534 19.061 19.5859C18.5915 19.5989 18.1228 19.5859 17.6547 19.5469C17.5105 19.3454 17.4714 19.124 17.5375 18.8828C18.3641 17.7245 19.1714 16.5527 19.9594 15.3672C20.1179 15.1178 20.3132 14.9095 20.5454 14.7422Z" fill="white"/>
<path opacity="0.843" fill-rule="evenodd" clip-rule="evenodd" d="M33.8267 14.7422C34.1384 14.6731 34.3597 14.7772 34.4907 15.0547C34.5429 15.3932 34.5429 15.7318 34.4907 16.0703C34.3586 16.3603 34.1372 16.4515 33.8267 16.3437C33.7329 16.2732 33.6677 16.1821 33.6314 16.0703C33.5793 15.7318 33.5793 15.3932 33.6314 15.0547C33.6831 14.9387 33.7482 14.8346 33.8267 14.7422Z" fill="white"/>
<path opacity="0.962" fill-rule="evenodd" clip-rule="evenodd" d="M47.3422 14.7422C47.5885 14.6999 47.7838 14.778 47.9282 14.9765C48.7944 16.2662 49.6797 17.5422 50.5844 18.8047C50.6542 19.0716 50.6151 19.3189 50.4672 19.5468C49.9992 19.5859 49.5304 19.5989 49.061 19.5859C49.074 20.5238 49.061 21.4613 49.0219 22.3984C48.9829 22.4896 48.9178 22.5547 48.8266 22.5937C47.9672 22.6458 47.1079 22.6458 46.2485 22.5937C46.1854 22.5697 46.1333 22.5306 46.0922 22.4765C46.0157 21.5169 45.9897 20.5534 46.0141 19.5859C45.5447 19.5989 45.0759 19.5859 44.6079 19.5468C44.4636 19.3454 44.4245 19.124 44.4907 18.8828C45.4584 17.5119 46.409 16.1317 47.3422 14.7422Z" fill="white"/>
<path opacity="0.873" fill-rule="evenodd" clip-rule="evenodd" d="M37.4204 15.3672C37.8266 15.2799 38.061 15.4362 38.1235 15.836C38.0038 16.208 37.8606 16.5726 37.6938 16.9297C37.2383 17.1134 36.9649 16.9702 36.8735 16.5C37.0062 16.0917 37.1885 15.7141 37.4204 15.3672Z" fill="white"/>
<path opacity="0.872" fill-rule="evenodd" clip-rule="evenodd" d="M30.2329 15.4453C30.4375 15.4243 30.6328 15.4504 30.8188 15.5234C31.0628 15.9676 31.193 16.4363 31.2095 16.9297C30.9672 17.1031 30.7067 17.1292 30.4282 17.0078C30.2233 16.6535 30.0801 16.2759 29.9985 15.875C30.0269 15.7037 30.105 15.5605 30.2329 15.4453Z" fill="white"/>
<path opacity="0.862" fill-rule="evenodd" clip-rule="evenodd" d="M27.186 17.4766C27.3188 17.4641 27.449 17.4771 27.5767 17.5156C27.8501 17.7891 28.1235 18.0625 28.397 18.336C28.4861 18.9225 28.2387 19.1178 27.6548 18.9219C27.355 18.6232 27.1206 18.2847 26.9517 17.9063C26.98 17.735 27.0581 17.5918 27.186 17.4766Z" fill="white"/>
<path opacity="0.854" fill-rule="evenodd" clip-rule="evenodd" d="M40.5454 17.5547C41.0006 17.5279 41.1959 17.7362 41.1313 18.1797C40.9651 18.4242 40.7698 18.6455 40.5454 18.8437C39.9706 19.1218 39.7233 18.9526 39.8032 18.3359C40.0666 18.0857 40.314 17.8253 40.5454 17.5547Z" fill="white"/>
<path opacity="0.976" fill-rule="evenodd" clip-rule="evenodd" d="M33.0454 17.6328C36.5736 17.3714 39.0867 18.8297 40.5844 22.0078C41.555 24.8714 41.0211 27.4104 38.9829 29.625C36.692 31.6299 34.1139 32.0987 31.2485 31.0313C28.0133 29.3657 26.6722 26.7225 27.2251 23.1016C28.0476 20.0783 29.9876 18.2554 33.0454 17.6328ZM33.9047 20.9922C34.4398 20.9628 34.6482 21.2232 34.5297 21.7735C34.9732 21.7605 35.4159 21.7735 35.8579 21.8125C36.4828 22.06 36.7562 22.5157 36.6782 23.1797C36.4698 23.3881 36.2615 23.3881 36.0532 23.1797C36.067 22.8814 35.9498 22.6601 35.7016 22.5156C35.3119 22.4767 34.9212 22.4636 34.5297 22.4766C34.5297 23.1016 34.5297 23.7266 34.5297 24.3516C35.3877 24.0774 36.0257 24.3378 36.4438 25.1328C36.7336 26.706 36.0695 27.4873 34.4516 27.4766C34.5264 27.848 34.3961 28.1084 34.061 28.2578C33.7496 28.1302 33.6193 27.8958 33.6704 27.5547C33.0957 27.6119 32.5488 27.5208 32.0297 27.2813C31.6538 26.9609 31.5106 26.5572 31.6001 26.0703C31.7988 25.8688 31.9941 25.8688 32.186 26.0703C32.2262 26.3237 32.3304 26.545 32.4985 26.7344C32.8883 26.7734 33.2789 26.7864 33.6704 26.7735C33.6704 26.1745 33.6704 25.5756 33.6704 24.9766C32.0894 25.023 31.4515 24.2678 31.7563 22.711C32.1987 21.9588 32.8628 21.6463 33.7485 21.7735C33.7213 21.4934 33.7734 21.233 33.9047 20.9922Z" fill="white"/>
<path opacity="0.85" fill-rule="evenodd" clip-rule="evenodd" d="M25.1548 20.5234C25.5592 20.5844 25.9498 20.7015 26.3267 20.875C26.7817 21.3194 26.7036 21.6189 26.0923 21.7734C25.7468 21.6799 25.4082 21.5627 25.0767 21.4219C24.7701 21.1012 24.7962 20.8017 25.1548 20.5234Z" fill="white"/>
<path opacity="0.849" fill-rule="evenodd" clip-rule="evenodd" d="M42.655 20.5234C43.2479 20.4962 43.4432 20.7566 43.2409 21.3047C42.9593 21.478 42.6598 21.6212 42.3425 21.7344C41.6992 21.8468 41.4779 21.5994 41.6784 20.9922C42.0146 20.8435 42.3402 20.6872 42.655 20.5234Z" fill="white"/>
<path opacity="0.908" fill-rule="evenodd" clip-rule="evenodd" d="M32.8891 22.4766C33.1495 22.4766 33.41 22.4766 33.6704 22.4766C33.6704 23.1016 33.6704 23.7266 33.6704 24.3516C32.4975 24.3921 32.0938 23.8713 32.4594 22.7891C32.601 22.6737 32.7442 22.5695 32.8891 22.4766Z" fill="white"/>
<path opacity="0.952" fill-rule="evenodd" clip-rule="evenodd" d="M19.7643 23.6484C20.1257 23.5859 20.4252 23.6902 20.6627 23.9609C21.3752 25.0557 21.844 26.2536 22.069 27.5547C22.3236 28.7437 22.5189 29.9416 22.6549 31.1484C23.3531 31.2628 24.0042 31.5102 24.608 31.8906C26.8799 33.3812 28.794 35.2432 30.3502 37.4766C30.782 38.4223 31.0685 39.4119 31.2096 40.4453C31.3233 41.2025 31.4405 41.9577 31.5611 42.7109C31.923 42.7756 32.2876 42.8147 32.6549 42.8281C32.72 42.8932 32.7851 42.9584 32.8502 43.0234C32.9023 46.3307 32.9023 49.638 32.8502 52.9453C32.8111 52.9844 32.7721 53.0234 32.733 53.0625C29.9986 53.1146 27.2643 53.1146 24.5299 53.0625C24.4908 53.0234 24.4518 52.9844 24.4127 52.9453C24.3606 49.6119 24.3606 46.2787 24.4127 42.9453C24.7191 42.8037 25.0447 42.7516 25.3893 42.7891C25.2636 42.2692 25.0683 41.7744 24.8033 41.3047C24.4493 40.9244 24.0716 40.5729 23.6705 40.25C22.4311 39.4926 21.2982 38.5941 20.2721 37.5547C19.8683 36.8126 19.5558 36.0313 19.3346 35.2109C18.496 32.1892 18.1835 29.1162 18.3971 25.9922C18.4771 25.2834 18.7114 24.6323 19.1002 24.0391C19.3098 23.8762 19.5311 23.7459 19.7643 23.6484ZM19.7643 24.7422C19.9379 24.717 20.0811 24.7691 20.194 24.8984C20.843 26.4266 21.2857 28.0152 21.5221 29.6641C21.6025 30.2141 21.6936 30.7609 21.7955 31.3047C20.7935 31.7444 20.5201 32.4735 20.9752 33.4922C21.5517 34.667 22.2809 35.7348 23.1627 36.6953C23.5805 37.1001 23.9842 37.5168 24.3736 37.9453C25.0293 38.1095 25.2246 37.8752 24.9596 37.2422C23.6436 35.9885 22.5759 34.5562 21.7565 32.9453C21.622 32.3894 21.8434 32.1289 22.4205 32.1641C22.8565 32.2095 23.2731 32.3267 23.6705 32.5156C26.2319 34.0614 28.3022 36.1057 29.8815 38.6484C30.2976 40.0518 30.5451 41.4841 30.6236 42.9453C29.1644 42.9713 27.7061 42.9453 26.2486 42.8672C26.0433 42.1593 25.7698 41.4823 25.4283 40.8359C24.3219 39.7822 23.137 38.8317 21.8736 37.9844C21.5742 37.6849 21.2747 37.3854 20.9752 37.0859C20.5165 36.0851 20.178 35.0434 19.9596 33.9609C19.4001 31.5169 19.1657 29.043 19.2565 26.5391C19.293 25.8994 19.4623 25.3005 19.7643 24.7422ZM29.6861 44.2734C30.6611 44.1941 31.1429 44.6368 31.1315 45.6016C30.9012 46.2438 30.4455 46.4912 29.7643 46.3437C29.0142 46.0211 28.8189 45.4873 29.1783 44.7422C29.3395 44.5677 29.5087 44.4114 29.6861 44.2734Z" fill="white"/>
<path opacity="0.954" fill-rule="evenodd" clip-rule="evenodd" d="M48.1236 23.6484C48.5802 23.6877 48.9318 23.8959 49.1782 24.2734C49.5823 25.0564 49.7907 25.8897 49.8032 26.7734C49.9014 30.3316 49.3805 33.7952 48.2407 37.1641C47.8403 37.7469 47.3585 38.2547 46.7954 38.6875C45.6213 39.4705 44.5146 40.343 43.4751 41.3047C43.1799 41.7608 42.9846 42.2555 42.8892 42.7891C43.2338 42.7516 43.5593 42.8037 43.8657 42.9453C43.9179 46.2787 43.9179 49.612 43.8657 52.9453C43.8267 52.9844 43.7876 53.0234 43.7486 53.0625C40.9621 53.1146 38.1757 53.1146 35.3892 53.0625C35.3501 53.0234 35.3111 52.9844 35.272 52.9453C35.2199 49.638 35.2199 46.3307 35.272 43.0234C35.3111 42.9323 35.3761 42.8672 35.4673 42.8281C35.8346 42.8147 36.1992 42.7756 36.5611 42.7109C36.7352 41.1763 37.0346 39.6659 37.4595 38.1797C37.607 37.7543 37.8154 37.3637 38.0845 37.0078C39.3707 35.331 40.842 33.8337 42.4986 32.5156C43.083 32.0887 43.708 31.7241 44.3736 31.4219C44.7201 31.2571 45.0847 31.1659 45.4673 31.1484C45.7124 29.1548 46.1421 27.2016 46.7564 25.2891C46.9299 24.8117 47.1643 24.369 47.4595 23.9609C47.6598 23.795 47.8811 23.6908 48.1236 23.6484ZM48.2017 24.5078C48.3894 24.4995 48.5326 24.5776 48.6314 24.7422C48.7407 24.9659 48.8188 25.2002 48.8657 25.4453C49.1404 28.8335 48.8018 32.1668 47.8501 35.4453C47.6594 36.3088 47.2557 37.051 46.6392 37.6719C45.7414 38.3421 44.83 38.9931 43.9048 39.625C42.8896 40.4174 42.2386 41.4461 41.9517 42.7109C40.4943 42.7891 39.036 42.8151 37.5767 42.7891C37.7171 41.1624 38.0426 39.5739 38.5532 38.0234C40.1766 35.6186 42.2469 33.7045 44.7642 32.2812C46.6736 31.6651 47.0773 32.1989 45.9751 33.8828C45.2201 35.0514 44.3347 36.1191 43.3189 37.0859C43.0493 37.7145 43.2446 37.9489 43.9048 37.7891C44.932 36.7755 45.8564 35.6817 46.6782 34.5078C47.1056 33.8507 47.379 33.1345 47.4986 32.3594C47.4105 31.737 47.072 31.3073 46.4829 31.0703C46.7398 29.1053 47.1695 27.1782 47.772 25.2891C47.8964 25.014 48.0396 24.7536 48.2017 24.5078ZM37.7329 44.2734C38.7204 44.1802 39.1761 44.6229 39.1001 45.6016C38.7521 46.3687 38.1921 46.5641 37.4204 46.1875C36.7666 45.4297 36.8707 44.7917 37.7329 44.2734Z" fill="white"/>
<path opacity="0.88" fill-rule="evenodd" clip-rule="evenodd" d="M24.3737 24.1953C24.8171 24.1824 25.2599 24.1954 25.7018 24.2344C25.9239 24.5171 25.8979 24.7775 25.6237 25.0157C25.2331 25.0678 24.8424 25.0678 24.4518 25.0157C24.2635 24.9564 24.1854 24.8262 24.2174 24.625C24.2092 24.4549 24.2613 24.3116 24.3737 24.1953Z" fill="white"/>
<path opacity="0.879" fill-rule="evenodd" clip-rule="evenodd" d="M42.4204 24.1953C42.8638 24.1824 43.3066 24.1954 43.7485 24.2344C43.903 24.4295 43.9421 24.6509 43.8657 24.8985C43.8071 24.9474 43.7419 24.9864 43.6704 25.0157C43.2798 25.0678 42.8891 25.0678 42.4985 25.0157C42.2127 24.7705 42.1867 24.4971 42.4204 24.1953Z" fill="white"/>
<path opacity="0.926" fill-rule="evenodd" clip-rule="evenodd" d="M34.4517 25.0547C35.4599 24.8269 35.9157 25.2175 35.8188 26.2266C35.5481 26.8074 35.0924 27.0156 34.4517 26.8516C34.4517 26.2526 34.4517 25.6537 34.4517 25.0547Z" fill="white"/>
<path opacity="0.85" fill-rule="evenodd" clip-rule="evenodd" d="M41.8736 27.3984C42.278 27.4594 42.6686 27.5766 43.0455 27.75C43.5005 28.1945 43.4223 28.4939 42.8111 28.6484C42.4655 28.5549 42.1269 28.4377 41.7955 28.2969C41.4888 27.9762 41.5149 27.6767 41.8736 27.3984Z" fill="white"/>
<path opacity="0.846" fill-rule="evenodd" clip-rule="evenodd" d="M25.9363 27.4766C26.4695 27.5011 26.6388 27.7615 26.4441 28.2578C26.1624 28.4311 25.863 28.5744 25.5456 28.6875C24.9014 28.7991 24.6801 28.5516 24.8816 27.9453C25.2344 27.7751 25.586 27.6188 25.9363 27.4766Z" fill="white"/>
<path opacity="0.843" fill-rule="evenodd" clip-rule="evenodd" d="M39.9986 30.2891C40.1313 30.2766 40.2615 30.2896 40.3892 30.3281C40.686 30.5467 40.9594 30.7941 41.2095 31.0703C41.2873 31.5911 41.066 31.7864 40.5454 31.6563C40.2747 31.4638 40.0274 31.2425 39.8033 30.9922C39.7079 30.6967 39.773 30.4624 39.9986 30.2891Z" fill="white"/>
<path opacity="0.853" fill-rule="evenodd" clip-rule="evenodd" d="M27.7331 30.3672C28.2536 30.3279 28.4489 30.5623 28.319 31.0703C28.1237 31.2656 27.9284 31.461 27.7331 31.6563C27.1894 31.8995 26.942 31.7303 26.9909 31.1485C27.2543 30.8982 27.5017 30.6378 27.7331 30.3672Z" fill="white"/>
<path opacity="0.859" fill-rule="evenodd" clip-rule="evenodd" d="M30.6237 32.164C31.0788 32.1372 31.2741 32.3456 31.2096 32.789C31.0964 33.1289 30.9532 33.4543 30.7799 33.7656C30.196 33.9615 29.9486 33.7662 30.0377 33.1797C30.1255 32.7664 30.3209 32.4279 30.6237 32.164Z" fill="white"/>
<path opacity="0.867" fill-rule="evenodd" clip-rule="evenodd" d="M37.0298 32.2422C37.2601 32.2205 37.4814 32.2465 37.6938 32.3203C37.9645 32.7553 38.0946 33.224 38.0845 33.7265C37.8422 33.9 37.5817 33.926 37.3032 33.8047C37.1268 33.439 36.9836 33.0615 36.8735 32.6719C36.8937 32.5149 36.9458 32.3716 37.0298 32.2422Z" fill="white"/>
<path opacity="0.813" fill-rule="evenodd" clip-rule="evenodd" d="M33.9048 32.7891C34.2172 32.7558 34.4125 32.886 34.4907 33.1797C34.5429 33.5182 34.5429 33.8568 34.4907 34.1953C34.2043 34.612 33.9179 34.612 33.6314 34.1953C33.5793 33.8307 33.5793 33.4662 33.6314 33.1016C33.6853 32.957 33.7764 32.8528 33.9048 32.7891Z" fill="white"/>
<defs>
<linearGradient id="paint0_linear_29_383" x1="34.1001" y1="0" x2="34.1001" y2="68" gradientUnits="userSpaceOnUse">
<stop stop-color="#188DCD"/>
<stop offset="1" stop-color="#29BCEE"/>
</linearGradient>
</defs>
</svg>
