<svg width="69" height="68" viewBox="0 0 69 68" fill="none" xmlns="http://www.w3.org/2000/svg">
<rect x="0.299805" width="68" height="68" rx="10" fill="url(#paint0_linear_29_384)"/>
<path opacity="0.969" fill-rule="evenodd" clip-rule="evenodd" d="M34.1826 15.9922C40.1414 19.3884 46.0789 22.8259 51.9951 26.3047C40.1722 26.4088 28.3493 26.4088 16.5264 26.3047C22.4167 22.8651 28.3021 19.4276 34.1826 15.9922ZM34.0264 19.9766C35.9074 20.1456 36.7017 21.1612 36.4092 23.0234C35.7973 24.3385 34.7947 24.7942 33.4014 24.3906C32.2405 23.7745 31.8108 22.8239 32.1123 21.5391C32.4654 20.6548 33.1033 20.134 34.0264 19.9766Z" fill="white"/>
<path opacity="0.995" fill-rule="evenodd" clip-rule="evenodd" d="M15.5107 27.5547C28.0107 27.5547 40.5107 27.5547 53.0107 27.5547C53.0237 27.9202 53.0106 28.2848 52.9716 28.6484C52.8805 28.8438 52.7373 28.987 52.542 29.0781C40.3545 29.1302 28.167 29.1302 15.9795 29.0781C15.7841 28.987 15.6409 28.8438 15.5498 28.6484C15.5108 28.2848 15.4978 27.9202 15.5107 27.5547Z" fill="white"/>
<path opacity="0.93" fill-rule="evenodd" clip-rule="evenodd" d="M43.2452 30.2891C43.5876 30.2772 43.861 30.4074 44.0655 30.6797C44.0584 31.4917 43.9803 32.299 43.8311 33.1016C43.2856 33.6495 42.8429 33.5714 42.503 32.8672C41.5287 33.9196 40.5261 34.9483 39.4952 35.9531C39.1704 36.1227 38.8709 36.0837 38.5967 35.8359C38.1081 34.9891 37.6394 34.1297 37.1905 33.2578C35.8928 36.3479 34.6168 39.4468 33.3623 42.5547C33.0677 42.8897 32.7162 42.9548 32.3077 42.75C31.878 42.2682 31.4483 41.7865 31.0186 41.3047C30.8884 42.1641 30.7582 43.0234 30.628 43.8828C30.397 44.2819 30.0714 44.3991 29.6514 44.2344C29.0667 43.7149 28.4938 43.181 27.9327 42.6328C27.1347 43.6166 26.3274 44.5931 25.5108 45.5625C24.5394 45.7888 24.2399 45.4373 24.6123 44.5078C25.5595 43.3261 26.5361 42.1672 27.542 41.0313C27.8127 40.9674 28.0731 40.9935 28.3233 41.1094C28.7009 41.487 29.0785 41.8646 29.4561 42.2422C29.6479 41.3438 29.8041 40.4323 29.9248 39.5078C30.1878 39.1087 30.5394 39.0175 30.9795 39.2344C31.4882 39.8081 32.0091 40.368 32.542 40.9141C33.8798 37.7472 35.1949 34.5702 36.4873 31.3828C36.804 31.0306 37.1686 30.9786 37.5811 31.2266C38.1212 32.2288 38.6811 33.2184 39.2608 34.1953C40.054 33.4413 40.8352 32.673 41.6045 31.8906C41.08 31.7664 40.8847 31.4409 41.0186 30.9141C41.0549 30.8023 41.1201 30.7112 41.2139 30.6406C41.8989 30.5099 42.5759 30.3927 43.2452 30.2891Z" fill="white"/>
<path opacity="0.977" fill-rule="evenodd" clip-rule="evenodd" d="M18.9482 30.3672C20.2243 30.3672 21.5003 30.3672 22.7764 30.3672C22.7764 35.4974 22.7764 40.6276 22.7764 45.7578C21.5003 45.7578 20.2243 45.7578 18.9482 45.7578C18.9482 40.6276 18.9482 35.4974 18.9482 30.3672Z" fill="white"/>
<path opacity="0.977" fill-rule="evenodd" clip-rule="evenodd" d="M45.7451 30.3672C47.0211 30.3672 48.2972 30.3672 49.5732 30.3672C49.5732 35.4974 49.5732 40.6276 49.5732 45.7578C48.2972 45.7578 47.0211 45.7578 45.7451 45.7578C45.7451 40.6276 45.7451 35.4974 45.7451 30.3672Z" fill="white"/>
<path opacity="0.931" fill-rule="evenodd" clip-rule="evenodd" d="M17.0732 46.9297C28.5316 46.9297 39.9899 46.9297 51.4482 46.9297C51.4482 47.5026 51.4482 48.0755 51.4482 48.6484C39.9899 48.6484 28.5316 48.6484 17.0732 48.6484C17.0732 48.0755 17.0732 47.5026 17.0732 46.9297Z" fill="white"/>
<path opacity="0.978" fill-rule="evenodd" clip-rule="evenodd" d="M15.5107 49.8203C28.0107 49.8203 40.5107 49.8203 53.0107 49.8203C53.0107 50.5234 53.0107 51.2266 53.0107 51.9297C40.5107 51.9297 28.0107 51.9297 15.5107 51.9297C15.5107 51.2266 15.5107 50.5234 15.5107 49.8203Z" fill="white"/>
<defs>
<linearGradient id="paint0_linear_29_384" x1="34.2998" y1="0" x2="34.2998" y2="68" gradientUnits="userSpaceOnUse">
<stop stop-color="#188DCD"/>
<stop offset="1" stop-color="#29BCEE"/>
</linearGradient>
</defs>
</svg>
