<svg width="69" height="68" viewBox="0 0 69 68" fill="none" xmlns="http://www.w3.org/2000/svg">
<rect x="0.5" width="68" height="68" rx="10" fill="url(#paint0_linear_29_382)"/>
<path opacity="0.977" fill-rule="evenodd" clip-rule="evenodd" d="M31.7266 15.4453C31.9883 15.4324 32.2487 15.4454 32.5078 15.4844C37.5978 18.4273 42.6759 21.383 47.7422 24.3516C45.8407 25.5108 43.9136 26.6306 41.9609 27.7109C36.7243 24.7283 31.5159 21.7075 26.3359 18.6484C28.1506 17.5983 29.9475 16.5306 31.7266 15.4453Z" fill="white"/>
<path opacity="0.975" fill-rule="evenodd" clip-rule="evenodd" d="M21.5703 21.3047C26.7765 24.2986 31.9848 27.2934 37.1953 30.2891C37.2751 30.3283 37.2881 30.3803 37.2344 30.4453C35.5351 31.4448 33.8293 32.4344 32.1172 33.4141C26.8886 30.4245 21.6803 27.4036 16.4922 24.3516C16.5085 24.3058 16.5346 24.2667 16.5703 24.2344C18.2705 23.2996 19.9372 22.323 21.5703 21.3047Z" fill="white"/>
<path opacity="0.993" fill-rule="evenodd" clip-rule="evenodd" d="M15.8674 25.3672C21.0603 28.3413 26.2426 31.3361 31.4143 34.3516C31.5184 40.3932 31.5184 46.4349 31.4143 52.4766C26.2391 49.5311 21.0958 46.5362 15.9846 43.4922C15.8679 37.457 15.8288 31.4153 15.8674 25.3672Z" fill="white"/>
<path opacity="0.974" fill-rule="evenodd" clip-rule="evenodd" d="M48.2891 25.3672C48.3671 28.8695 48.3931 32.3852 48.3672 35.9141C44.7283 35.3446 41.9549 36.6206 40.0469 39.7422C38.9619 41.8941 38.8838 44.0816 39.8125 46.3047C40.1139 46.8603 40.4004 47.4072 40.6719 47.9453C38.0393 49.5283 35.3701 51.0387 32.6641 52.4766C32.651 46.4609 32.6641 40.4452 32.7031 34.4297C34.4024 33.4302 36.1082 32.4406 37.8203 31.4609C37.8724 33.6484 37.9245 35.8359 37.9766 38.0234C39.5102 37.1536 41.0336 36.2682 42.5469 35.3672C42.5599 33.1272 42.599 30.8876 42.6641 28.6484C44.5624 27.5809 46.4374 26.4872 48.2891 25.3672ZM37.9766 44.1172C38.0801 44.4122 38.1321 44.7377 38.1328 45.0938C38.1198 45.4193 38.1068 45.7448 38.0938 46.0703C37.0715 46.6791 36.0429 47.2781 35.0078 47.8672C34.9168 47.2177 34.9038 46.5666 34.9688 45.9141C35.9847 45.3258 36.9873 44.7268 37.9766 44.1172Z" fill="white"/>
<path opacity="0.973" fill-rule="evenodd" clip-rule="evenodd" d="M45.7891 36.9297C48.3841 36.6866 50.4545 37.5981 52 39.664C53.1613 41.5667 53.3696 43.5719 52.625 45.6797C51.1155 48.7718 48.6545 50.0348 45.2422 49.4687C42.1883 48.5453 40.5477 46.488 40.3203 43.2969C40.5669 39.8088 42.3898 37.6864 45.7891 36.9297ZM49.3047 40.5234C50.2263 40.4679 50.6039 40.8845 50.4375 41.7734C49.0679 43.2733 47.6226 44.6926 46.1016 46.0312C45.7815 46.0808 45.495 46.0027 45.2422 45.7969C44.4716 45.0523 43.7294 44.2841 43.0156 43.4922C42.8107 42.7829 43.0711 42.3401 43.7969 42.164C43.9782 42.196 44.1474 42.2612 44.3047 42.3594C44.8136 42.8813 45.3345 43.3891 45.8672 43.8828C47.0167 42.7592 48.1626 41.6394 49.3047 40.5234Z" fill="white"/>
<defs>
<linearGradient id="paint0_linear_29_382" x1="34.5" y1="0" x2="34.5" y2="68" gradientUnits="userSpaceOnUse">
<stop stop-color="#188DCD"/>
<stop offset="1" stop-color="#29BCEE"/>
</linearGradient>
</defs>
</svg>
