<svg width="69" height="68" viewBox="0 0 69 68" fill="none" xmlns="http://www.w3.org/2000/svg">
<rect x="0.700195" width="68" height="68" rx="10" fill="url(#paint0_linear_29_381)"/>
<path opacity="0.869" fill-rule="evenodd" clip-rule="evenodd" d="M36.3019 16.5391C38.6765 17.2785 41.0463 18.0337 43.4113 18.8047C43.4243 21.3309 43.4113 23.8569 43.3722 26.3828C43.2522 27.4558 42.8356 28.3933 42.1222 29.1953C40.504 30.8134 38.6681 32.1285 36.6144 33.1406C34.4406 32.2992 32.5265 31.0363 30.8722 29.3516C30.2256 28.6315 29.7829 27.7981 29.5441 26.8516C29.479 24.1689 29.492 21.4866 29.5832 18.8047C31.8411 18.0781 34.0807 17.3229 36.3019 16.5391ZM36.3019 17.3203C38.4304 17.9386 40.5267 18.6418 42.591 19.4297C42.6431 21.8516 42.6431 24.2734 42.591 26.6953C42.4414 27.2548 42.2071 27.7756 41.8879 28.2578C40.3583 30.0116 38.5354 31.3658 36.4191 32.3203C34.3432 31.3731 32.5464 30.045 31.0285 28.3359C30.6418 27.8228 30.3814 27.2499 30.2472 26.6172C30.1951 24.2474 30.1951 21.8776 30.2472 19.5078C30.2713 19.4447 30.3104 19.3926 30.3644 19.3516C32.3516 18.6732 34.3307 17.9961 36.3019 17.3203ZM39.6613 21.1484C40.1879 21.1399 40.3572 21.3742 40.1691 21.8516C38.5251 23.5347 36.8454 25.1753 35.13 26.7734C35.0289 26.7267 34.9247 26.6877 34.8175 26.6562C34.0469 25.9117 33.3047 25.1435 32.591 24.3516C32.5666 23.9395 32.7619 23.7702 33.1769 23.8438C33.7759 24.4427 34.3748 25.0416 34.9738 25.6406C35.0519 25.6927 35.13 25.6927 35.2082 25.6406C36.7083 24.1535 38.1927 22.6562 39.6613 21.1484Z" fill="white"/>
<path opacity="0.978" fill-rule="evenodd" clip-rule="evenodd" d="M48.8018 37.6328C50.8371 37.4934 51.7355 38.4309 51.4971 40.4453C51.3469 40.9086 51.0735 41.2862 50.6768 41.5781C46.6143 44.1302 42.5518 46.6822 38.4893 49.2344C37.679 49.6949 36.8196 49.8251 35.9111 49.625C32.8968 48.8718 29.889 48.1036 26.8877 47.3203C26.2198 47.6869 25.5557 48.0645 24.8955 48.4531C24.7749 48.5458 24.6446 48.5719 24.5049 48.5312C23.2411 46.4985 22.0171 44.4412 20.833 42.3594C22.6929 41.1555 24.5939 40.0097 26.5361 38.9219C27.3604 38.5631 28.2198 38.4329 29.1143 38.5312C31.9798 39.1354 34.8184 39.8386 37.6299 40.6406C38.6081 41.5541 38.6602 42.5176 37.7861 43.5312C37.4117 43.7906 36.995 43.9338 36.5361 43.9609C34.5817 43.6569 32.6286 43.3444 30.6768 43.0234C30.174 43.0395 30.0307 43.2739 30.2471 43.7265C32.0446 44.0978 33.8544 44.4233 35.6768 44.7031C36.4343 44.8949 37.1636 44.8168 37.8643 44.4687C41.5044 42.1674 45.1503 39.8888 48.8018 37.6328Z" fill="white"/>
<path opacity="0.958" fill-rule="evenodd" clip-rule="evenodd" d="M18.8797 41.0703C18.9715 41.0532 19.0496 41.0792 19.114 41.1485C21.0541 44.4037 22.9943 47.6589 24.9344 50.9141C24.9929 51.0028 24.9799 51.0809 24.8953 51.1485C24.2703 51.5131 23.6453 51.8776 23.0203 52.2422C20.6715 49.1864 18.3408 46.1134 16.0281 43.0235C15.9696 42.9348 15.9826 42.8567 16.0672 42.7891C17.0357 42.2534 17.9732 41.6805 18.8797 41.0703Z" fill="white"/>
<defs>
<linearGradient id="paint0_linear_29_381" x1="34.7002" y1="0" x2="34.7002" y2="68" gradientUnits="userSpaceOnUse">
<stop stop-color="#188DCD"/>
<stop offset="1" stop-color="#29BCEE"/>
</linearGradient>
</defs>
</svg>
