<svg width="69" height="68" viewBox="0 0 69 68" fill="none" xmlns="http://www.w3.org/2000/svg">
<rect x="0.100098" width="68" height="68" rx="10" fill="url(#paint0_linear_29_380)"/>
<path opacity="0.974" fill-rule="evenodd" clip-rule="evenodd" d="M30.8579 18.1797C32.9414 18.1667 35.0247 18.1797 37.1079 18.2187C37.2511 18.2578 37.3423 18.349 37.3814 18.4922C37.4204 19.4033 37.4335 20.3147 37.4204 21.2266C35.1288 21.2266 32.8371 21.2266 30.5454 21.2266C30.5324 20.3408 30.5454 19.4553 30.5845 18.5703C30.6624 18.4279 30.7535 18.2977 30.8579 18.1797Z" fill="white"/>
<path opacity="0.974" fill-rule="evenodd" clip-rule="evenodd" d="M26.7954 22.3985C31.7208 22.3606 36.6427 22.3996 41.561 22.5156C41.9496 22.7476 42.223 23.0731 42.3814 23.4922C42.4204 24.9242 42.4335 26.3566 42.4204 27.7891C39.986 26.9038 37.5642 25.9792 35.1548 25.0156C34.7573 24.8656 34.3536 24.7485 33.9439 24.6641C31.1895 25.656 28.4421 26.6717 25.7017 27.711C25.6886 26.3045 25.7017 24.8982 25.7407 23.4922C25.9245 22.957 26.276 22.5924 26.7954 22.3985Z" fill="white"/>
<path opacity="0.974" fill-rule="evenodd" clip-rule="evenodd" d="M33.8266 25.8359C38.2648 27.4761 42.6919 29.1558 47.1079 30.875C47.1991 30.9662 47.2902 31.0573 47.3813 31.1484C47.4243 32.378 47.3591 33.602 47.186 34.8203C42.7721 33.3447 38.358 31.8603 33.9438 30.3672C29.5616 31.9277 25.1736 33.4642 20.7798 34.9766C20.5898 33.707 20.5247 32.4309 20.5845 31.1484C20.6137 31.0769 20.6528 31.0117 20.7016 30.9531C25.0875 29.2529 29.4625 27.5472 33.8266 25.8359Z" fill="white"/>
<path opacity="0.985" fill-rule="evenodd" clip-rule="evenodd" d="M33.9047 31.5391C38.2795 33.0102 42.6284 34.5337 46.9516 36.1094C46.4943 38.588 45.687 40.9448 44.5297 43.1797C45.2683 43.2377 45.9974 43.3548 46.7172 43.5312C47.5355 43.8623 48.3689 44.1488 49.2172 44.3906C49.8903 44.4996 50.5674 44.5777 51.2484 44.625C51.5834 44.9196 51.6485 45.2712 51.4437 45.6797C51.2165 45.8639 50.9561 45.942 50.6625 45.9141C49.8809 45.8815 49.1127 45.7643 48.3578 45.5625C47.5403 45.2292 46.707 44.9427 45.8578 44.7031C44.5426 44.4148 43.2405 44.4669 41.9516 44.8594C39.6634 45.9345 37.2935 46.1689 34.8422 45.5625C33.4975 44.9105 32.0782 44.559 30.5844 44.5078C29.9393 44.5523 29.3012 44.6434 28.6703 44.7812C27.7541 45.1561 26.8166 45.4686 25.8578 45.7188C24.6083 45.9791 23.3583 45.9791 22.1078 45.7188C21.1183 45.4844 20.1548 45.1719 19.2172 44.7812C18.4432 44.6257 17.662 44.5216 16.8734 44.4688C16.5213 44.1521 16.4692 43.7875 16.7172 43.375C16.8703 43.3023 17.0265 43.2372 17.1859 43.1797C17.8097 43.2383 18.4347 43.3034 19.0609 43.375C20.1075 43.6978 21.1491 44.0363 22.1859 44.3906C22.8573 44.5332 23.5344 44.5853 24.2172 44.5469C22.6398 41.9768 21.5722 39.2034 21.0141 36.2266C25.3179 34.662 29.6148 33.0995 33.9047 31.5391Z" fill="white"/>
<path opacity="0.936" fill-rule="evenodd" clip-rule="evenodd" d="M17.0296 47.0859C18.6478 47.0803 20.1842 47.4319 21.639 48.1406C22.9549 48.5184 24.2831 48.5704 25.6234 48.2969C26.4717 48.0551 27.305 47.7686 28.1234 47.4375C30.5514 46.8262 32.8951 47.0606 35.1546 48.1406C37.2889 48.7111 39.3461 48.5027 41.3265 47.5156C43.0313 47.0147 44.75 46.9627 46.4828 47.3594C47.2977 47.6235 48.1049 47.91 48.9046 48.2188C49.6786 48.3743 50.4599 48.4784 51.2484 48.5313C51.484 48.6507 51.5882 48.846 51.5609 49.1172C51.5711 49.5627 51.3498 49.7971 50.8968 49.8203C49.9543 49.7999 49.0298 49.6567 48.1234 49.3906C46.3116 48.4708 44.4106 48.2104 42.4203 48.6094C41.3932 48.9927 40.3515 49.3313 39.2953 49.625C37.1195 50.0227 35.0361 49.7363 33.0453 48.7656C31.6781 48.3699 30.2978 48.3179 28.9046 48.6094C27.999 48.9373 27.0875 49.2498 26.1703 49.5469C24.6859 49.9115 23.2015 49.9115 21.7171 49.5469C20.7789 49.2338 19.8414 48.9213 18.9046 48.6094C18.2337 48.4799 17.5566 48.4018 16.8734 48.375C16.5384 48.0804 16.4733 47.7288 16.6781 47.3203C16.7881 47.2202 16.9053 47.1421 17.0296 47.0859Z" fill="white"/>
<defs>
<linearGradient id="paint0_linear_29_380" x1="34.1001" y1="0" x2="34.1001" y2="68" gradientUnits="userSpaceOnUse">
<stop stop-color="#188DCD"/>
<stop offset="1" stop-color="#29BCEE"/>
</linearGradient>
</defs>
</svg>
