<svg width="69" height="68" viewBox="0 0 69 68" fill="none" xmlns="http://www.w3.org/2000/svg">
<rect x="0.299805" width="68" height="68" rx="10" fill="url(#paint0_linear_29_385)"/>
<path opacity="0.983" fill-rule="evenodd" clip-rule="evenodd" d="M29.2607 14.7422C29.4573 14.7621 29.6396 14.8272 29.8076 14.9375C35.2247 18.141 40.6675 21.3051 46.1357 24.4297C46.2155 24.4689 46.2286 24.5209 46.1748 24.5859C43.3267 26.2377 40.4751 27.8783 37.6201 29.5078C31.9725 26.2933 26.3475 23.0381 20.7451 19.7422C20.8315 19.6334 20.9356 19.5423 21.0576 19.4688C23.8224 17.9306 26.5568 16.3551 29.2607 14.7422Z" fill="white"/>
<path opacity="0.954" fill-rule="evenodd" clip-rule="evenodd" d="M20.2764 20.3672C25.9314 23.5919 31.5694 26.8471 37.1904 30.1328C37.2555 33.4404 37.2425 36.7477 37.1514 40.0547C31.5293 36.8151 25.9173 33.5598 20.3154 30.2891C20.2764 26.9819 20.2633 23.6746 20.2764 20.3672ZM22.3857 23.3359C22.5319 23.364 22.6491 23.4421 22.7373 23.5703C22.7894 25.5495 22.7894 27.5287 22.7373 29.5078C22.5289 29.7162 22.3207 29.7162 22.1123 29.5078C22.0602 27.5287 22.0602 25.5495 22.1123 23.5703C22.2018 23.4816 22.2929 23.4034 22.3857 23.3359ZM24.3389 24.6641C24.5769 24.6137 24.7461 24.6918 24.8467 24.8984C24.8988 26.8255 24.8988 28.7526 24.8467 30.6797C24.5675 31.1006 24.3331 31.0746 24.1436 30.6016C24.0914 28.7266 24.0914 26.8516 24.1436 24.9766C24.1953 24.8606 24.2604 24.7565 24.3389 24.6641ZM26.5264 25.8359C26.7 25.8108 26.8432 25.8629 26.9561 25.9922C27.0082 27.9974 27.0082 30.0026 26.9561 32.0078C26.7207 32.2227 26.5124 32.1966 26.3311 31.9297C26.2789 29.9766 26.2789 28.0234 26.3311 26.0703C26.3856 25.9773 26.4507 25.8991 26.5264 25.8359ZM28.7139 27.0078C28.8489 27.056 28.9661 27.1341 29.0654 27.2422C29.1175 29.2213 29.1175 31.2005 29.0654 33.1797C28.8571 33.388 28.6488 33.388 28.4404 33.1797C28.3883 31.2005 28.3883 29.2213 28.4404 27.2422C28.5299 27.1534 28.6211 27.0753 28.7139 27.0078ZM30.7451 28.3359C31.0036 28.2948 31.1728 28.399 31.2529 28.6484C31.305 30.5495 31.305 32.4505 31.2529 34.3516C31.0186 34.7682 30.7842 34.7682 30.5498 34.3516C30.4977 32.4505 30.4977 30.5495 30.5498 28.6484C30.5873 28.5209 30.6524 28.4167 30.7451 28.3359ZM32.8545 29.5078C33.0171 29.5056 33.1604 29.5577 33.2842 29.6641C33.3363 31.6693 33.3363 33.6745 33.2842 35.6797C33.0489 35.8945 32.8405 35.8685 32.6592 35.6016C32.6071 33.6484 32.6071 31.6953 32.6592 29.7422C32.7408 29.674 32.8059 29.5959 32.8545 29.5078ZM34.9639 30.8359C35.1626 30.805 35.3319 30.8571 35.4717 30.9922C35.5238 32.9713 35.5238 34.9505 35.4717 36.9297C35.2633 37.138 35.055 37.138 34.8467 36.9297C34.7946 34.9505 34.7946 32.9713 34.8467 30.9922C34.9027 30.9497 34.9418 30.8976 34.9639 30.8359Z" fill="white"/>
<path opacity="0.888" fill-rule="evenodd" clip-rule="evenodd" d="M46.4484 25.2109C46.5525 26.8377 46.6047 28.4913 46.6047 30.1719C46.5916 31.8255 46.5786 33.4791 46.5656 35.1328C43.7336 36.7636 40.9082 38.4042 38.089 40.0547C37.9979 36.7477 37.9849 33.4404 38.05 30.1328C40.8479 28.4802 43.6475 26.8396 46.4484 25.2109ZM45.3547 26.6953C45.6043 26.6532 45.7996 26.7313 45.9406 26.9297C45.9927 29.5078 45.9927 32.0859 45.9406 34.6641C43.6525 36.0229 41.3479 37.351 39.0265 38.6484C38.9484 38.6094 38.8703 38.5703 38.7922 38.5312C38.6882 35.8903 38.6882 33.2471 38.7922 30.6016C40.9846 29.2974 43.1721 27.9954 45.3547 26.6953Z" fill="white"/>
<path opacity="0.872" fill-rule="evenodd" clip-rule="evenodd" d="M44.964 27.7891C45.0422 27.7891 45.1203 27.7891 45.1984 27.7891C45.2244 29.9772 45.1984 32.1647 45.1203 34.3516C44.7693 34.514 44.4307 34.6962 44.1047 34.8984C44.0135 32.7374 44.0005 30.576 44.0656 28.4141C44.3907 28.2329 44.6902 28.0245 44.964 27.7891Z" fill="white"/>
<path opacity="0.958" fill-rule="evenodd" clip-rule="evenodd" d="M43.089 28.8828C43.2304 29.5293 43.2954 30.2064 43.2843 30.9141C43.3364 32.4245 43.3364 33.9349 43.2843 35.4453C42.6786 35.7937 42.0667 36.1323 41.4484 36.4609C41.3572 34.2739 41.3443 32.0864 41.4093 29.8984C41.9937 29.5873 42.5536 29.2488 43.089 28.8828Z" fill="white"/>
<path opacity="0.922" fill-rule="evenodd" clip-rule="evenodd" d="M47.3857 29.7422C48.8392 30.5212 50.2715 31.3415 51.6826 32.2031C50.2865 33.0391 48.8803 33.8594 47.4639 34.6641C47.3857 33.0243 47.3597 31.3837 47.3857 29.7422Z" fill="white"/>
<path opacity="0.94" fill-rule="evenodd" clip-rule="evenodd" d="M40.5107 30.3672C40.6017 32.5675 40.6146 34.781 40.5498 37.0078C40.2113 37.2162 39.8727 37.4245 39.5342 37.6328C39.5011 35.9009 39.462 34.1691 39.417 32.4375C39.443 31.9557 39.4691 31.474 39.4951 30.9922C39.8518 30.8015 40.1903 30.5931 40.5107 30.3672Z" fill="white"/>
<path opacity="0.963" fill-rule="evenodd" clip-rule="evenodd" d="M19.8076 30.9922C20.1057 31.0626 20.3922 31.1798 20.667 31.3438C25.9406 34.4624 31.2271 37.5614 36.5264 40.6406C36.6635 40.6969 36.7286 40.788 36.7217 40.9141C35.8754 41.3959 35.0289 41.8776 34.1826 42.3594C33.964 42.5089 33.7296 42.587 33.4795 42.5938C27.9066 39.3385 22.3336 36.0834 16.7607 32.8281C17.7813 32.2141 18.797 31.6022 19.8076 30.9922Z" fill="white"/>
<path opacity="0.876" fill-rule="evenodd" clip-rule="evenodd" d="M51.9951 32.8672C52.0993 34.494 52.1514 36.1476 52.1514 37.8281C52.1383 39.4818 52.1254 41.1354 52.1123 42.7891C49.2605 44.4755 46.396 46.1421 43.5186 47.7891C43.4665 44.4818 43.4665 41.1745 43.5186 37.8672C46.3554 36.2083 49.181 34.5416 51.9951 32.8672ZM50.9014 34.2734C51.1598 34.2323 51.329 34.3365 51.4092 34.5859C51.4862 37.1968 51.4601 39.8009 51.3311 42.3984C49.1202 43.7709 46.8676 45.0729 44.5733 46.3047C44.3444 46.2712 44.2012 46.141 44.1436 45.9141C44.0671 43.3312 44.0932 40.753 44.2217 38.1797C46.4468 36.8657 48.6733 35.5636 50.9014 34.2734Z" fill="white"/>
<path opacity="0.953" fill-rule="evenodd" clip-rule="evenodd" d="M16.3701 33.4922C21.9863 36.7366 27.5983 39.9918 33.2061 43.2578C33.2711 46.5654 33.2582 49.8727 33.167 53.1797C27.5618 49.9541 21.9759 46.6988 16.4092 43.4141C16.3701 40.1069 16.3571 36.7996 16.3701 33.4922ZM18.4014 36.4609C18.5891 36.4526 18.7323 36.5307 18.8311 36.6953C18.8831 38.6484 18.8831 40.6016 18.8311 42.5547C18.6609 42.8332 18.4526 42.8593 18.2061 42.6328C18.154 40.6276 18.154 38.6224 18.2061 36.6172C18.2838 36.573 18.3489 36.5209 18.4014 36.4609ZM20.3545 37.7891C20.5129 37.7764 20.6691 37.7895 20.8232 37.8281C20.8772 37.9115 20.9163 38.0027 20.9404 38.1016C20.9925 40.0026 20.9925 41.9037 20.9404 43.8047C20.6935 44.1873 20.4591 44.1873 20.2373 43.8047C20.1852 41.8776 20.1852 39.9505 20.2373 38.0234C20.2774 37.9432 20.3165 37.8651 20.3545 37.7891ZM22.6201 38.9609C22.7937 38.9358 22.937 38.9879 23.0498 39.1172C23.1019 41.1224 23.1019 43.1276 23.0498 45.1328C22.8079 45.3557 22.5996 45.3297 22.4248 45.0547C22.3727 43.0755 22.3727 41.0963 22.4248 39.1172C22.5025 39.073 22.5676 39.0209 22.6201 38.9609ZM24.7295 40.2109C24.9364 40.2295 25.0796 40.3337 25.1592 40.5234C25.2113 42.4766 25.2113 44.4297 25.1592 46.3828C24.9446 46.5808 24.7363 46.5808 24.5342 46.3828C24.4821 44.3776 24.4821 42.3724 24.5342 40.3672C24.6119 40.323 24.677 40.2709 24.7295 40.2109ZM26.7607 41.4609C26.9595 41.43 27.1288 41.4821 27.2686 41.6172C27.3207 43.6224 27.3207 45.6276 27.2686 47.6328C27.0408 47.8336 26.8325 47.8076 26.6436 47.5547C26.5914 45.6016 26.5914 43.6484 26.6436 41.6953C26.6836 41.6151 26.7227 41.537 26.7607 41.4609ZM28.9482 42.6328C29.143 42.6195 29.2862 42.6976 29.3779 42.8672C29.43 44.8463 29.43 46.8255 29.3779 48.8047C29.1696 49.013 28.9613 49.013 28.7529 48.8047C28.7008 46.7995 28.7008 44.7943 28.7529 42.7891C28.8307 42.7448 28.8957 42.6927 28.9482 42.6328ZM30.9795 43.9609C31.1379 43.9483 31.2941 43.9613 31.4482 44C31.4971 44.0586 31.5362 44.1237 31.5654 44.1953C31.6175 46.1224 31.6175 48.0495 31.5654 49.9766C31.2708 50.3128 31.0364 50.2868 30.8623 49.8984C30.8102 48.0234 30.8102 46.1484 30.8623 44.2734C30.8943 44.164 30.9334 44.0598 30.9795 43.9609Z" fill="white"/>
<path opacity="0.915" fill-rule="evenodd" clip-rule="evenodd" d="M50.4329 35.4453C50.5686 35.6412 50.6336 35.8756 50.6282 36.1484C50.6803 38.1016 50.6803 40.0547 50.6282 42.0078C50.3216 42.2198 49.9961 42.4021 49.6516 42.5547C49.5511 40.3679 49.5121 38.1804 49.5344 35.9922C49.8584 35.8373 50.1579 35.655 50.4329 35.4453Z" fill="white"/>
<path opacity="0.926" fill-rule="evenodd" clip-rule="evenodd" d="M48.7139 36.4609C48.8048 38.6352 48.8178 40.8227 48.7529 43.0234C48.1518 43.4605 47.5137 43.8251 46.8389 44.1172C46.8258 41.9555 46.8389 39.7941 46.8779 37.6328C47.4883 37.2305 48.1004 36.8399 48.7139 36.4609Z" fill="white"/>
<path opacity="0.935" fill-rule="evenodd" clip-rule="evenodd" d="M45.9014 38.1016C46.0055 39.168 46.0576 40.2617 46.0576 41.3828C46.0316 42.4766 46.0055 43.5703 45.9795 44.6641C45.6603 44.8562 45.3347 45.0385 45.0029 45.2109C44.9508 43.0495 44.9508 40.888 45.0029 38.7266C45.3008 38.5069 45.6003 38.2985 45.9014 38.1016Z" fill="white"/>
<path opacity="0.86" fill-rule="evenodd" clip-rule="evenodd" d="M42.542 38.3359C42.6461 39.9627 42.6982 41.6163 42.6982 43.2969C42.6852 44.9505 42.6722 46.6041 42.6592 48.2578C39.793 49.9314 36.9153 51.572 34.0264 53.1797C34.0003 49.872 34.0264 46.5647 34.1045 43.2578C36.9219 41.6151 39.7344 39.9745 42.542 38.3359ZM41.4482 39.8203C41.6945 39.778 41.8898 39.8562 42.0342 40.0547C42.0987 42.6361 42.0857 45.2142 41.9951 47.7891C39.729 49.1566 37.4374 50.4848 35.1201 51.7734C35.042 51.7344 34.9639 51.6953 34.8857 51.6562C34.795 49.0186 34.7819 46.3754 34.8467 43.7266C37.0585 42.4323 39.2591 41.1302 41.4482 39.8203Z" fill="white"/>
<path opacity="0.873" fill-rule="evenodd" clip-rule="evenodd" d="M41.0578 40.9141C41.1359 40.9141 41.214 40.9141 41.2922 40.9141C41.3182 43.1022 41.2922 45.2897 41.214 47.4766C40.863 47.639 40.5245 47.8212 40.1984 48.0234C40.1072 45.8364 40.0943 43.6489 40.1593 41.4609C40.4573 41.2669 40.7568 41.0845 41.0578 40.9141Z" fill="white"/>
<path opacity="0.926" fill-rule="evenodd" clip-rule="evenodd" d="M39.1826 41.9297C39.2867 42.9961 39.3388 44.0898 39.3388 45.2109C39.3258 46.3047 39.3128 47.3984 39.2998 48.4922C38.6942 48.8666 38.0823 49.2312 37.4638 49.5859C37.3597 47.3984 37.3597 45.2109 37.4638 43.0234C38.0608 42.685 38.6337 42.3204 39.1826 41.9297Z" fill="white"/>
<path opacity="0.923" fill-rule="evenodd" clip-rule="evenodd" d="M36.5264 43.4922C36.6854 45.6919 36.7114 47.9054 36.6045 50.1328C36.2555 50.3335 35.891 50.4898 35.5107 50.6016C35.4847 48.4395 35.5107 46.278 35.5889 44.1172C35.9258 43.9348 36.2383 43.7266 36.5264 43.4922Z" fill="white"/>
<defs>
<linearGradient id="paint0_linear_29_385" x1="34.2998" y1="0" x2="34.2998" y2="68" gradientUnits="userSpaceOnUse">
<stop stop-color="#188DCD"/>
<stop offset="1" stop-color="#29BCEE"/>
</linearGradient>
</defs>
</svg>
