<svg width="69" height="68" viewBox="0 0 69 68" fill="none" xmlns="http://www.w3.org/2000/svg">
<g clip-path="url(#clip0_29_649)">
<path opacity="0.969" fill-rule="evenodd" clip-rule="evenodd" d="M54.4609 17.5547C54.4609 18.0495 54.4609 18.5443 54.4609 19.0391C53.7274 21.0868 52.2952 21.881 50.1641 21.4219C49.2489 21.0927 48.5979 20.4808 48.2109 19.586C47.1705 19.5079 46.1289 19.4818 45.0859 19.5078C45.099 22.1121 45.0859 24.7163 45.0469 27.3203C44.937 27.7167 44.6897 27.9901 44.3047 28.1406C43.3151 28.1927 42.3255 28.1927 41.3359 28.1406C40.9528 27.3353 40.5622 26.5411 40.1641 25.7578C40.9974 25.7578 41.8307 25.7578 42.6641 25.7578C42.651 23.1795 42.6641 20.6014 42.7031 18.0235C42.8716 17.4647 43.2492 17.1653 43.8359 17.125C45.295 17.112 46.7533 17.0729 48.2109 17.0078C49.1364 15.3053 50.5427 14.7193 52.4297 15.25C53.4789 15.6975 54.1559 16.4657 54.4609 17.5547Z" fill="white"/>
<path opacity="0.983" fill-rule="evenodd" clip-rule="evenodd" d="M14.4609 35.3672C14.4609 34.4297 14.4609 33.4922 14.4609 32.5547C15.0487 28.3185 17.1581 25.0763 20.7891 22.8281C25.1812 20.4663 29.5562 20.4923 33.9141 22.9062C37.9071 25.4865 39.9905 29.1715 40.1641 33.9609C39.9117 39.4833 37.3076 43.4286 32.3516 45.7969C27.4828 47.6386 23.0037 46.9615 18.9141 43.7656C16.3897 41.5162 14.9053 38.7168 14.4609 35.3672ZM32.8203 29.5859C33.6045 29.5693 34.3857 29.6083 35.1641 29.7031C37.0594 30.3493 37.8537 31.6644 37.5469 33.6484C36.9646 35.315 35.7797 36.1222 33.9922 36.0703C34.0052 36.5137 33.9921 36.9565 33.9531 37.3984C33.6891 38.11 33.1813 38.3834 32.4297 38.2187C32.1259 38.0451 31.9046 37.7978 31.7656 37.4765C31.7135 35.1328 31.7135 32.789 31.7656 30.4453C31.9727 29.9633 32.3243 29.6768 32.8203 29.5859ZM22.0391 29.664C22.8337 29.5332 23.3416 29.8457 23.5625 30.6015C23.6388 32.898 23.6127 35.1897 23.4844 37.4765C23.0346 38.1997 22.4487 38.343 21.7266 37.9062C21.0528 36.9103 20.3887 35.9077 19.7344 34.8984C19.7083 35.7578 19.6823 36.6172 19.6562 37.4765C19.3931 38.1485 18.9113 38.3959 18.2109 38.2187C17.826 38.0682 17.5786 37.7948 17.4688 37.3984C17.3925 35.0759 17.4185 32.7582 17.5469 30.4453C17.9933 29.7235 18.5792 29.5802 19.3047 30.0156C19.9785 31.0115 20.6425 32.0141 21.2969 33.0234C21.3229 32.164 21.349 31.3047 21.375 30.4453C21.5295 30.122 21.7509 29.8616 22.0391 29.664ZM26.6484 29.664C27.3486 29.5258 27.8304 29.7862 28.0938 30.4453C28.1328 32.294 28.1459 34.143 28.1328 35.9922C28.9179 35.8582 29.4778 36.1447 29.8125 36.8515C29.9127 37.6628 29.5612 38.1445 28.7578 38.2969C28.0505 38.363 27.3474 38.3369 26.6484 38.2187C26.2634 38.0682 26.0161 37.7948 25.9062 37.3984C25.8541 35.1068 25.8541 32.8151 25.9062 30.5234C26.0312 30.1255 26.2786 29.839 26.6484 29.664Z" fill="white"/>
<path opacity="0.971" fill-rule="evenodd" clip-rule="evenodd" d="M54.4609 33.2578C54.4609 33.7526 54.4609 34.2474 54.4609 34.7422C53.7672 36.7043 52.387 37.4985 50.3203 37.125C49.3603 36.8027 48.6572 36.1907 48.2109 35.2891C46.2845 35.2109 44.3575 35.1849 42.4297 35.2109C42.5312 34.4034 42.5312 33.5961 42.4297 32.7891C44.3575 32.8151 46.2845 32.7891 48.2109 32.7109C48.8113 31.4405 49.814 30.7634 51.2188 30.6797C52.8912 30.8051 53.9719 31.6645 54.4609 33.2578Z" fill="white"/>
<path opacity="0.909" fill-rule="evenodd" clip-rule="evenodd" d="M33.9922 31.9297C35.135 31.7571 35.5907 32.2258 35.3594 33.3359C34.9859 33.7129 34.5302 33.8692 33.9922 33.8047C33.9922 33.1797 33.9922 32.5547 33.9922 31.9297Z" fill="white"/>
<path opacity="0.969" fill-rule="evenodd" clip-rule="evenodd" d="M54.4609 48.8828C54.4609 49.3776 54.4609 49.8724 54.4609 50.3672C53.7672 52.3293 52.387 53.1235 50.3203 52.75C49.3603 52.4277 48.6572 51.8157 48.2109 50.9141C46.6491 50.849 45.0866 50.8099 43.5234 50.7969C43.0938 50.6797 42.8203 50.4063 42.7031 49.9766C42.6641 47.3725 42.651 44.7684 42.6641 42.1641C41.8043 42.1771 40.9449 42.1641 40.0859 42.125C40.5634 41.3785 40.9801 40.5973 41.3359 39.7813C42.2474 39.7292 43.1588 39.7292 44.0703 39.7813C44.4795 39.8516 44.779 40.073 44.9688 40.4453C45.0843 43.0967 45.1234 45.753 45.0859 48.4141C46.1289 48.4401 47.1705 48.414 48.2109 48.336C48.8113 47.0656 49.814 46.3885 51.2188 46.3047C52.8919 46.4292 53.9726 47.2885 54.4609 48.8828Z" fill="white"/>
</g>
<rect x="0.5" width="68" height="68" rx="10" fill="url(#paint0_linear_29_649)"/>
<path opacity="0.985" fill-rule="evenodd" clip-rule="evenodd" d="M25.242 16.8516C26.2089 16.8248 27.1724 16.8638 28.1326 16.9688C30.1153 17.2847 31.3522 18.4175 31.8436 20.3672C32.6178 23.0677 32.149 25.5157 30.4373 27.7109C28.6492 29.6415 26.5528 30.0712 24.1482 29C22.3556 27.8561 21.2749 26.2285 20.9061 24.1172C20.7861 22.6929 20.8903 21.2867 21.2186 19.8984C21.8352 17.9296 23.1764 16.914 25.242 16.8516Z" fill="white"/>
<path opacity="0.975" fill-rule="evenodd" clip-rule="evenodd" d="M40.7891 29.1172C41.7864 29.0812 42.776 29.1203 43.7578 29.2344C43.8782 29.3578 43.9694 29.501 44.0313 29.6641C44.1517 30.1202 44.308 30.5629 44.5 30.9922C44.6172 31.1094 44.7344 31.2266 44.8516 31.3438C45.34 31.5674 45.8348 31.7756 46.336 31.9688C46.5963 32.0209 46.8568 32.0209 47.1172 31.9688C47.5121 31.7192 47.9288 31.5109 48.3672 31.3438C48.5495 31.2917 48.7318 31.2917 48.9141 31.3438C49.6766 32.0538 50.3797 32.809 51.0235 33.6094C50.8551 34.0894 50.6337 34.5452 50.3594 34.9766C50.2886 35.1519 50.2495 35.3342 50.2422 35.5235C50.3701 36.1181 50.5654 36.691 50.8281 37.2422C50.9421 37.4344 51.0853 37.6037 51.2578 37.75C51.6871 37.942 52.1299 38.0983 52.586 38.2188C52.7922 38.2888 52.9615 38.406 53.0938 38.5703C53.1459 39.586 53.1459 40.6016 53.0938 41.6172C53.0547 41.7604 52.9635 41.8516 52.8203 41.8906C52.2479 42.0399 51.701 42.2482 51.1797 42.5156C50.8064 43.0869 50.507 43.6988 50.2813 44.3516C50.2292 44.5338 50.2292 44.7162 50.2813 44.8985C50.549 45.4603 50.7964 46.0332 51.0235 46.6172C50.3921 47.4701 49.663 48.2383 48.836 48.9219C48.6474 48.9597 48.4652 48.9336 48.2891 48.8438C47.9381 48.6813 47.5996 48.4991 47.2735 48.2969C46.9102 48.1478 46.5456 48.1478 46.1797 48.2969C45.7695 48.4944 45.3528 48.6767 44.9297 48.8438C44.7604 48.961 44.6172 49.1042 44.5 49.2735C44.308 49.7028 44.1517 50.1455 44.0313 50.6016C43.9694 50.7646 43.8782 50.9079 43.7578 51.0313C42.7162 51.0834 41.6745 51.0834 40.6328 51.0313C40.4954 50.9525 40.4042 50.8353 40.3594 50.6797C40.2128 50.1713 40.0305 49.6765 39.8125 49.1953C39.7213 49.1042 39.6303 49.0131 39.5391 48.9219C38.8696 48.5599 38.1664 48.3255 37.4297 48.2188C36.9121 48.4514 36.3912 48.6858 35.8672 48.9219C35.737 48.974 35.6068 48.974 35.4766 48.9219C34.7865 48.2318 34.0963 47.5417 33.4063 46.8516C33.408 46.2737 33.5903 45.7528 33.9531 45.2891C34.067 44.9578 34.0931 44.6192 34.0313 44.2735C33.8274 43.8396 33.6451 43.397 33.4844 42.9453C33.3953 42.7806 33.2781 42.6374 33.1328 42.5156C32.6526 42.2978 32.1578 42.1155 31.6485 41.9688C31.4487 41.9153 31.3054 41.7981 31.2188 41.6172C31.1667 40.6276 31.1667 39.6381 31.2188 38.6485C31.3595 38.4404 31.5548 38.2971 31.8047 38.2188C32.4428 38.137 32.9767 37.8636 33.4063 37.3985C33.6299 36.91 33.8381 36.4153 34.0313 35.9141C34.0834 35.6797 34.0834 35.4453 34.0313 35.211C33.8266 34.8145 33.6313 34.4109 33.4453 34C33.3659 33.7823 33.3528 33.561 33.4063 33.336C34.0703 32.6719 34.7344 32.0078 35.3985 31.3438C35.9763 31.3455 36.4972 31.5278 36.961 31.8906C37.3185 32.006 37.6831 32.032 38.0547 31.9688C38.5235 31.7604 38.9922 31.5521 39.461 31.3438C39.6901 31.1669 39.8594 30.9455 39.9688 30.6797C40.0785 30.2202 40.2348 29.7774 40.4375 29.3516C40.5476 29.2515 40.6648 29.1734 40.7891 29.1172ZM41.336 34.4297C44.728 34.2942 46.8764 35.8567 47.7813 39.1172C48.098 41.6473 47.1996 43.6135 45.086 45.0156C42.4996 46.3165 40.1428 45.991 38.0156 44.0391C36.4357 42.2064 36.0712 40.1492 36.9219 37.8672C37.8382 35.9995 39.3096 34.8536 41.336 34.4297Z" fill="white"/>
<path opacity="0.937" fill-rule="evenodd" clip-rule="evenodd" d="M29.3047 29.8203C29.3979 29.857 29.45 29.9352 29.4609 30.0547C29.5482 30.4694 29.5873 30.8861 29.5781 31.3047C28.6476 32.1878 27.5409 32.6435 26.2578 32.6719C25.4566 32.4657 24.7014 32.1532 23.9922 31.7344C23.7747 31.5694 23.6184 31.361 23.5234 31.1094C23.5704 30.6991 23.6485 30.2955 23.7578 29.8984C25.6303 30.8574 27.4793 30.8314 29.3047 29.8203Z" fill="white"/>
<path opacity="0.978" fill-rule="evenodd" clip-rule="evenodd" d="M22.3516 31.6953C22.4588 31.6831 22.563 31.6961 22.6641 31.7344C23.1683 32.407 23.8194 32.8888 24.6172 33.1797C24.6432 33.3881 24.6693 33.5963 24.6953 33.8047C24.5499 36.7999 24.4327 39.7948 24.3438 42.7891C24.9427 43.5963 25.5416 44.4037 26.1406 45.2109C26.4761 45.5313 26.7886 45.5053 27.0781 45.1328C27.651 44.3516 28.224 43.5703 28.7969 42.7891C28.7306 39.702 28.6134 36.616 28.4453 33.5313C28.4713 33.4141 28.4974 33.2969 28.5234 33.1797C29.3195 32.891 29.9706 32.4093 30.4766 31.7344C31.3425 31.7946 32.1759 32.003 32.9766 32.3594C32.3588 32.8759 32.1895 33.5139 32.4688 34.2734C32.6663 34.7202 32.8616 35.1628 33.0547 35.6016C32.9125 35.9906 32.7692 36.3813 32.625 36.7734C32.5302 36.8945 32.413 36.9856 32.2734 37.0469C31.5618 37.1533 30.9498 37.4527 30.4375 37.9453C30.3155 38.1373 30.2373 38.3456 30.2031 38.5703C30.151 39.612 30.151 40.6537 30.2031 41.6953C30.2991 42.1094 30.5205 42.4349 30.8672 42.6719C31.3857 42.9575 31.9326 43.1659 32.5078 43.2969C32.7895 43.8029 32.9588 44.3368 33.0156 44.8984C32.5552 45.5313 32.3469 46.2344 32.3906 47.0078C32.4341 47.173 32.4993 47.3293 32.5859 47.4766C27.4559 47.5677 22.3257 47.5807 17.1953 47.5156C16.462 47.3813 16.0063 46.9516 15.8281 46.2266C15.776 43.4922 15.776 40.7578 15.8281 38.0234C16.066 35.2416 17.4852 33.3535 20.0859 32.3594C20.8401 32.0996 21.5953 31.8783 22.3516 31.6953Z" fill="white"/>
<path opacity="0.952" fill-rule="evenodd" clip-rule="evenodd" d="M25.7109 33.5703C26.2701 33.825 26.817 33.825 27.3516 33.5703C27.4126 33.6663 27.4516 33.7705 27.4688 33.8828C27.6012 36.7736 27.7053 39.6642 27.7812 42.5547C27.39 43.0627 26.9864 43.5575 26.5703 44.0391C26.0666 43.5128 25.6499 42.9269 25.3203 42.2812C25.4689 39.3789 25.5991 36.4752 25.7109 33.5703Z" fill="white"/>
<defs>
<linearGradient id="paint0_linear_29_649" x1="34.5" y1="0" x2="34.5" y2="68" gradientUnits="userSpaceOnUse">
<stop stop-color="#188DCD"/>
<stop offset="1" stop-color="#29BCEE"/>
</linearGradient>
<clipPath id="clip0_29_649">
<rect width="40" height="40" fill="white" transform="translate(14.5 14)"/>
</clipPath>
</defs>
</svg>
