<svg width="69" height="68" viewBox="0 0 69 68" fill="none" xmlns="http://www.w3.org/2000/svg">
<g clip-path="url(#clip0_29_648)">
<path opacity="0.969" fill-rule="evenodd" clip-rule="evenodd" d="M54.6611 17.5547C54.6611 18.0495 54.6611 18.5443 54.6611 19.0391C53.9276 21.0868 52.4954 21.881 50.3643 21.4219C49.4491 21.0927 48.7981 20.4808 48.4111 19.586C47.3707 19.5079 46.3291 19.4818 45.2861 19.5078C45.2992 22.1121 45.2861 24.7163 45.2471 27.3203C45.1372 27.7167 44.8899 27.9901 44.5049 28.1406C43.5153 28.1927 42.5257 28.1927 41.5361 28.1406C41.153 27.3353 40.7624 26.5411 40.3643 25.7578C41.1976 25.7578 42.0309 25.7578 42.8643 25.7578C42.8512 23.1795 42.8643 20.6014 42.9033 18.0235C43.0718 17.4647 43.4494 17.1653 44.0361 17.125C45.4952 17.112 46.9535 17.0729 48.4111 17.0078C49.3366 15.3053 50.7429 14.7193 52.6299 15.25C53.6791 15.6975 54.3561 16.4657 54.6611 17.5547Z" fill="white"/>
<path opacity="0.983" fill-rule="evenodd" clip-rule="evenodd" d="M14.6611 35.3672C14.6611 34.4297 14.6611 33.4922 14.6611 32.5547C15.2489 28.3185 17.3583 25.0763 20.9893 22.8281C25.3814 20.4663 29.7564 20.4923 34.1143 22.9062C38.1073 25.4865 40.1907 29.1715 40.3643 33.9609C40.1119 39.4833 37.5078 43.4286 32.5518 45.7969C27.683 47.6386 23.2039 46.9615 19.1143 43.7656C16.5899 41.5162 15.1055 38.7168 14.6611 35.3672ZM33.0205 29.5859C33.8046 29.5693 34.5859 29.6083 35.3643 29.7031C37.2596 30.3493 38.0539 31.6644 37.7471 33.6484C37.1648 35.315 35.9799 36.1222 34.1924 36.0703C34.2054 36.5137 34.1923 36.9565 34.1533 37.3984C33.8893 38.11 33.3815 38.3834 32.6299 38.2187C32.3261 38.0451 32.1048 37.7978 31.9658 37.4765C31.9137 35.1328 31.9137 32.789 31.9658 30.4453C32.1729 29.9633 32.5245 29.6768 33.0205 29.5859ZM22.2393 29.664C23.0339 29.5332 23.5418 29.8457 23.7627 30.6015C23.8389 32.898 23.8129 35.1897 23.6846 37.4765C23.2348 38.1997 22.6489 38.343 21.9268 37.9062C21.253 36.9103 20.5889 35.9077 19.9346 34.8984C19.9085 35.7578 19.8825 36.6172 19.8564 37.4765C19.5933 38.1485 19.1115 38.3959 18.4111 38.2187C18.0262 38.0682 17.7788 37.7948 17.6689 37.3984C17.5927 35.0759 17.6187 32.7582 17.7471 30.4453C18.1935 29.7235 18.7794 29.5802 19.5049 30.0156C20.1786 31.0115 20.8427 32.0141 21.4971 33.0234C21.5231 32.164 21.5492 31.3047 21.5752 30.4453C21.7297 30.122 21.9511 29.8616 22.2393 29.664ZM26.8486 29.664C27.5488 29.5258 28.0306 29.7862 28.2939 30.4453C28.333 32.294 28.3461 34.143 28.333 35.9922C29.1181 35.8582 29.678 36.1447 30.0127 36.8515C30.1129 37.6628 29.7614 38.1445 28.958 38.2969C28.2507 38.363 27.5476 38.3369 26.8486 38.2187C26.4636 38.0682 26.2163 37.7948 26.1064 37.3984C26.0543 35.1068 26.0543 32.8151 26.1064 30.5234C26.2314 30.1255 26.4788 29.839 26.8486 29.664Z" fill="white"/>
<path opacity="0.971" fill-rule="evenodd" clip-rule="evenodd" d="M54.6611 33.2578C54.6611 33.7526 54.6611 34.2474 54.6611 34.7422C53.9674 36.7043 52.5871 37.4985 50.5205 37.125C49.5605 36.8027 48.8574 36.1907 48.4111 35.2891C46.4847 35.2109 44.5577 35.1849 42.6299 35.2109C42.7314 34.4034 42.7314 33.5961 42.6299 32.7891C44.5577 32.8151 46.4847 32.7891 48.4111 32.7109C49.0115 31.4405 50.0142 30.7634 51.4189 30.6797C53.0914 30.8051 54.1721 31.6645 54.6611 33.2578Z" fill="white"/>
<path opacity="0.909" fill-rule="evenodd" clip-rule="evenodd" d="M34.1924 31.9297C35.3352 31.7571 35.7909 32.2258 35.5596 33.3359C35.1861 33.7129 34.7304 33.8692 34.1924 33.8047C34.1924 33.1797 34.1924 32.5547 34.1924 31.9297Z" fill="white"/>
<path opacity="0.969" fill-rule="evenodd" clip-rule="evenodd" d="M54.6611 48.8828C54.6611 49.3776 54.6611 49.8724 54.6611 50.3672C53.9674 52.3293 52.5871 53.1235 50.5205 52.75C49.5605 52.4277 48.8574 51.8157 48.4111 50.9141C46.8493 50.849 45.2868 50.8099 43.7236 50.7969C43.2939 50.6797 43.0205 50.4063 42.9033 49.9766C42.8643 47.3725 42.8512 44.7684 42.8643 42.1641C42.0045 42.1771 41.1451 42.1641 40.2861 42.125C40.7636 41.3785 41.1803 40.5973 41.5361 39.7813C42.4476 39.7292 43.359 39.7292 44.2705 39.7813C44.6796 39.8516 44.9792 40.073 45.1689 40.4453C45.2845 43.0967 45.3236 45.753 45.2861 48.4141C46.3291 48.4401 47.3707 48.414 48.4111 48.336C49.0115 47.0656 50.0142 46.3885 51.4189 46.3047C53.0921 46.4292 54.1728 47.2885 54.6611 48.8828Z" fill="white"/>
</g>
<rect x="0.700195" width="68" height="68" rx="10" fill="url(#paint0_linear_29_648)"/>
<path opacity="0.988" fill-rule="evenodd" clip-rule="evenodd" d="M18.4111 15.5234C29.4789 15.5104 40.5466 15.5234 51.6143 15.5625C52.5138 15.6667 53.0997 16.1485 53.3721 17.0078C53.4111 23.362 53.4242 29.7161 53.4111 36.0703C40.9111 36.0703 28.4111 36.0703 15.9111 36.0703C15.8981 29.9245 15.9111 23.7786 15.9502 17.6328C16.3315 16.4044 17.1518 15.7013 18.4111 15.5234ZM38.958 19.3516C42.2774 19.3627 44.6082 20.8731 45.9502 23.8828C47.0193 27.4313 46.0427 30.2569 43.0205 32.3594C40.0835 33.8845 37.3231 33.6241 34.7393 31.5781C32.1974 28.9347 31.7677 25.9789 33.4502 22.7109C34.7568 20.723 36.5928 19.6032 38.958 19.3516ZM39.1143 21.5391C41.8315 21.6137 43.5112 22.9678 44.1533 25.6016C44.3441 28.5613 43.0029 30.3972 40.1299 31.1094C36.8378 31.2028 34.9888 29.6143 34.583 26.3438C34.7696 24.017 35.9675 22.4805 38.1768 21.7344C38.5 21.6688 38.8125 21.6037 39.1143 21.5391ZM23.1768 22.8672C25.2603 22.8541 27.3436 22.8672 29.4268 22.9063C29.839 23.2511 29.813 23.5636 29.3486 23.8438C27.3174 23.8959 25.2861 23.8959 23.2549 23.8438C22.7612 23.5512 22.7352 23.2256 23.1768 22.8672ZM20.9111 25.9141C23.7498 25.901 26.5883 25.9141 29.4268 25.9531C29.839 26.298 29.813 26.6105 29.3486 26.8906C26.5622 26.9427 23.7757 26.9427 20.9893 26.8906C20.5077 26.5945 20.4817 26.2691 20.9111 25.9141ZM25.2861 28.9609C26.6666 28.9479 28.0468 28.9609 29.4268 29C29.839 29.3448 29.813 29.6573 29.3486 29.9375C28.0205 29.9896 26.6924 29.9896 25.3643 29.9375C24.8706 29.6449 24.8446 29.3194 25.2861 28.9609Z" fill="white"/>
<path opacity="0.921" fill-rule="evenodd" clip-rule="evenodd" d="M39.1143 20.3672C41.8179 20.4048 43.758 21.6287 44.9347 24.0391C45.9711 27.206 45.1247 29.719 42.3956 31.5781C39.88 32.7877 37.5362 32.5272 35.3643 30.7969C33.5125 28.9074 33.0047 26.7069 33.8409 24.1953C34.8466 21.8766 36.6044 20.6006 39.1143 20.3672ZM39.1143 21.5391C38.8125 21.6037 38.5 21.6688 38.1768 21.7344C35.9676 22.4805 34.7697 24.017 34.5831 26.3438C34.9889 29.6143 36.8379 31.2028 40.13 31.1094C43.003 30.3972 44.3442 28.5612 44.1534 25.6016C43.5113 22.9678 41.8316 21.6137 39.1143 21.5391Z" fill="white"/>
<path opacity="0.907" fill-rule="evenodd" clip-rule="evenodd" d="M39.2706 22.1641C39.5054 22.1448 39.7007 22.2229 39.8566 22.3984C39.9042 22.6584 39.9433 22.9188 39.9737 23.1797C40.4458 23.253 40.8494 23.4613 41.1847 23.8047C41.4315 24.1348 41.3924 24.4342 41.0675 24.7031C40.9112 24.7552 40.755 24.7552 40.5987 24.7031C40.1912 24.2778 39.6965 24.0955 39.1144 24.1562C38.3412 24.4817 38.211 24.9765 38.7237 25.6406C39.1498 25.8016 39.5925 25.9058 40.0519 25.9531C41.109 26.2837 41.5908 26.9999 41.4972 28.1016C41.3021 28.8828 40.8203 29.4036 40.0519 29.6641C40.0632 30.423 39.7247 30.6705 39.0362 30.4062C38.9131 30.1757 38.861 29.9284 38.88 29.6641C38.4009 29.5612 37.9973 29.3268 37.6691 28.9609C37.4476 28.2708 37.695 27.9973 38.4112 28.1406C38.9689 28.7341 39.5809 28.7992 40.2472 28.3359C40.5976 27.6946 40.4284 27.2389 39.7394 26.9687C38.8515 27.0034 38.1353 26.6778 37.5909 25.9922C37.0222 24.599 37.4388 23.6354 38.8409 23.1016C38.8669 22.8932 38.893 22.6849 38.9191 22.4766C39.0167 22.3443 39.1339 22.2401 39.2706 22.1641Z" fill="white"/>
<path opacity="0.978" fill-rule="evenodd" clip-rule="evenodd" d="M15.9114 37.0859C28.4114 37.0859 40.9114 37.0859 53.4114 37.0859C53.4455 38.3144 53.4064 39.5384 53.2942 40.7578C52.9349 41.5948 52.3229 42.1548 51.4582 42.4375C45.8621 42.528 40.2631 42.5671 34.6614 42.5547C29.0596 42.5671 23.4606 42.528 17.8645 42.4375C16.9998 42.1548 16.3878 41.5948 16.0285 40.7578C15.9163 39.5384 15.8772 38.3144 15.9114 37.0859ZM34.3489 39.0391C35.1682 38.9599 35.5198 39.3245 35.4035 40.1328C35.1755 40.5645 34.8239 40.7077 34.3489 40.5625C33.9172 40.3345 33.774 39.9829 33.9192 39.5078C34.0254 39.3107 34.1686 39.1545 34.3489 39.0391Z" fill="white"/>
<path opacity="0.971" fill-rule="evenodd" clip-rule="evenodd" d="M29.7393 43.5703C32.9945 43.5703 36.2496 43.5703 39.5049 43.5703C39.6053 45.0915 39.8918 46.5759 40.3643 48.0234C36.5621 48.0234 32.7601 48.0234 28.958 48.0234C29.3954 46.5714 29.6557 45.087 29.7393 43.5703Z" fill="white"/>
<path opacity="0.971" fill-rule="evenodd" clip-rule="evenodd" d="M25.4424 49.0391C31.5882 49.026 37.7341 49.0391 43.8799 49.0781C44.6587 49.3238 45.0754 49.8576 45.1299 50.6797C45.0346 51.5952 44.5398 52.1551 43.6455 52.3594C37.6559 52.4115 31.6664 52.4115 25.6768 52.3594C24.7825 52.1551 24.2877 51.5952 24.1924 50.6797C24.2625 49.856 24.6791 49.3092 25.4424 49.0391Z" fill="white"/>
<defs>
<linearGradient id="paint0_linear_29_648" x1="34.7002" y1="0" x2="34.7002" y2="68" gradientUnits="userSpaceOnUse">
<stop stop-color="#188DCD"/>
<stop offset="1" stop-color="#29BCEE"/>
</linearGradient>
<clipPath id="clip0_29_648">
<rect width="40" height="40" fill="white" transform="translate(14.7002 14)"/>
</clipPath>
</defs>
</svg>
