<svg width="20" height="20" viewBox="0 0 20 20" fill="none" xmlns="http://www.w3.org/2000/svg">
<g clip-path="url(#clip0_1_453)">
<path opacity="0.966" fill-rule="evenodd" clip-rule="evenodd" d="M0.175781 -0.0195312C2.14193 -0.0195312 4.10809 -0.0195312 6.07422 -0.0195312C7.72773 2.42782 9.4009 4.8627 11.0938 7.28516C13.1918 4.85523 15.2816 2.42036 17.3633 -0.0195312C17.9622 -0.0195312 18.5612 -0.0195312 19.1602 -0.0195312C16.7392 2.80523 14.3173 5.63074 11.8945 8.45703C14.5257 12.2989 17.1559 16.14 19.7852 19.9805C17.819 19.9805 15.8529 19.9805 13.8867 19.9805C12.131 17.3977 10.3667 14.8196 8.59375 12.2461C6.37852 14.8192 4.17148 17.3973 1.97266 19.9805C1.3737 19.9805 0.774738 19.9805 0.175781 19.9805C2.70716 17.0128 5.24621 14.0505 7.79297 11.0938C5.25855 7.38547 2.71951 3.68104 0.175781 -0.0195312ZM2.59766 1.34766C3.46368 1.29576 4.33609 1.29576 5.21484 1.34766C9.24988 7.14566 13.2994 12.9334 17.3633 18.7109C16.4906 18.7435 15.6182 18.737 14.7461 18.6914C10.6957 12.9076 6.64625 7.12633 2.59766 1.34766Z" fill="#29A0D6"/>
</g>
<defs>
<clipPath id="clip0_1_453">
<rect width="20" height="20" fill="white"/>
</clipPath>
</defs>
</svg>
