<svg width="20" height="20" viewBox="0 0 20 20" fill="none" xmlns="http://www.w3.org/2000/svg">
<path opacity="0.993" fill-rule="evenodd" clip-rule="evenodd" d="M7.98833 3.22309C9.78555 3.21346 11.5824 3.23299 13.379 3.28168C14.4101 3.30786 15.4388 3.37297 16.4649 3.477C17.5629 3.49467 18.3636 3.98293 18.8672 4.94184C19.0545 5.51336 19.1716 6.0993 19.2188 6.69965C19.4011 8.74391 19.4011 10.7882 19.2188 12.8325C19.1792 13.279 19.1141 13.7217 19.0235 14.1606C18.8266 15.0736 18.2863 15.679 17.4024 15.977C16.8493 16.1025 16.2894 16.1806 15.7227 16.2114C12.3517 16.4102 8.97934 16.4362 5.60552 16.2895C4.59403 16.2649 3.59143 16.1607 2.5977 15.977C1.49199 15.5844 0.899543 14.7966 0.820359 13.6137C0.455586 10.8599 0.494648 8.1125 0.937547 5.37153C1.18761 4.45739 1.76704 3.86495 2.67583 3.59418C3.17926 3.49566 3.68707 3.43055 4.19927 3.39887C5.4677 3.32209 6.73071 3.2635 7.98833 3.22309ZM8.10552 7.05121C9.72431 7.95836 11.3389 8.87633 12.9493 9.80512C11.3477 10.7231 9.74614 11.6411 8.14458 12.559C8.10552 10.7233 8.09251 8.88735 8.10552 7.05121Z" fill="#29A0D6"/>
</svg>
